G75*
G70*
%OFA0B0*%
%FSLAX24Y24*%
%IPPOS*%
%LPD*%
%AMOC8*
5,1,8,0,0,1.08239X$1,22.5*
%
%ADD10C,0.0520*%
%ADD11OC8,0.0600*%
%ADD12C,0.0660*%
%ADD13C,0.0600*%
%ADD14C,0.0440*%
%ADD15OC8,0.0850*%
%ADD16OC8,0.0620*%
%ADD17C,0.0620*%
%ADD18C,0.0400*%
%ADD19C,0.0100*%
%ADD20C,0.0591*%
%ADD21C,0.0160*%
D10*
X021890Y003150D02*
X022410Y003150D01*
X022410Y004150D02*
X021890Y004150D01*
X021890Y005150D02*
X022410Y005150D01*
X022410Y006150D02*
X021890Y006150D01*
X021890Y007150D02*
X022410Y007150D01*
X022410Y008150D02*
X021890Y008150D01*
X021890Y009150D02*
X022410Y009150D01*
X022410Y010150D02*
X021890Y010150D01*
X021890Y011150D02*
X022410Y011150D01*
X022410Y012150D02*
X021890Y012150D01*
X021890Y013150D02*
X022410Y013150D01*
X022410Y014150D02*
X021890Y014150D01*
X021890Y015150D02*
X022410Y015150D01*
X022410Y016150D02*
X021890Y016150D01*
X024890Y016150D02*
X025410Y016150D01*
X025410Y015150D02*
X024890Y015150D01*
X024890Y014150D02*
X025410Y014150D01*
X025410Y013150D02*
X024890Y013150D01*
X024890Y012150D02*
X025410Y012150D01*
X025410Y011150D02*
X024890Y011150D01*
X024890Y010150D02*
X025410Y010150D01*
X025410Y009150D02*
X024890Y009150D01*
X024890Y008150D02*
X025410Y008150D01*
X025410Y007150D02*
X024890Y007150D01*
X024890Y006150D02*
X025410Y006150D01*
X025410Y005150D02*
X024890Y005150D01*
X024890Y004150D02*
X025410Y004150D01*
X025410Y003150D02*
X024890Y003150D01*
D11*
X037150Y009150D03*
X038150Y009150D03*
X038150Y010150D03*
X037150Y010150D03*
X037150Y011150D03*
X038150Y011150D03*
X038150Y012150D03*
X037150Y012150D03*
X037150Y013150D03*
X038150Y013150D03*
X038150Y014150D03*
X037150Y014150D03*
X037150Y015150D03*
X038150Y015150D03*
X038150Y016150D03*
X037150Y016150D03*
D12*
X025480Y018150D02*
X024820Y018150D01*
X024820Y019150D02*
X025480Y019150D01*
X025480Y020150D02*
X024820Y020150D01*
D13*
X009450Y015150D02*
X008850Y015150D01*
X008850Y014150D02*
X009450Y014150D01*
X009450Y013150D02*
X008850Y013150D01*
X008850Y012150D02*
X009450Y012150D01*
X009450Y011150D02*
X008850Y011150D01*
X008850Y010150D02*
X009450Y010150D01*
X006450Y019650D02*
X005850Y019650D01*
X005850Y020650D02*
X006450Y020650D01*
X006450Y021650D02*
X005850Y021650D01*
X005850Y022650D02*
X006450Y022650D01*
X028850Y008150D02*
X029450Y008150D01*
X029450Y007150D02*
X028850Y007150D01*
X028850Y006150D02*
X029450Y006150D01*
X029450Y005150D02*
X028850Y005150D01*
X028850Y004150D02*
X029450Y004150D01*
X029450Y003150D02*
X028850Y003150D01*
D14*
X027370Y010650D02*
X026930Y010650D01*
X026930Y012650D02*
X027370Y012650D01*
D15*
X036456Y019150D03*
X036456Y022150D03*
D16*
X017362Y021119D03*
D17*
X017362Y020119D03*
D18*
X020150Y020150D03*
X022150Y022150D03*
X026150Y023150D03*
X023650Y018150D03*
X025150Y017150D03*
X020150Y018150D03*
X017650Y022150D03*
X008650Y020650D03*
X007150Y021650D03*
X012650Y015150D03*
X017150Y014150D03*
X018150Y014150D03*
X019150Y014150D03*
X027650Y009350D03*
X029450Y009750D03*
X030150Y008650D03*
X031750Y008950D03*
X032150Y007550D03*
X033450Y007650D03*
X031550Y006250D03*
X032850Y005950D03*
X034150Y004150D03*
X036150Y003650D03*
X036450Y004350D03*
X037450Y007850D03*
X038450Y007850D03*
X039250Y008350D03*
X036150Y008150D03*
X034350Y009050D03*
X036250Y010250D03*
X038650Y010650D03*
X038750Y012050D03*
X039050Y013050D03*
X035150Y012350D03*
X036050Y016250D03*
X030650Y003650D03*
X025350Y002550D03*
D19*
X024550Y002550D01*
X023150Y003950D01*
X023150Y015350D01*
X022350Y016150D01*
X022150Y016150D01*
X022485Y015760D02*
X021812Y015760D01*
X021669Y015819D01*
X021559Y015929D01*
X021500Y016072D01*
X021500Y016228D01*
X021559Y016371D01*
X021669Y016481D01*
X021812Y016540D01*
X022488Y016540D01*
X022631Y016481D01*
X022741Y016371D01*
X022800Y016228D01*
X022800Y016072D01*
X022765Y015989D01*
X023330Y015425D01*
X023330Y004025D01*
X024625Y002730D01*
X025067Y002730D01*
X025070Y002737D01*
X025093Y002760D01*
X024812Y002760D01*
X024669Y002819D01*
X024559Y002929D01*
X024500Y003072D01*
X024500Y003228D01*
X024559Y003371D01*
X024669Y003481D01*
X024812Y003540D01*
X025488Y003540D01*
X025631Y003481D01*
X025741Y003371D01*
X025800Y003228D01*
X025800Y003072D01*
X025741Y002929D01*
X025631Y002819D01*
X025572Y002795D01*
X025630Y002737D01*
X025680Y002616D01*
X025680Y002484D01*
X025630Y002363D01*
X025537Y002270D01*
X025416Y002220D01*
X025284Y002220D01*
X025163Y002270D01*
X025070Y002363D01*
X025067Y002370D01*
X024475Y002370D01*
X023075Y003770D01*
X022970Y003875D01*
X022970Y015275D01*
X022485Y015760D01*
X022525Y015721D02*
X001100Y015721D01*
X001100Y015819D02*
X021670Y015819D01*
X021571Y015918D02*
X004380Y015918D01*
X004315Y015900D02*
X004632Y015985D01*
X004918Y016150D01*
X005150Y016382D01*
X005315Y016668D01*
X005400Y016985D01*
X005400Y017315D01*
X005315Y017632D01*
X005150Y017918D01*
X004918Y018150D01*
X004632Y018315D01*
X004315Y018400D01*
X003985Y018400D01*
X003668Y018315D01*
X003382Y018150D01*
X003150Y017918D01*
X002985Y017632D01*
X002900Y017315D01*
X002900Y016985D01*
X002985Y016668D01*
X003150Y016382D01*
X003382Y016150D01*
X003668Y015985D01*
X003985Y015900D01*
X004315Y015900D01*
X004686Y016016D02*
X021523Y016016D01*
X021500Y016115D02*
X004857Y016115D01*
X004981Y016213D02*
X021500Y016213D01*
X021535Y016312D02*
X005079Y016312D01*
X005166Y016410D02*
X021598Y016410D01*
X021736Y016509D02*
X005223Y016509D01*
X005280Y016607D02*
X039570Y016607D01*
X039570Y016509D02*
X038400Y016509D01*
X038328Y016580D02*
X038580Y016328D01*
X038580Y015975D01*
X039570Y014984D01*
X039570Y024483D01*
X001100Y024483D01*
X001100Y006650D01*
X010650Y006650D01*
X010650Y012650D01*
X016970Y012650D01*
X016970Y013867D01*
X016963Y013870D01*
X016870Y013963D01*
X016820Y014084D01*
X016820Y014216D01*
X016870Y014337D01*
X016963Y014430D01*
X017084Y014480D01*
X017216Y014480D01*
X017337Y014430D01*
X017430Y014337D01*
X017480Y014216D01*
X017480Y014084D01*
X017430Y013963D01*
X017337Y013870D01*
X017330Y013867D01*
X017330Y012650D01*
X017970Y012650D01*
X017970Y013867D01*
X017963Y013870D01*
X017870Y013963D01*
X017820Y014084D01*
X017820Y014216D01*
X017870Y014337D01*
X017963Y014430D01*
X018084Y014480D01*
X018216Y014480D01*
X018337Y014430D01*
X018430Y014337D01*
X018480Y014216D01*
X018480Y014084D01*
X018430Y013963D01*
X018337Y013870D01*
X018330Y013867D01*
X018330Y012650D01*
X018970Y012650D01*
X018970Y013867D01*
X018963Y013870D01*
X018870Y013963D01*
X018820Y014084D01*
X018820Y014216D01*
X018870Y014337D01*
X018963Y014430D01*
X019084Y014480D01*
X019216Y014480D01*
X019337Y014430D01*
X019430Y014337D01*
X019480Y014216D01*
X019480Y014084D01*
X019430Y013963D01*
X019337Y013870D01*
X019330Y013867D01*
X019330Y012650D01*
X020650Y012650D01*
X020650Y007650D01*
X021650Y007650D01*
X021650Y007462D01*
X021669Y007481D01*
X021812Y007540D01*
X022488Y007540D01*
X022631Y007481D01*
X022741Y007371D01*
X022800Y007228D01*
X022800Y007072D01*
X022741Y006929D01*
X022631Y006819D01*
X022488Y006760D01*
X021812Y006760D01*
X021669Y006819D01*
X021650Y006838D01*
X021650Y006462D01*
X021669Y006481D01*
X021812Y006540D01*
X022488Y006540D01*
X022631Y006481D01*
X022741Y006371D01*
X022800Y006228D01*
X022800Y006072D01*
X022741Y005929D01*
X022631Y005819D01*
X022488Y005760D01*
X021812Y005760D01*
X021669Y005819D01*
X021650Y005838D01*
X021650Y005462D01*
X021669Y005481D01*
X021812Y005540D01*
X022488Y005540D01*
X022631Y005481D01*
X022741Y005371D01*
X022800Y005228D01*
X022800Y005072D01*
X022741Y004929D01*
X022631Y004819D01*
X022488Y004760D01*
X021812Y004760D01*
X021669Y004819D01*
X021650Y004838D01*
X021650Y004462D01*
X021669Y004481D01*
X021812Y004540D01*
X022488Y004540D01*
X022631Y004481D01*
X022741Y004371D01*
X022800Y004228D01*
X022800Y004072D01*
X022741Y003929D01*
X022631Y003819D01*
X022488Y003760D01*
X021812Y003760D01*
X021669Y003819D01*
X021650Y003838D01*
X021650Y003462D01*
X021669Y003481D01*
X021812Y003540D01*
X022488Y003540D01*
X022631Y003481D01*
X022741Y003371D01*
X022800Y003228D01*
X022800Y003072D01*
X022741Y002929D01*
X022631Y002819D01*
X022488Y002760D01*
X021812Y002760D01*
X021669Y002819D01*
X021650Y002838D01*
X021650Y001100D01*
X039570Y001100D01*
X039570Y008260D01*
X039530Y008163D01*
X039437Y008070D01*
X039316Y008020D01*
X039184Y008020D01*
X039063Y008070D01*
X038970Y008163D01*
X038920Y008284D01*
X038920Y008416D01*
X038970Y008537D01*
X039063Y008630D01*
X039070Y008633D01*
X039070Y008975D01*
X038325Y009720D01*
X037972Y009720D01*
X037720Y009972D01*
X037720Y010328D01*
X037972Y010580D01*
X038328Y010580D01*
X038580Y010328D01*
X038580Y009975D01*
X039430Y009125D01*
X039430Y008633D01*
X039437Y008630D01*
X039530Y008537D01*
X039570Y008440D01*
X039570Y012616D01*
X039077Y012123D01*
X039080Y012116D01*
X039080Y011984D01*
X039030Y011863D01*
X038937Y011770D01*
X038816Y011720D01*
X038684Y011720D01*
X038563Y011770D01*
X038471Y011863D01*
X038328Y011720D01*
X037972Y011720D01*
X037720Y011972D01*
X037720Y012328D01*
X037972Y012580D01*
X038325Y012580D01*
X038723Y012977D01*
X038720Y012984D01*
X038720Y013116D01*
X038770Y013237D01*
X038863Y013330D01*
X038984Y013380D01*
X039116Y013380D01*
X039237Y013330D01*
X039330Y013237D01*
X039370Y013140D01*
X039370Y014675D01*
X038325Y015720D01*
X037972Y015720D01*
X037720Y015972D01*
X037720Y016328D01*
X037972Y016580D01*
X038328Y016580D01*
X038498Y016410D02*
X039570Y016410D01*
X039570Y016312D02*
X038580Y016312D01*
X038580Y016213D02*
X039570Y016213D01*
X039570Y016115D02*
X038580Y016115D01*
X038580Y016016D02*
X039570Y016016D01*
X039570Y015918D02*
X038637Y015918D01*
X038736Y015819D02*
X039570Y015819D01*
X039570Y015721D02*
X038834Y015721D01*
X038933Y015622D02*
X039570Y015622D01*
X039570Y015524D02*
X039031Y015524D01*
X039130Y015425D02*
X039570Y015425D01*
X039570Y015327D02*
X039228Y015327D01*
X039327Y015228D02*
X039570Y015228D01*
X039570Y015130D02*
X039425Y015130D01*
X039524Y015031D02*
X039570Y015031D01*
X039550Y014750D02*
X038150Y016150D01*
X037720Y016115D02*
X037580Y016115D01*
X037580Y016213D02*
X037720Y016213D01*
X037720Y016312D02*
X037580Y016312D01*
X037580Y016328D02*
X037328Y016580D01*
X036972Y016580D01*
X036720Y016328D01*
X036720Y015972D01*
X036972Y015720D01*
X037328Y015720D01*
X037580Y015972D01*
X037580Y016328D01*
X037498Y016410D02*
X037802Y016410D01*
X037900Y016509D02*
X037400Y016509D01*
X036900Y016509D02*
X036258Y016509D01*
X036237Y016530D02*
X036116Y016580D01*
X035984Y016580D01*
X035863Y016530D01*
X035770Y016437D01*
X035720Y016316D01*
X035720Y016184D01*
X035770Y016063D01*
X035863Y015970D01*
X035984Y015920D01*
X036116Y015920D01*
X036123Y015923D01*
X036720Y015325D01*
X036720Y014972D01*
X036972Y014720D01*
X037328Y014720D01*
X037580Y014972D01*
X037580Y015328D01*
X037328Y015580D01*
X036975Y015580D01*
X036377Y016177D01*
X036380Y016184D01*
X036380Y016316D01*
X036330Y016437D01*
X036237Y016530D01*
X036341Y016410D02*
X036802Y016410D01*
X036720Y016312D02*
X036380Y016312D01*
X036380Y016213D02*
X036720Y016213D01*
X036720Y016115D02*
X036440Y016115D01*
X036539Y016016D02*
X036720Y016016D01*
X036774Y015918D02*
X036637Y015918D01*
X036736Y015819D02*
X036873Y015819D01*
X036834Y015721D02*
X036971Y015721D01*
X036933Y015622D02*
X038423Y015622D01*
X038328Y015580D02*
X038580Y015328D01*
X038580Y014972D01*
X038328Y014720D01*
X037972Y014720D01*
X037720Y014972D01*
X037720Y015328D01*
X037972Y015580D01*
X038328Y015580D01*
X038385Y015524D02*
X038522Y015524D01*
X038483Y015425D02*
X038620Y015425D01*
X038580Y015327D02*
X038719Y015327D01*
X038817Y015228D02*
X038580Y015228D01*
X038580Y015130D02*
X038916Y015130D01*
X039014Y015031D02*
X038580Y015031D01*
X038541Y014933D02*
X039113Y014933D01*
X039211Y014834D02*
X038442Y014834D01*
X038344Y014736D02*
X039310Y014736D01*
X039370Y014637D02*
X027118Y014637D01*
X027216Y014539D02*
X036930Y014539D01*
X036972Y014580D02*
X036722Y014330D01*
X036375Y014330D01*
X036270Y014225D01*
X034170Y012125D01*
X034170Y009333D01*
X034163Y009330D01*
X034070Y009237D01*
X034020Y009116D01*
X034020Y008984D01*
X034070Y008863D01*
X034163Y008770D01*
X034271Y008726D01*
X033523Y007977D01*
X033516Y007980D01*
X033384Y007980D01*
X033263Y007930D01*
X033170Y007837D01*
X033126Y007729D01*
X032330Y008525D01*
X032330Y009425D01*
X025765Y015989D01*
X025800Y016072D01*
X025800Y016228D01*
X025741Y016371D01*
X025631Y016481D01*
X025488Y016540D01*
X024812Y016540D01*
X024669Y016481D01*
X024559Y016371D01*
X024500Y016228D01*
X024500Y016072D01*
X024559Y015929D01*
X024669Y015819D01*
X024812Y015760D01*
X025485Y015760D01*
X031970Y009275D01*
X031970Y009197D01*
X031937Y009230D01*
X031816Y009280D01*
X031684Y009280D01*
X031677Y009277D01*
X025800Y015155D01*
X025800Y015228D01*
X026017Y015228D01*
X025919Y015327D02*
X025759Y015327D01*
X025741Y015371D02*
X025631Y015481D01*
X025488Y015540D01*
X024812Y015540D01*
X024669Y015481D01*
X024559Y015371D01*
X024500Y015228D01*
X023330Y015228D01*
X023330Y015130D02*
X024500Y015130D01*
X024500Y015072D02*
X024559Y014929D01*
X024669Y014819D01*
X024812Y014760D01*
X025488Y014760D01*
X025627Y014818D01*
X027450Y012996D01*
X027440Y013000D01*
X026860Y013000D01*
X026732Y012947D01*
X026633Y012848D01*
X026580Y012720D01*
X026580Y012580D01*
X026633Y012452D01*
X026732Y012353D01*
X026860Y012300D01*
X027440Y012300D01*
X027568Y012353D01*
X027667Y012452D01*
X027720Y012580D01*
X027720Y012720D01*
X027716Y012730D01*
X031423Y009023D01*
X031420Y009016D01*
X031420Y008884D01*
X031470Y008763D01*
X031563Y008670D01*
X031684Y008620D01*
X031816Y008620D01*
X031937Y008670D01*
X031970Y008703D01*
X031970Y008375D01*
X032075Y008270D01*
X033275Y007070D01*
X033475Y007070D01*
X036123Y004423D01*
X036120Y004416D01*
X036120Y004284D01*
X036170Y004163D01*
X036263Y004070D01*
X036384Y004020D01*
X036516Y004020D01*
X036637Y004070D01*
X036730Y004163D01*
X036780Y004284D01*
X036780Y004416D01*
X036730Y004537D01*
X036637Y004630D01*
X036516Y004680D01*
X036384Y004680D01*
X036377Y004677D01*
X033730Y007325D01*
X033661Y007394D01*
X033730Y007463D01*
X033780Y007584D01*
X033780Y007716D01*
X033777Y007723D01*
X035925Y009870D01*
X036030Y009975D01*
X036030Y010003D01*
X036063Y009970D01*
X036070Y009967D01*
X036070Y008975D01*
X036175Y008870D01*
X036175Y008870D01*
X037123Y007923D01*
X037120Y007916D01*
X037120Y007784D01*
X037170Y007663D01*
X037263Y007570D01*
X037384Y007520D01*
X037516Y007520D01*
X037637Y007570D01*
X037730Y007663D01*
X037780Y007784D01*
X037780Y007916D01*
X037730Y008037D01*
X037637Y008130D01*
X037516Y008180D01*
X037384Y008180D01*
X037377Y008177D01*
X036430Y009125D01*
X036430Y009967D01*
X036437Y009970D01*
X036530Y010063D01*
X036580Y010184D01*
X036580Y010316D01*
X036530Y010437D01*
X036437Y010530D01*
X036329Y010574D01*
X036723Y010969D01*
X036972Y010720D01*
X037328Y010720D01*
X037580Y010972D01*
X037580Y011328D01*
X037438Y011470D01*
X037575Y011470D01*
X037720Y011325D01*
X037720Y010972D01*
X037972Y010720D01*
X038328Y010720D01*
X038580Y010972D01*
X038580Y011328D01*
X038328Y011580D01*
X037975Y011580D01*
X037725Y011830D01*
X037438Y011830D01*
X037580Y011972D01*
X037580Y012328D01*
X037328Y012580D01*
X036972Y012580D01*
X036720Y012328D01*
X036720Y011972D01*
X036845Y011847D01*
X035480Y012409D01*
X035480Y012416D01*
X035430Y012537D01*
X035337Y012630D01*
X035229Y012674D01*
X036525Y013970D01*
X036722Y013970D01*
X036972Y013720D01*
X037328Y013720D01*
X037580Y013972D01*
X037580Y014328D01*
X037328Y014580D01*
X036972Y014580D01*
X036956Y014736D02*
X027019Y014736D01*
X026921Y014834D02*
X036858Y014834D01*
X036759Y014933D02*
X026822Y014933D01*
X026724Y015031D02*
X036720Y015031D01*
X036720Y015130D02*
X026625Y015130D01*
X026527Y015228D02*
X036720Y015228D01*
X036719Y015327D02*
X026428Y015327D01*
X026330Y015425D02*
X036620Y015425D01*
X036522Y015524D02*
X026231Y015524D01*
X026133Y015622D02*
X036423Y015622D01*
X036325Y015721D02*
X026034Y015721D01*
X025936Y015819D02*
X036226Y015819D01*
X036128Y015918D02*
X025837Y015918D01*
X025777Y016016D02*
X035817Y016016D01*
X035749Y016115D02*
X025800Y016115D01*
X025800Y016213D02*
X035720Y016213D01*
X035720Y016312D02*
X025765Y016312D01*
X025702Y016410D02*
X035759Y016410D01*
X035842Y016509D02*
X025564Y016509D01*
X025350Y016150D02*
X025150Y016150D01*
X025350Y016150D02*
X032150Y009350D01*
X032150Y008450D01*
X033350Y007250D01*
X033550Y007250D01*
X036450Y004350D01*
X036677Y004590D02*
X039570Y004590D01*
X039570Y004492D02*
X036749Y004492D01*
X036780Y004393D02*
X039570Y004393D01*
X039570Y004295D02*
X036780Y004295D01*
X036743Y004196D02*
X039570Y004196D01*
X039570Y004098D02*
X036664Y004098D01*
X036236Y004098D02*
X029880Y004098D01*
X029880Y004064D02*
X029880Y004236D01*
X029815Y004394D01*
X029694Y004515D01*
X029536Y004580D01*
X028764Y004580D01*
X028606Y004515D01*
X028485Y004394D01*
X028420Y004236D01*
X028420Y004064D01*
X028485Y003906D01*
X028606Y003785D01*
X028764Y003720D01*
X029536Y003720D01*
X029694Y003785D01*
X029815Y003906D01*
X029880Y004064D01*
X029853Y003999D02*
X039570Y003999D01*
X039570Y003901D02*
X029809Y003901D01*
X029710Y003802D02*
X039570Y003802D01*
X039570Y003704D02*
X023651Y003704D01*
X023553Y003802D02*
X024711Y003802D01*
X024669Y003819D02*
X024812Y003760D01*
X025488Y003760D01*
X025631Y003819D01*
X025741Y003929D01*
X025758Y003970D01*
X026725Y003970D01*
X028573Y005819D01*
X028606Y005785D01*
X028764Y005720D01*
X029536Y005720D01*
X029694Y005785D01*
X029815Y005906D01*
X029880Y006064D01*
X029880Y006236D01*
X029815Y006394D01*
X029694Y006515D01*
X029536Y006580D01*
X028764Y006580D01*
X028606Y006515D01*
X028485Y006394D01*
X028420Y006236D01*
X028420Y006175D01*
X026575Y004330D01*
X025758Y004330D01*
X025741Y004371D01*
X025631Y004481D01*
X025488Y004540D01*
X024812Y004540D01*
X024669Y004481D01*
X024559Y004371D01*
X024500Y004228D01*
X024500Y004072D01*
X024559Y003929D01*
X024669Y003819D01*
X024588Y003901D02*
X023454Y003901D01*
X023356Y003999D02*
X024530Y003999D01*
X024500Y004098D02*
X023330Y004098D01*
X023330Y004196D02*
X024500Y004196D01*
X024528Y004295D02*
X023330Y004295D01*
X023330Y004393D02*
X024581Y004393D01*
X024695Y004492D02*
X023330Y004492D01*
X023330Y004590D02*
X026835Y004590D01*
X026737Y004492D02*
X025605Y004492D01*
X025719Y004393D02*
X026638Y004393D01*
X026650Y004150D02*
X028650Y006150D01*
X029150Y006150D01*
X029661Y005772D02*
X032417Y005772D01*
X032319Y005674D02*
X028428Y005674D01*
X028527Y005772D02*
X028639Y005772D01*
X028752Y005575D02*
X028330Y005575D01*
X028231Y005477D02*
X028568Y005477D01*
X028606Y005515D02*
X028485Y005394D01*
X028420Y005236D01*
X028420Y005064D01*
X028485Y004906D01*
X028606Y004785D01*
X028764Y004720D01*
X029536Y004720D01*
X029694Y004785D01*
X029815Y004906D01*
X029841Y004970D01*
X032125Y004970D01*
X032230Y005075D01*
X032777Y005623D01*
X032784Y005620D01*
X032916Y005620D01*
X033037Y005670D01*
X033130Y005763D01*
X033180Y005884D01*
X033180Y006016D01*
X033130Y006137D01*
X033037Y006230D01*
X032916Y006280D01*
X032784Y006280D01*
X032663Y006230D01*
X032570Y006137D01*
X032520Y006016D01*
X032520Y005884D01*
X032523Y005877D01*
X031975Y005330D01*
X029841Y005330D01*
X029815Y005394D01*
X029694Y005515D01*
X029536Y005580D01*
X028764Y005580D01*
X028606Y005515D01*
X028479Y005378D02*
X028133Y005378D01*
X028034Y005280D02*
X028438Y005280D01*
X028420Y005181D02*
X027936Y005181D01*
X027837Y005083D02*
X028420Y005083D01*
X028453Y004984D02*
X027739Y004984D01*
X027640Y004886D02*
X028506Y004886D01*
X028605Y004787D02*
X027542Y004787D01*
X027443Y004689D02*
X035857Y004689D01*
X035758Y004787D02*
X029695Y004787D01*
X029794Y004886D02*
X035660Y004886D01*
X035561Y004984D02*
X032139Y004984D01*
X032237Y005083D02*
X035463Y005083D01*
X035364Y005181D02*
X032336Y005181D01*
X032434Y005280D02*
X035266Y005280D01*
X035167Y005378D02*
X032533Y005378D01*
X032631Y005477D02*
X035069Y005477D01*
X034970Y005575D02*
X032730Y005575D01*
X033040Y005674D02*
X034872Y005674D01*
X034773Y005772D02*
X033133Y005772D01*
X033174Y005871D02*
X034675Y005871D01*
X034576Y005969D02*
X033180Y005969D01*
X033159Y006068D02*
X034478Y006068D01*
X034379Y006166D02*
X033101Y006166D01*
X032953Y006265D02*
X034281Y006265D01*
X034182Y006363D02*
X031860Y006363D01*
X031880Y006316D02*
X031830Y006437D01*
X031737Y006530D01*
X031730Y006533D01*
X031730Y006875D01*
X032077Y007223D01*
X032084Y007220D01*
X032216Y007220D01*
X032337Y007270D01*
X032430Y007363D01*
X032480Y007484D01*
X032480Y007616D01*
X032430Y007737D01*
X032337Y007830D01*
X032216Y007880D01*
X032084Y007880D01*
X031963Y007830D01*
X031870Y007737D01*
X031820Y007616D01*
X031820Y007484D01*
X031823Y007477D01*
X031370Y007025D01*
X031370Y006533D01*
X031363Y006530D01*
X031270Y006437D01*
X031220Y006316D01*
X031220Y006184D01*
X031270Y006063D01*
X031363Y005970D01*
X031484Y005920D01*
X031616Y005920D01*
X031737Y005970D01*
X031830Y006063D01*
X031880Y006184D01*
X031880Y006316D01*
X031880Y006265D02*
X032747Y006265D01*
X032599Y006166D02*
X031872Y006166D01*
X031832Y006068D02*
X032541Y006068D01*
X032520Y005969D02*
X031734Y005969D01*
X031550Y006250D02*
X031550Y006950D01*
X032150Y007550D01*
X032480Y007545D02*
X032800Y007545D01*
X032702Y007644D02*
X032468Y007644D01*
X032425Y007742D02*
X032603Y007742D01*
X032505Y007841D02*
X032311Y007841D01*
X032406Y007939D02*
X029828Y007939D01*
X029815Y007906D02*
X029880Y008064D01*
X029880Y008236D01*
X029815Y008394D01*
X029694Y008515D01*
X029536Y008580D01*
X028764Y008580D01*
X028606Y008515D01*
X028485Y008394D01*
X028420Y008236D01*
X028420Y008064D01*
X028485Y007906D01*
X028606Y007785D01*
X028764Y007720D01*
X029536Y007720D01*
X029694Y007785D01*
X029815Y007906D01*
X029749Y007841D02*
X031989Y007841D01*
X031875Y007742D02*
X029589Y007742D01*
X029536Y007580D02*
X028764Y007580D01*
X028606Y007515D01*
X028485Y007394D01*
X028448Y007302D01*
X028370Y007225D01*
X026475Y005330D01*
X025758Y005330D01*
X025741Y005371D01*
X025631Y005481D01*
X025488Y005540D01*
X024812Y005540D01*
X024669Y005481D01*
X024559Y005371D01*
X024500Y005228D01*
X024500Y005072D01*
X024559Y004929D01*
X024669Y004819D01*
X024812Y004760D01*
X025488Y004760D01*
X025631Y004819D01*
X025741Y004929D01*
X025758Y004970D01*
X026625Y004970D01*
X028523Y006869D01*
X028606Y006785D01*
X028764Y006720D01*
X029536Y006720D01*
X029694Y006785D01*
X029815Y006906D01*
X029880Y007064D01*
X029880Y007236D01*
X029815Y007394D01*
X029694Y007515D01*
X029536Y007580D01*
X029620Y007545D02*
X031820Y007545D01*
X031832Y007644D02*
X027598Y007644D01*
X027697Y007742D02*
X028711Y007742D01*
X028551Y007841D02*
X027795Y007841D01*
X027894Y007939D02*
X028472Y007939D01*
X028431Y008038D02*
X027992Y008038D01*
X028091Y008136D02*
X028420Y008136D01*
X028420Y008235D02*
X028189Y008235D01*
X028288Y008333D02*
X028460Y008333D01*
X028523Y008432D02*
X028386Y008432D01*
X028485Y008530D02*
X028644Y008530D01*
X028583Y008629D02*
X031664Y008629D01*
X031836Y008629D02*
X031970Y008629D01*
X031970Y008530D02*
X029656Y008530D01*
X029777Y008432D02*
X031970Y008432D01*
X032012Y008333D02*
X029840Y008333D01*
X029880Y008235D02*
X032111Y008235D01*
X032209Y008136D02*
X029880Y008136D01*
X029869Y008038D02*
X032308Y008038D01*
X032522Y008333D02*
X033878Y008333D01*
X033780Y008235D02*
X032620Y008235D01*
X032719Y008136D02*
X033681Y008136D01*
X033583Y008038D02*
X032817Y008038D01*
X032916Y007939D02*
X033285Y007939D01*
X033174Y007841D02*
X033014Y007841D01*
X033113Y007742D02*
X033131Y007742D01*
X033450Y007650D02*
X035850Y010050D01*
X035850Y010350D01*
X036650Y011150D01*
X037150Y011150D01*
X037580Y011190D02*
X037720Y011190D01*
X037720Y011288D02*
X037580Y011288D01*
X037522Y011387D02*
X037659Y011387D01*
X037650Y011650D02*
X038150Y011150D01*
X038580Y011190D02*
X039570Y011190D01*
X039570Y011288D02*
X038580Y011288D01*
X038522Y011387D02*
X039570Y011387D01*
X039570Y011485D02*
X038423Y011485D01*
X038389Y011781D02*
X038553Y011781D01*
X038750Y012050D02*
X039550Y012850D01*
X039550Y014750D01*
X039370Y014539D02*
X038370Y014539D01*
X038328Y014580D02*
X038580Y014328D01*
X038580Y013972D01*
X038328Y013720D01*
X037972Y013720D01*
X037720Y013972D01*
X037720Y014328D01*
X037972Y014580D01*
X038328Y014580D01*
X038468Y014440D02*
X039370Y014440D01*
X039370Y014342D02*
X038567Y014342D01*
X038580Y014243D02*
X039370Y014243D01*
X039370Y014145D02*
X038580Y014145D01*
X038580Y014046D02*
X039370Y014046D01*
X039370Y013948D02*
X038556Y013948D01*
X038457Y013849D02*
X039370Y013849D01*
X039370Y013751D02*
X038359Y013751D01*
X038328Y013580D02*
X037972Y013580D01*
X037720Y013328D01*
X037720Y012972D01*
X037972Y012720D01*
X038328Y012720D01*
X038580Y012972D01*
X038580Y013328D01*
X038328Y013580D01*
X038355Y013554D02*
X039370Y013554D01*
X039370Y013652D02*
X036207Y013652D01*
X036305Y013751D02*
X036941Y013751D01*
X036843Y013849D02*
X036404Y013849D01*
X036502Y013948D02*
X036744Y013948D01*
X036450Y014150D02*
X037150Y014150D01*
X037457Y013849D02*
X037843Y013849D01*
X037941Y013751D02*
X037359Y013751D01*
X037328Y013580D02*
X036972Y013580D01*
X036720Y013328D01*
X036720Y012972D01*
X036972Y012720D01*
X037328Y012720D01*
X037580Y012972D01*
X037580Y013328D01*
X037328Y013580D01*
X037355Y013554D02*
X037945Y013554D01*
X037847Y013455D02*
X037453Y013455D01*
X037552Y013357D02*
X037748Y013357D01*
X037720Y013258D02*
X037580Y013258D01*
X037580Y013160D02*
X037720Y013160D01*
X037720Y013061D02*
X037580Y013061D01*
X037571Y012963D02*
X037729Y012963D01*
X037828Y012864D02*
X037472Y012864D01*
X037374Y012766D02*
X037926Y012766D01*
X037960Y012569D02*
X037340Y012569D01*
X037438Y012470D02*
X037862Y012470D01*
X037763Y012372D02*
X037537Y012372D01*
X037580Y012273D02*
X037720Y012273D01*
X037720Y012175D02*
X037580Y012175D01*
X037580Y012076D02*
X037720Y012076D01*
X037720Y011978D02*
X037580Y011978D01*
X037487Y011879D02*
X037813Y011879D01*
X037774Y011781D02*
X037911Y011781D01*
X037873Y011682D02*
X039570Y011682D01*
X039570Y011584D02*
X037971Y011584D01*
X037650Y011650D02*
X036850Y011650D01*
X035150Y012350D01*
X035457Y012470D02*
X036862Y012470D01*
X036960Y012569D02*
X035398Y012569D01*
X035247Y012667D02*
X038412Y012667D01*
X038374Y012766D02*
X038511Y012766D01*
X038472Y012864D02*
X038609Y012864D01*
X038571Y012963D02*
X038708Y012963D01*
X038720Y013061D02*
X038580Y013061D01*
X038580Y013160D02*
X038738Y013160D01*
X038791Y013258D02*
X038580Y013258D01*
X038552Y013357D02*
X038928Y013357D01*
X039172Y013357D02*
X039370Y013357D01*
X039370Y013455D02*
X038453Y013455D01*
X039050Y013050D02*
X038150Y012150D01*
X038947Y011781D02*
X039570Y011781D01*
X039570Y011879D02*
X039036Y011879D01*
X039077Y011978D02*
X039570Y011978D01*
X039570Y012076D02*
X039080Y012076D01*
X039129Y012175D02*
X039570Y012175D01*
X039570Y012273D02*
X039228Y012273D01*
X039326Y012372D02*
X039570Y012372D01*
X039570Y012470D02*
X039425Y012470D01*
X039523Y012569D02*
X039570Y012569D01*
X039370Y013160D02*
X039362Y013160D01*
X039370Y013258D02*
X039309Y013258D01*
X037744Y013948D02*
X037556Y013948D01*
X037580Y014046D02*
X037720Y014046D01*
X037720Y014145D02*
X037580Y014145D01*
X037580Y014243D02*
X037720Y014243D01*
X037733Y014342D02*
X037567Y014342D01*
X037468Y014440D02*
X037832Y014440D01*
X037930Y014539D02*
X037370Y014539D01*
X037344Y014736D02*
X037956Y014736D01*
X037858Y014834D02*
X037442Y014834D01*
X037541Y014933D02*
X037759Y014933D01*
X037720Y015031D02*
X037580Y015031D01*
X037580Y015130D02*
X037720Y015130D01*
X037720Y015228D02*
X037580Y015228D01*
X037580Y015327D02*
X037720Y015327D01*
X037817Y015425D02*
X037483Y015425D01*
X037385Y015524D02*
X037915Y015524D01*
X037971Y015721D02*
X037329Y015721D01*
X037427Y015819D02*
X037873Y015819D01*
X037774Y015918D02*
X037526Y015918D01*
X037580Y016016D02*
X037720Y016016D01*
X037150Y015150D02*
X036050Y016250D01*
X036832Y014440D02*
X027315Y014440D01*
X027413Y014342D02*
X036733Y014342D01*
X036450Y014150D02*
X034350Y012050D01*
X034350Y009050D01*
X034045Y008924D02*
X032330Y008924D01*
X032330Y008826D02*
X034108Y008826D01*
X034267Y008727D02*
X032330Y008727D01*
X032330Y008629D02*
X034174Y008629D01*
X034075Y008530D02*
X032330Y008530D01*
X032423Y008432D02*
X033977Y008432D01*
X034191Y008136D02*
X036909Y008136D01*
X036811Y008235D02*
X034289Y008235D01*
X034388Y008333D02*
X036712Y008333D01*
X036614Y008432D02*
X034486Y008432D01*
X034585Y008530D02*
X036515Y008530D01*
X036417Y008629D02*
X034683Y008629D01*
X034782Y008727D02*
X036318Y008727D01*
X036220Y008826D02*
X034880Y008826D01*
X034979Y008924D02*
X036121Y008924D01*
X036070Y009023D02*
X035077Y009023D01*
X035176Y009121D02*
X036070Y009121D01*
X036070Y009220D02*
X035274Y009220D01*
X035373Y009318D02*
X036070Y009318D01*
X036070Y009417D02*
X035471Y009417D01*
X035570Y009515D02*
X036070Y009515D01*
X036070Y009614D02*
X035668Y009614D01*
X035767Y009712D02*
X036070Y009712D01*
X036070Y009811D02*
X035865Y009811D01*
X035964Y009909D02*
X036070Y009909D01*
X036430Y009909D02*
X036783Y009909D01*
X036720Y009972D02*
X036972Y009720D01*
X037325Y009720D01*
X037470Y009575D01*
X037470Y009438D01*
X037328Y009580D01*
X036972Y009580D01*
X036720Y009328D01*
X036720Y008972D01*
X036972Y008720D01*
X037328Y008720D01*
X037470Y008862D01*
X037470Y008575D01*
X037575Y008470D01*
X038123Y007923D01*
X038120Y007916D01*
X038120Y007784D01*
X038170Y007663D01*
X038263Y007570D01*
X038384Y007520D01*
X038516Y007520D01*
X038637Y007570D01*
X038730Y007663D01*
X038780Y007784D01*
X038780Y007916D01*
X038730Y008037D01*
X038637Y008130D01*
X038516Y008180D01*
X038384Y008180D01*
X038377Y008177D01*
X037830Y008725D01*
X037830Y008834D01*
X037964Y008700D01*
X038100Y008700D01*
X038100Y009100D01*
X038200Y009100D01*
X038200Y009200D01*
X038100Y009200D01*
X038100Y009600D01*
X037964Y009600D01*
X037830Y009466D01*
X037830Y009725D01*
X037580Y009975D01*
X037580Y010328D01*
X037328Y010580D01*
X036972Y010580D01*
X036720Y010328D01*
X036720Y009972D01*
X036720Y010008D02*
X036474Y010008D01*
X036548Y010106D02*
X036720Y010106D01*
X036720Y010205D02*
X036580Y010205D01*
X036580Y010303D02*
X036720Y010303D01*
X036793Y010402D02*
X036544Y010402D01*
X036467Y010500D02*
X036892Y010500D01*
X036896Y010796D02*
X036550Y010796D01*
X036649Y010894D02*
X036798Y010894D01*
X036452Y010697D02*
X039570Y010697D01*
X039570Y010599D02*
X036353Y010599D01*
X036250Y010250D02*
X036250Y009050D01*
X037450Y007850D01*
X037576Y007545D02*
X038324Y007545D01*
X038190Y007644D02*
X037710Y007644D01*
X037762Y007742D02*
X038138Y007742D01*
X038120Y007841D02*
X037780Y007841D01*
X037770Y007939D02*
X038106Y007939D01*
X038008Y008038D02*
X037729Y008038D01*
X037622Y008136D02*
X037909Y008136D01*
X037811Y008235D02*
X037320Y008235D01*
X037222Y008333D02*
X037712Y008333D01*
X037614Y008432D02*
X037123Y008432D01*
X037025Y008530D02*
X037515Y008530D01*
X037470Y008629D02*
X036926Y008629D01*
X036965Y008727D02*
X036828Y008727D01*
X036866Y008826D02*
X036729Y008826D01*
X036768Y008924D02*
X036631Y008924D01*
X036720Y009023D02*
X036532Y009023D01*
X036434Y009121D02*
X036720Y009121D01*
X036720Y009220D02*
X036430Y009220D01*
X036430Y009318D02*
X036720Y009318D01*
X036808Y009417D02*
X036430Y009417D01*
X036430Y009515D02*
X036907Y009515D01*
X037333Y009712D02*
X036430Y009712D01*
X036430Y009614D02*
X037432Y009614D01*
X037393Y009515D02*
X037470Y009515D01*
X037650Y009650D02*
X037150Y010150D01*
X037580Y010106D02*
X037720Y010106D01*
X037720Y010008D02*
X037580Y010008D01*
X037646Y009909D02*
X037783Y009909D01*
X037744Y009811D02*
X037881Y009811D01*
X037830Y009712D02*
X038333Y009712D01*
X038336Y009600D02*
X038200Y009600D01*
X038200Y009200D01*
X038600Y009200D01*
X038600Y009336D01*
X038336Y009600D01*
X038432Y009614D02*
X037830Y009614D01*
X037830Y009515D02*
X037879Y009515D01*
X038100Y009515D02*
X038200Y009515D01*
X038200Y009417D02*
X038100Y009417D01*
X038100Y009318D02*
X038200Y009318D01*
X038200Y009220D02*
X038100Y009220D01*
X038200Y009121D02*
X038924Y009121D01*
X038826Y009220D02*
X038600Y009220D01*
X038600Y009318D02*
X038727Y009318D01*
X038629Y009417D02*
X038520Y009417D01*
X038530Y009515D02*
X038421Y009515D01*
X038600Y009100D02*
X038200Y009100D01*
X038200Y008700D01*
X038336Y008700D01*
X038600Y008964D01*
X038600Y009100D01*
X038600Y009023D02*
X039023Y009023D01*
X039070Y008924D02*
X038560Y008924D01*
X038462Y008826D02*
X039070Y008826D01*
X039070Y008727D02*
X038363Y008727D01*
X038200Y008727D02*
X038100Y008727D01*
X038100Y008826D02*
X038200Y008826D01*
X038200Y008924D02*
X038100Y008924D01*
X038100Y009023D02*
X038200Y009023D01*
X037937Y008727D02*
X037830Y008727D01*
X037830Y008826D02*
X037838Y008826D01*
X037926Y008629D02*
X039062Y008629D01*
X038967Y008530D02*
X038025Y008530D01*
X038123Y008432D02*
X038927Y008432D01*
X038920Y008333D02*
X038222Y008333D01*
X038320Y008235D02*
X038941Y008235D01*
X038997Y008136D02*
X038622Y008136D01*
X038729Y008038D02*
X039142Y008038D01*
X039358Y008038D02*
X039570Y008038D01*
X039570Y008136D02*
X039503Y008136D01*
X039559Y008235D02*
X039570Y008235D01*
X039570Y007939D02*
X038770Y007939D01*
X038780Y007841D02*
X039570Y007841D01*
X039570Y007742D02*
X038762Y007742D01*
X038710Y007644D02*
X039570Y007644D01*
X039570Y007545D02*
X038576Y007545D01*
X038450Y007850D02*
X037650Y008650D01*
X037650Y009650D01*
X037580Y010205D02*
X037720Y010205D01*
X037720Y010303D02*
X037580Y010303D01*
X037507Y010402D02*
X037793Y010402D01*
X037892Y010500D02*
X037408Y010500D01*
X037404Y010796D02*
X037896Y010796D01*
X037798Y010894D02*
X037502Y010894D01*
X037580Y010993D02*
X037720Y010993D01*
X037720Y011091D02*
X037580Y011091D01*
X038404Y010796D02*
X039570Y010796D01*
X039570Y010894D02*
X038502Y010894D01*
X038580Y010993D02*
X039570Y010993D01*
X039570Y011091D02*
X038580Y011091D01*
X038408Y010500D02*
X039570Y010500D01*
X039570Y010402D02*
X038507Y010402D01*
X038580Y010303D02*
X039570Y010303D01*
X039570Y010205D02*
X038580Y010205D01*
X038580Y010106D02*
X039570Y010106D01*
X039570Y010008D02*
X038580Y010008D01*
X038646Y009909D02*
X039570Y009909D01*
X039570Y009811D02*
X038744Y009811D01*
X038843Y009712D02*
X039570Y009712D01*
X039570Y009614D02*
X038941Y009614D01*
X039040Y009515D02*
X039570Y009515D01*
X039570Y009417D02*
X039138Y009417D01*
X039237Y009318D02*
X039570Y009318D01*
X039570Y009220D02*
X039335Y009220D01*
X039430Y009121D02*
X039570Y009121D01*
X039570Y009023D02*
X039430Y009023D01*
X039430Y008924D02*
X039570Y008924D01*
X039570Y008826D02*
X039430Y008826D01*
X039430Y008727D02*
X039570Y008727D01*
X039570Y008629D02*
X039438Y008629D01*
X039533Y008530D02*
X039570Y008530D01*
X039250Y008350D02*
X039250Y009050D01*
X038150Y010150D01*
X036881Y009811D02*
X036430Y009811D01*
X037434Y008826D02*
X037470Y008826D01*
X037470Y008727D02*
X037335Y008727D01*
X037008Y008038D02*
X034092Y008038D01*
X033994Y007939D02*
X037106Y007939D01*
X037120Y007841D02*
X033895Y007841D01*
X033797Y007742D02*
X037138Y007742D01*
X037190Y007644D02*
X033780Y007644D01*
X033764Y007545D02*
X037324Y007545D01*
X039570Y007447D02*
X033713Y007447D01*
X033707Y007348D02*
X039570Y007348D01*
X039570Y007250D02*
X033805Y007250D01*
X033904Y007151D02*
X039570Y007151D01*
X039570Y007053D02*
X034002Y007053D01*
X034101Y006954D02*
X039570Y006954D01*
X039570Y006856D02*
X034199Y006856D01*
X034298Y006757D02*
X039570Y006757D01*
X039570Y006659D02*
X034396Y006659D01*
X034495Y006560D02*
X039570Y006560D01*
X039570Y006462D02*
X034593Y006462D01*
X034692Y006363D02*
X039570Y006363D01*
X039570Y006265D02*
X034790Y006265D01*
X034889Y006166D02*
X039570Y006166D01*
X039570Y006068D02*
X034987Y006068D01*
X035086Y005969D02*
X039570Y005969D01*
X039570Y005871D02*
X035184Y005871D01*
X035283Y005772D02*
X039570Y005772D01*
X039570Y005674D02*
X035381Y005674D01*
X035480Y005575D02*
X039570Y005575D01*
X039570Y005477D02*
X035578Y005477D01*
X035677Y005378D02*
X039570Y005378D01*
X039570Y005280D02*
X035775Y005280D01*
X035874Y005181D02*
X039570Y005181D01*
X039570Y005083D02*
X035972Y005083D01*
X036071Y004984D02*
X039570Y004984D01*
X039570Y004886D02*
X036169Y004886D01*
X036268Y004787D02*
X039570Y004787D01*
X039570Y004689D02*
X036366Y004689D01*
X036054Y004492D02*
X029717Y004492D01*
X029815Y004393D02*
X036120Y004393D01*
X036120Y004295D02*
X029856Y004295D01*
X029880Y004196D02*
X036157Y004196D01*
X035955Y004590D02*
X027345Y004590D01*
X027246Y004492D02*
X028583Y004492D01*
X028485Y004393D02*
X027148Y004393D01*
X027049Y004295D02*
X028444Y004295D01*
X028420Y004196D02*
X026951Y004196D01*
X026852Y004098D02*
X028420Y004098D01*
X028447Y003999D02*
X026754Y003999D01*
X026650Y004150D02*
X025150Y004150D01*
X025589Y003802D02*
X028590Y003802D01*
X028491Y003901D02*
X025712Y003901D01*
X025568Y003507D02*
X028575Y003507D01*
X028557Y003493D02*
X028614Y003535D01*
X028677Y003567D01*
X028745Y003589D01*
X028815Y003600D01*
X029100Y003600D01*
X029100Y003200D01*
X029200Y003200D01*
X029200Y003600D01*
X029485Y003600D01*
X029555Y003589D01*
X029623Y003567D01*
X029686Y003535D01*
X029743Y003493D01*
X029793Y003443D01*
X029835Y003386D01*
X029867Y003323D01*
X029889Y003255D01*
X029898Y003200D01*
X029200Y003200D01*
X029200Y003100D01*
X029898Y003100D01*
X029889Y003045D01*
X029867Y002977D01*
X029835Y002914D01*
X029793Y002857D01*
X029743Y002807D01*
X029686Y002765D01*
X029623Y002733D01*
X029555Y002711D01*
X029485Y002700D01*
X029200Y002700D01*
X029200Y003100D01*
X029100Y003100D01*
X029100Y002700D01*
X028815Y002700D01*
X028745Y002711D01*
X028677Y002733D01*
X028614Y002765D01*
X028557Y002807D01*
X028507Y002857D01*
X028465Y002914D01*
X028433Y002977D01*
X028411Y003045D01*
X028402Y003100D01*
X029100Y003100D01*
X029100Y003200D01*
X028402Y003200D01*
X028411Y003255D01*
X028433Y003323D01*
X028465Y003386D01*
X028507Y003443D01*
X028557Y003493D01*
X028481Y003408D02*
X025704Y003408D01*
X025766Y003310D02*
X028429Y003310D01*
X028404Y003211D02*
X025800Y003211D01*
X025800Y003113D02*
X029100Y003113D01*
X029100Y003211D02*
X029200Y003211D01*
X029200Y003113D02*
X039570Y003113D01*
X039570Y003211D02*
X029896Y003211D01*
X029871Y003310D02*
X039570Y003310D01*
X039570Y003408D02*
X029819Y003408D01*
X029725Y003507D02*
X039570Y003507D01*
X039570Y003605D02*
X023750Y003605D01*
X023848Y003507D02*
X024732Y003507D01*
X024596Y003408D02*
X023947Y003408D01*
X024045Y003310D02*
X024534Y003310D01*
X024500Y003211D02*
X024144Y003211D01*
X024242Y003113D02*
X024500Y003113D01*
X024524Y003014D02*
X024341Y003014D01*
X024439Y002916D02*
X024573Y002916D01*
X024538Y002817D02*
X024675Y002817D01*
X024324Y002522D02*
X021650Y002522D01*
X021650Y002620D02*
X024225Y002620D01*
X024127Y002719D02*
X021650Y002719D01*
X021650Y002817D02*
X021675Y002817D01*
X021650Y002423D02*
X024422Y002423D01*
X024028Y002817D02*
X022625Y002817D01*
X022727Y002916D02*
X023930Y002916D01*
X023831Y003014D02*
X022776Y003014D01*
X022800Y003113D02*
X023733Y003113D01*
X023634Y003211D02*
X022800Y003211D01*
X022766Y003310D02*
X023536Y003310D01*
X023437Y003408D02*
X022704Y003408D01*
X022568Y003507D02*
X023339Y003507D01*
X023240Y003605D02*
X021650Y003605D01*
X021650Y003507D02*
X021732Y003507D01*
X021650Y003704D02*
X023142Y003704D01*
X023043Y003802D02*
X022589Y003802D01*
X022712Y003901D02*
X022970Y003901D01*
X022970Y003999D02*
X022770Y003999D01*
X022800Y004098D02*
X022970Y004098D01*
X022970Y004196D02*
X022800Y004196D01*
X022772Y004295D02*
X022970Y004295D01*
X022970Y004393D02*
X022719Y004393D01*
X022605Y004492D02*
X022970Y004492D01*
X022970Y004590D02*
X021650Y004590D01*
X021650Y004492D02*
X021695Y004492D01*
X021650Y004689D02*
X022970Y004689D01*
X022970Y004787D02*
X022553Y004787D01*
X022697Y004886D02*
X022970Y004886D01*
X022970Y004984D02*
X022763Y004984D01*
X022800Y005083D02*
X022970Y005083D01*
X022970Y005181D02*
X022800Y005181D01*
X022778Y005280D02*
X022970Y005280D01*
X022970Y005378D02*
X022734Y005378D01*
X022635Y005477D02*
X022970Y005477D01*
X022970Y005575D02*
X021650Y005575D01*
X021650Y005477D02*
X021665Y005477D01*
X021650Y005674D02*
X022970Y005674D01*
X022970Y005772D02*
X022517Y005772D01*
X022682Y005871D02*
X022970Y005871D01*
X022970Y005969D02*
X022757Y005969D01*
X022798Y006068D02*
X022970Y006068D01*
X022970Y006166D02*
X022800Y006166D01*
X022785Y006265D02*
X022970Y006265D01*
X022970Y006363D02*
X022744Y006363D01*
X022650Y006462D02*
X022970Y006462D01*
X022970Y006560D02*
X021650Y006560D01*
X021650Y006659D02*
X022970Y006659D01*
X022970Y006757D02*
X021650Y006757D01*
X022667Y006856D02*
X022970Y006856D01*
X022970Y006954D02*
X022751Y006954D01*
X022792Y007053D02*
X022970Y007053D01*
X022970Y007151D02*
X022800Y007151D01*
X022791Y007250D02*
X022970Y007250D01*
X022970Y007348D02*
X022750Y007348D01*
X022665Y007447D02*
X022970Y007447D01*
X022970Y007545D02*
X021650Y007545D01*
X021650Y007644D02*
X022970Y007644D01*
X022970Y007742D02*
X020650Y007742D01*
X020650Y007841D02*
X021648Y007841D01*
X021669Y007819D02*
X021812Y007760D01*
X022488Y007760D01*
X022631Y007819D01*
X022741Y007929D01*
X022800Y008072D01*
X022800Y008228D01*
X022741Y008371D01*
X022631Y008481D01*
X022488Y008540D01*
X022015Y008540D01*
X021806Y008748D01*
X021858Y008740D01*
X022120Y008740D01*
X022120Y009120D01*
X021480Y009120D01*
X021480Y009118D01*
X021488Y009066D01*
X021330Y009225D01*
X021330Y014225D01*
X020330Y015225D01*
X020225Y015330D01*
X012933Y015330D01*
X012930Y015337D01*
X012837Y015430D01*
X012716Y015480D01*
X012584Y015480D01*
X012463Y015430D01*
X012370Y015337D01*
X012320Y015216D01*
X012320Y015084D01*
X012370Y014963D01*
X012463Y014870D01*
X012584Y014820D01*
X012716Y014820D01*
X012837Y014870D01*
X012930Y014963D01*
X012933Y014970D01*
X020075Y014970D01*
X020970Y014075D01*
X020970Y009075D01*
X021075Y008970D01*
X021617Y008428D01*
X021559Y008371D01*
X021500Y008228D01*
X021500Y008072D01*
X021559Y007929D01*
X021669Y007819D01*
X021555Y007939D02*
X020650Y007939D01*
X020650Y008038D02*
X021514Y008038D01*
X021500Y008136D02*
X020650Y008136D01*
X020650Y008235D02*
X021503Y008235D01*
X021544Y008333D02*
X020650Y008333D01*
X020650Y008432D02*
X021614Y008432D01*
X021515Y008530D02*
X020650Y008530D01*
X020650Y008629D02*
X021417Y008629D01*
X021318Y008727D02*
X020650Y008727D01*
X020650Y008826D02*
X021220Y008826D01*
X021121Y008924D02*
X020650Y008924D01*
X020650Y009023D02*
X021023Y009023D01*
X020970Y009121D02*
X020650Y009121D01*
X020650Y009220D02*
X020970Y009220D01*
X020970Y009318D02*
X020650Y009318D01*
X020650Y009417D02*
X020970Y009417D01*
X020970Y009515D02*
X020650Y009515D01*
X020650Y009614D02*
X020970Y009614D01*
X020970Y009712D02*
X020650Y009712D01*
X020650Y009811D02*
X020970Y009811D01*
X020970Y009909D02*
X020650Y009909D01*
X020650Y010008D02*
X020970Y010008D01*
X020970Y010106D02*
X020650Y010106D01*
X020650Y010205D02*
X020970Y010205D01*
X020970Y010303D02*
X020650Y010303D01*
X020650Y010402D02*
X020970Y010402D01*
X020970Y010500D02*
X020650Y010500D01*
X020650Y010599D02*
X020970Y010599D01*
X020970Y010697D02*
X020650Y010697D01*
X020650Y010796D02*
X020970Y010796D01*
X020970Y010894D02*
X020650Y010894D01*
X020650Y010993D02*
X020970Y010993D01*
X020970Y011091D02*
X020650Y011091D01*
X020650Y011190D02*
X020970Y011190D01*
X020970Y011288D02*
X020650Y011288D01*
X020650Y011387D02*
X020970Y011387D01*
X020970Y011485D02*
X020650Y011485D01*
X020650Y011584D02*
X020970Y011584D01*
X020970Y011682D02*
X020650Y011682D01*
X020650Y011781D02*
X020970Y011781D01*
X020970Y011879D02*
X020650Y011879D01*
X020650Y011978D02*
X020970Y011978D01*
X020970Y012076D02*
X020650Y012076D01*
X020650Y012175D02*
X020970Y012175D01*
X020970Y012273D02*
X020650Y012273D01*
X020650Y012372D02*
X020970Y012372D01*
X020970Y012470D02*
X020650Y012470D01*
X020650Y012569D02*
X020970Y012569D01*
X020970Y012667D02*
X019330Y012667D01*
X019330Y012766D02*
X020970Y012766D01*
X020970Y012864D02*
X019330Y012864D01*
X019330Y012963D02*
X020970Y012963D01*
X020970Y013061D02*
X019330Y013061D01*
X019330Y013160D02*
X020970Y013160D01*
X020970Y013258D02*
X019330Y013258D01*
X019330Y013357D02*
X020970Y013357D01*
X020970Y013455D02*
X019330Y013455D01*
X019330Y013554D02*
X020970Y013554D01*
X020970Y013652D02*
X019330Y013652D01*
X019330Y013751D02*
X020970Y013751D01*
X020970Y013849D02*
X019330Y013849D01*
X019414Y013948D02*
X020970Y013948D01*
X020970Y014046D02*
X019464Y014046D01*
X019480Y014145D02*
X020901Y014145D01*
X020802Y014243D02*
X019469Y014243D01*
X019425Y014342D02*
X020704Y014342D01*
X020605Y014440D02*
X019312Y014440D01*
X018988Y014440D02*
X018312Y014440D01*
X018425Y014342D02*
X018875Y014342D01*
X018831Y014243D02*
X018469Y014243D01*
X018480Y014145D02*
X018820Y014145D01*
X018836Y014046D02*
X018464Y014046D01*
X018414Y013948D02*
X018886Y013948D01*
X018970Y013849D02*
X018330Y013849D01*
X018330Y013751D02*
X018970Y013751D01*
X018970Y013652D02*
X018330Y013652D01*
X018330Y013554D02*
X018970Y013554D01*
X018970Y013455D02*
X018330Y013455D01*
X018330Y013357D02*
X018970Y013357D01*
X018970Y013258D02*
X018330Y013258D01*
X018330Y013160D02*
X018970Y013160D01*
X018970Y013061D02*
X018330Y013061D01*
X018330Y012963D02*
X018970Y012963D01*
X018970Y012864D02*
X018330Y012864D01*
X018330Y012766D02*
X018970Y012766D01*
X018970Y012667D02*
X018330Y012667D01*
X017970Y012667D02*
X017330Y012667D01*
X017330Y012766D02*
X017970Y012766D01*
X017970Y012864D02*
X017330Y012864D01*
X017330Y012963D02*
X017970Y012963D01*
X017970Y013061D02*
X017330Y013061D01*
X017330Y013160D02*
X017970Y013160D01*
X017970Y013258D02*
X017330Y013258D01*
X017330Y013357D02*
X017970Y013357D01*
X017970Y013455D02*
X017330Y013455D01*
X017330Y013554D02*
X017970Y013554D01*
X017970Y013652D02*
X017330Y013652D01*
X017330Y013751D02*
X017970Y013751D01*
X017970Y013849D02*
X017330Y013849D01*
X017414Y013948D02*
X017886Y013948D01*
X017836Y014046D02*
X017464Y014046D01*
X017480Y014145D02*
X017820Y014145D01*
X017831Y014243D02*
X017469Y014243D01*
X017425Y014342D02*
X017875Y014342D01*
X017988Y014440D02*
X017312Y014440D01*
X016988Y014440D02*
X009796Y014440D01*
X009793Y014443D02*
X009743Y014493D01*
X009686Y014535D01*
X009623Y014567D01*
X009555Y014589D01*
X009485Y014600D01*
X009200Y014600D01*
X009200Y014200D01*
X009100Y014200D01*
X009100Y014600D01*
X008815Y014600D01*
X008745Y014589D01*
X008677Y014567D01*
X008614Y014535D01*
X008557Y014493D01*
X008507Y014443D01*
X008465Y014386D01*
X008433Y014323D01*
X008411Y014255D01*
X008402Y014200D01*
X009100Y014200D01*
X009100Y014100D01*
X009200Y014100D01*
X009200Y014200D01*
X009898Y014200D01*
X009889Y014255D01*
X009867Y014323D01*
X009835Y014386D01*
X009793Y014443D01*
X009857Y014342D02*
X016875Y014342D01*
X016831Y014243D02*
X009891Y014243D01*
X009898Y014100D02*
X009200Y014100D01*
X009200Y013700D01*
X009485Y013700D01*
X009555Y013711D01*
X009623Y013733D01*
X009686Y013765D01*
X009743Y013807D01*
X009793Y013857D01*
X009835Y013914D01*
X009867Y013977D01*
X009889Y014045D01*
X009898Y014100D01*
X009889Y014046D02*
X016836Y014046D01*
X016820Y014145D02*
X009200Y014145D01*
X009200Y014243D02*
X009100Y014243D01*
X009100Y014145D02*
X001100Y014145D01*
X001100Y014243D02*
X008409Y014243D01*
X008443Y014342D02*
X001100Y014342D01*
X001100Y014440D02*
X008504Y014440D01*
X008621Y014539D02*
X001100Y014539D01*
X001100Y014637D02*
X020408Y014637D01*
X020310Y014736D02*
X009573Y014736D01*
X009536Y014720D02*
X009694Y014785D01*
X009815Y014906D01*
X009880Y015064D01*
X009880Y015236D01*
X009815Y015394D01*
X009694Y015515D01*
X009536Y015580D01*
X008764Y015580D01*
X008606Y015515D01*
X008485Y015394D01*
X008420Y015236D01*
X008420Y015064D01*
X008485Y014906D01*
X008606Y014785D01*
X008764Y014720D01*
X009536Y014720D01*
X009679Y014539D02*
X020507Y014539D01*
X020721Y014834D02*
X021654Y014834D01*
X021669Y014819D02*
X021812Y014760D01*
X022488Y014760D01*
X022631Y014819D01*
X022741Y014929D01*
X022800Y015072D01*
X022800Y015228D01*
X022970Y015228D01*
X022970Y015130D02*
X022800Y015130D01*
X022800Y015228D02*
X022741Y015371D01*
X022631Y015481D01*
X022488Y015540D01*
X021812Y015540D01*
X021669Y015481D01*
X021559Y015371D01*
X021500Y015228D01*
X020327Y015228D01*
X020425Y015130D02*
X021500Y015130D01*
X021500Y015072D02*
X021559Y014929D01*
X021669Y014819D01*
X021558Y014933D02*
X020622Y014933D01*
X020524Y015031D02*
X021517Y015031D01*
X021500Y015072D02*
X021500Y015228D01*
X021541Y015327D02*
X020228Y015327D01*
X020150Y015150D02*
X012650Y015150D01*
X012342Y015031D02*
X009866Y015031D01*
X009880Y015130D02*
X012320Y015130D01*
X012325Y015228D02*
X009880Y015228D01*
X009842Y015327D02*
X012366Y015327D01*
X012458Y015425D02*
X009783Y015425D01*
X009672Y015524D02*
X021773Y015524D01*
X021613Y015425D02*
X012842Y015425D01*
X012899Y014933D02*
X020113Y014933D01*
X020211Y014834D02*
X012750Y014834D01*
X012550Y014834D02*
X009742Y014834D01*
X009825Y014933D02*
X012401Y014933D01*
X009852Y013948D02*
X016886Y013948D01*
X016970Y013849D02*
X009785Y013849D01*
X009657Y013751D02*
X016970Y013751D01*
X016970Y013652D02*
X001100Y013652D01*
X001100Y013554D02*
X008701Y013554D01*
X008764Y013580D02*
X008606Y013515D01*
X008485Y013394D01*
X008420Y013236D01*
X008420Y013064D01*
X008485Y012906D01*
X008606Y012785D01*
X008764Y012720D01*
X009536Y012720D01*
X009694Y012785D01*
X009815Y012906D01*
X009880Y013064D01*
X009880Y013236D01*
X009815Y013394D01*
X009694Y013515D01*
X009536Y013580D01*
X008764Y013580D01*
X008815Y013700D02*
X009100Y013700D01*
X009100Y014100D01*
X008402Y014100D01*
X008411Y014045D01*
X008433Y013977D01*
X008465Y013914D01*
X008507Y013857D01*
X008557Y013807D01*
X008614Y013765D01*
X008677Y013733D01*
X008745Y013711D01*
X008815Y013700D01*
X008643Y013751D02*
X001100Y013751D01*
X001100Y013849D02*
X008515Y013849D01*
X008448Y013948D02*
X001100Y013948D01*
X001100Y014046D02*
X008411Y014046D01*
X008547Y013455D02*
X001100Y013455D01*
X001100Y013357D02*
X008470Y013357D01*
X008429Y013258D02*
X001100Y013258D01*
X001100Y013160D02*
X008420Y013160D01*
X008421Y013061D02*
X001100Y013061D01*
X001100Y012963D02*
X008462Y012963D01*
X008528Y012864D02*
X001100Y012864D01*
X001100Y012766D02*
X008655Y012766D01*
X008737Y012569D02*
X001100Y012569D01*
X001100Y012667D02*
X016970Y012667D01*
X016970Y012766D02*
X009645Y012766D01*
X009772Y012864D02*
X016970Y012864D01*
X016970Y012963D02*
X009838Y012963D01*
X009879Y013061D02*
X016970Y013061D01*
X016970Y013160D02*
X009880Y013160D01*
X009871Y013258D02*
X016970Y013258D01*
X016970Y013357D02*
X009830Y013357D01*
X009753Y013455D02*
X016970Y013455D01*
X016970Y013554D02*
X009599Y013554D01*
X009200Y013751D02*
X009100Y013751D01*
X009100Y013849D02*
X009200Y013849D01*
X009200Y013948D02*
X009100Y013948D01*
X009100Y014046D02*
X009200Y014046D01*
X009200Y014342D02*
X009100Y014342D01*
X009100Y014440D02*
X009200Y014440D01*
X009200Y014539D02*
X009100Y014539D01*
X008727Y014736D02*
X001100Y014736D01*
X001100Y014834D02*
X008558Y014834D01*
X008475Y014933D02*
X001100Y014933D01*
X001100Y015031D02*
X008434Y015031D01*
X008420Y015130D02*
X001100Y015130D01*
X001100Y015228D02*
X008420Y015228D01*
X008458Y015327D02*
X001100Y015327D01*
X001100Y015425D02*
X008517Y015425D01*
X008628Y015524D02*
X001100Y015524D01*
X001100Y015622D02*
X022623Y015622D01*
X022527Y015524D02*
X022722Y015524D01*
X022687Y015425D02*
X022820Y015425D01*
X022759Y015327D02*
X022919Y015327D01*
X022970Y015031D02*
X022783Y015031D01*
X022742Y014933D02*
X022970Y014933D01*
X022970Y014834D02*
X022646Y014834D01*
X022491Y014539D02*
X022970Y014539D01*
X022970Y014637D02*
X020918Y014637D01*
X021016Y014539D02*
X021809Y014539D01*
X021812Y014540D02*
X021669Y014481D01*
X021559Y014371D01*
X021500Y014228D01*
X021500Y014072D01*
X021559Y013929D01*
X021669Y013819D01*
X021812Y013760D01*
X022488Y013760D01*
X022631Y013819D01*
X022741Y013929D01*
X022800Y014072D01*
X022800Y014228D01*
X022741Y014371D01*
X022631Y014481D01*
X022488Y014540D01*
X021812Y014540D01*
X021628Y014440D02*
X021115Y014440D01*
X021213Y014342D02*
X021547Y014342D01*
X021506Y014243D02*
X021312Y014243D01*
X021330Y014145D02*
X021500Y014145D01*
X021511Y014046D02*
X021330Y014046D01*
X021330Y013948D02*
X021552Y013948D01*
X021639Y013849D02*
X021330Y013849D01*
X021330Y013751D02*
X022970Y013751D01*
X022970Y013849D02*
X022661Y013849D01*
X022748Y013948D02*
X022970Y013948D01*
X022970Y014046D02*
X022789Y014046D01*
X022800Y014145D02*
X022970Y014145D01*
X022970Y014243D02*
X022794Y014243D01*
X022753Y014342D02*
X022970Y014342D01*
X022970Y014440D02*
X022672Y014440D01*
X022970Y014736D02*
X020819Y014736D01*
X021150Y014150D02*
X020150Y015150D01*
X019150Y014150D02*
X019150Y012150D01*
X018150Y012150D02*
X018150Y014150D01*
X017150Y014150D02*
X017150Y012150D01*
X016150Y012150D02*
X016150Y013150D01*
X021150Y014150D02*
X021150Y009150D01*
X022150Y008150D01*
X022652Y007841D02*
X022970Y007841D01*
X022970Y007939D02*
X022745Y007939D01*
X022786Y008038D02*
X022970Y008038D01*
X022970Y008136D02*
X022800Y008136D01*
X022797Y008235D02*
X022970Y008235D01*
X022970Y008333D02*
X022756Y008333D01*
X022680Y008432D02*
X022970Y008432D01*
X022970Y008530D02*
X022512Y008530D01*
X022506Y008750D02*
X022567Y008770D01*
X022625Y008799D01*
X022677Y008837D01*
X022723Y008883D01*
X022761Y008935D01*
X022790Y008993D01*
X022810Y009054D01*
X022820Y009118D01*
X022820Y009120D01*
X022180Y009120D01*
X022180Y009180D01*
X022120Y009180D01*
X022120Y009560D01*
X021858Y009560D01*
X021794Y009550D01*
X021733Y009530D01*
X021675Y009501D01*
X021623Y009463D01*
X021577Y009417D01*
X021539Y009365D01*
X021510Y009307D01*
X021490Y009246D01*
X021480Y009182D01*
X021480Y009180D01*
X022120Y009180D01*
X022120Y009120D01*
X022180Y009120D01*
X022180Y008740D01*
X022442Y008740D01*
X022506Y008750D01*
X022661Y008826D02*
X022970Y008826D01*
X022970Y008924D02*
X022753Y008924D01*
X022800Y009023D02*
X022970Y009023D01*
X022970Y009121D02*
X022180Y009121D01*
X022180Y009180D02*
X022820Y009180D01*
X022820Y009182D01*
X022810Y009246D01*
X022790Y009307D01*
X022761Y009365D01*
X022723Y009417D01*
X022677Y009463D01*
X022625Y009501D01*
X022567Y009530D01*
X022506Y009550D01*
X022442Y009560D01*
X022180Y009560D01*
X022180Y009180D01*
X022180Y009220D02*
X022120Y009220D01*
X022120Y009318D02*
X022180Y009318D01*
X022180Y009417D02*
X022120Y009417D01*
X022120Y009515D02*
X022180Y009515D01*
X022488Y009760D02*
X021812Y009760D01*
X021669Y009819D01*
X021559Y009929D01*
X021500Y010072D01*
X021500Y010228D01*
X021559Y010371D01*
X021669Y010481D01*
X021812Y010540D01*
X022488Y010540D01*
X022631Y010481D01*
X022741Y010371D01*
X022800Y010228D01*
X022800Y010072D01*
X022741Y009929D01*
X022631Y009819D01*
X022488Y009760D01*
X022610Y009811D02*
X022970Y009811D01*
X022970Y009909D02*
X022721Y009909D01*
X022773Y010008D02*
X022970Y010008D01*
X022970Y010106D02*
X022800Y010106D01*
X022800Y010205D02*
X022970Y010205D01*
X022970Y010303D02*
X022769Y010303D01*
X022710Y010402D02*
X022970Y010402D01*
X022970Y010500D02*
X022584Y010500D01*
X022488Y010760D02*
X022631Y010819D01*
X022741Y010929D01*
X022800Y011072D01*
X022800Y011228D01*
X022741Y011371D01*
X022631Y011481D01*
X022488Y011540D01*
X021812Y011540D01*
X021669Y011481D01*
X021559Y011371D01*
X021500Y011228D01*
X021500Y011072D01*
X021559Y010929D01*
X021669Y010819D01*
X021812Y010760D01*
X022488Y010760D01*
X022573Y010796D02*
X022970Y010796D01*
X022970Y010894D02*
X022706Y010894D01*
X022767Y010993D02*
X022970Y010993D01*
X022970Y011091D02*
X022800Y011091D01*
X022800Y011190D02*
X022970Y011190D01*
X022970Y011288D02*
X022775Y011288D01*
X022725Y011387D02*
X022970Y011387D01*
X022970Y011485D02*
X022620Y011485D01*
X022488Y011760D02*
X022631Y011819D01*
X022741Y011929D01*
X022800Y012072D01*
X022800Y012228D01*
X022741Y012371D01*
X022631Y012481D01*
X022488Y012540D01*
X021812Y012540D01*
X021669Y012481D01*
X021559Y012371D01*
X021500Y012228D01*
X021500Y012072D01*
X021559Y011929D01*
X021669Y011819D01*
X021812Y011760D01*
X022488Y011760D01*
X022537Y011781D02*
X022970Y011781D01*
X022970Y011879D02*
X022691Y011879D01*
X022761Y011978D02*
X022970Y011978D01*
X022970Y012076D02*
X022800Y012076D01*
X022800Y012175D02*
X022970Y012175D01*
X022970Y012273D02*
X022781Y012273D01*
X022740Y012372D02*
X022970Y012372D01*
X022970Y012470D02*
X022642Y012470D01*
X022501Y012766D02*
X022970Y012766D01*
X022970Y012864D02*
X022676Y012864D01*
X022631Y012819D02*
X022741Y012929D01*
X022800Y013072D01*
X022800Y013228D01*
X022741Y013371D01*
X022631Y013481D01*
X022488Y013540D01*
X021812Y013540D01*
X021669Y013481D01*
X021559Y013371D01*
X021500Y013228D01*
X021500Y013072D01*
X021559Y012929D01*
X021669Y012819D01*
X021812Y012760D01*
X022488Y012760D01*
X022631Y012819D01*
X022754Y012963D02*
X022970Y012963D01*
X022970Y013061D02*
X022795Y013061D01*
X022800Y013160D02*
X022970Y013160D01*
X022970Y013258D02*
X022787Y013258D01*
X022747Y013357D02*
X022970Y013357D01*
X022970Y013455D02*
X022657Y013455D01*
X022970Y013554D02*
X021330Y013554D01*
X021330Y013652D02*
X022970Y013652D01*
X023330Y013652D02*
X026793Y013652D01*
X026695Y013751D02*
X023330Y013751D01*
X023330Y013849D02*
X024639Y013849D01*
X024669Y013819D02*
X024812Y013760D01*
X025488Y013760D01*
X025631Y013819D01*
X025741Y013929D01*
X025800Y014072D01*
X025800Y014228D01*
X025741Y014371D01*
X025631Y014481D01*
X025488Y014540D01*
X024812Y014540D01*
X024669Y014481D01*
X024559Y014371D01*
X024500Y014228D01*
X024500Y014072D01*
X024559Y013929D01*
X024669Y013819D01*
X024552Y013948D02*
X023330Y013948D01*
X023330Y014046D02*
X024511Y014046D01*
X024500Y014145D02*
X023330Y014145D01*
X023330Y014243D02*
X024506Y014243D01*
X024547Y014342D02*
X023330Y014342D01*
X023330Y014440D02*
X024628Y014440D01*
X024809Y014539D02*
X023330Y014539D01*
X023330Y014637D02*
X025808Y014637D01*
X025710Y014736D02*
X023330Y014736D01*
X023330Y014834D02*
X024654Y014834D01*
X024558Y014933D02*
X023330Y014933D01*
X023330Y015031D02*
X024517Y015031D01*
X024500Y015072D02*
X024500Y015228D01*
X024541Y015327D02*
X023330Y015327D01*
X023330Y015425D02*
X024613Y015425D01*
X024773Y015524D02*
X023231Y015524D01*
X023133Y015622D02*
X025623Y015622D01*
X025527Y015524D02*
X025722Y015524D01*
X025687Y015425D02*
X025820Y015425D01*
X025741Y015371D02*
X025800Y015228D01*
X025825Y015130D02*
X026116Y015130D01*
X026214Y015031D02*
X025924Y015031D01*
X026022Y014933D02*
X026313Y014933D01*
X026411Y014834D02*
X026121Y014834D01*
X026219Y014736D02*
X026510Y014736D01*
X026608Y014637D02*
X026318Y014637D01*
X026416Y014539D02*
X026707Y014539D01*
X026805Y014440D02*
X026515Y014440D01*
X026613Y014342D02*
X026904Y014342D01*
X027002Y014243D02*
X026712Y014243D01*
X026810Y014145D02*
X027101Y014145D01*
X027199Y014046D02*
X026909Y014046D01*
X027007Y013948D02*
X027298Y013948D01*
X027396Y013849D02*
X027106Y013849D01*
X027204Y013751D02*
X027495Y013751D01*
X027593Y013652D02*
X027303Y013652D01*
X027401Y013554D02*
X027692Y013554D01*
X027790Y013455D02*
X027500Y013455D01*
X027598Y013357D02*
X027889Y013357D01*
X027987Y013258D02*
X027697Y013258D01*
X027795Y013160D02*
X028086Y013160D01*
X028184Y013061D02*
X027894Y013061D01*
X027992Y012963D02*
X028283Y012963D01*
X028381Y012864D02*
X028091Y012864D01*
X028189Y012766D02*
X028480Y012766D01*
X028578Y012667D02*
X028288Y012667D01*
X028386Y012569D02*
X028677Y012569D01*
X028775Y012470D02*
X028485Y012470D01*
X028583Y012372D02*
X028874Y012372D01*
X028972Y012273D02*
X028682Y012273D01*
X028780Y012175D02*
X029071Y012175D01*
X029169Y012076D02*
X028879Y012076D01*
X028977Y011978D02*
X029268Y011978D01*
X029366Y011879D02*
X029076Y011879D01*
X029174Y011781D02*
X029465Y011781D01*
X029563Y011682D02*
X029273Y011682D01*
X029371Y011584D02*
X029662Y011584D01*
X029760Y011485D02*
X029470Y011485D01*
X029568Y011387D02*
X029859Y011387D01*
X029957Y011288D02*
X029667Y011288D01*
X029765Y011190D02*
X030056Y011190D01*
X030154Y011091D02*
X029864Y011091D01*
X029962Y010993D02*
X030253Y010993D01*
X030351Y010894D02*
X030061Y010894D01*
X030159Y010796D02*
X030450Y010796D01*
X030548Y010697D02*
X030258Y010697D01*
X030356Y010599D02*
X030647Y010599D01*
X030745Y010500D02*
X030455Y010500D01*
X030553Y010402D02*
X030844Y010402D01*
X030942Y010303D02*
X030652Y010303D01*
X030750Y010205D02*
X031041Y010205D01*
X031139Y010106D02*
X030849Y010106D01*
X030947Y010008D02*
X031238Y010008D01*
X031336Y009909D02*
X031046Y009909D01*
X031144Y009811D02*
X031435Y009811D01*
X031533Y009712D02*
X031243Y009712D01*
X031341Y009614D02*
X031632Y009614D01*
X031730Y009515D02*
X031440Y009515D01*
X031538Y009417D02*
X031829Y009417D01*
X031927Y009318D02*
X031637Y009318D01*
X031947Y009220D02*
X031970Y009220D01*
X031750Y008950D02*
X025550Y015150D01*
X025150Y015150D01*
X025525Y015721D02*
X023034Y015721D01*
X022936Y015819D02*
X024670Y015819D01*
X024571Y015918D02*
X022837Y015918D01*
X022777Y016016D02*
X024523Y016016D01*
X024500Y016115D02*
X022800Y016115D01*
X022800Y016213D02*
X024500Y016213D01*
X024535Y016312D02*
X022765Y016312D01*
X022702Y016410D02*
X024598Y016410D01*
X024736Y016509D02*
X022564Y016509D01*
X024454Y017837D02*
X024507Y017784D01*
X024568Y017739D01*
X024636Y017705D01*
X024708Y017682D01*
X024782Y017670D01*
X025100Y017670D01*
X025100Y018100D01*
X025200Y018100D01*
X025200Y018200D01*
X025100Y018200D01*
X025100Y018630D01*
X024782Y018630D01*
X024708Y018618D01*
X024636Y018595D01*
X024568Y018561D01*
X024507Y018516D01*
X024454Y018463D01*
X024409Y018402D01*
X024375Y018334D01*
X024352Y018262D01*
X024342Y018200D01*
X025100Y018200D01*
X025100Y018100D01*
X024342Y018100D01*
X024352Y018038D01*
X024375Y017966D01*
X024409Y017898D01*
X024454Y017837D01*
X024417Y017888D02*
X005168Y017888D01*
X005224Y017789D02*
X024502Y017789D01*
X024681Y017691D02*
X005281Y017691D01*
X005326Y017592D02*
X039570Y017592D01*
X039570Y017494D02*
X005352Y017494D01*
X005378Y017395D02*
X039570Y017395D01*
X039570Y017297D02*
X005400Y017297D01*
X005400Y017198D02*
X039570Y017198D01*
X039570Y017100D02*
X005400Y017100D01*
X005400Y017001D02*
X039570Y017001D01*
X039570Y016903D02*
X005378Y016903D01*
X005351Y016804D02*
X039570Y016804D01*
X039570Y016706D02*
X005325Y016706D01*
X003920Y015918D02*
X001100Y015918D01*
X001100Y016016D02*
X003614Y016016D01*
X003443Y016115D02*
X001100Y016115D01*
X001100Y016213D02*
X003319Y016213D01*
X003221Y016312D02*
X001100Y016312D01*
X001100Y016410D02*
X003134Y016410D01*
X003077Y016509D02*
X001100Y016509D01*
X001100Y016607D02*
X003020Y016607D01*
X002975Y016706D02*
X001100Y016706D01*
X001100Y016804D02*
X002949Y016804D01*
X002922Y016903D02*
X001100Y016903D01*
X001100Y017001D02*
X002900Y017001D01*
X002900Y017100D02*
X001100Y017100D01*
X001100Y017198D02*
X002900Y017198D01*
X002900Y017297D02*
X001100Y017297D01*
X001100Y017395D02*
X002922Y017395D01*
X002948Y017494D02*
X001100Y017494D01*
X001100Y017592D02*
X002974Y017592D01*
X003019Y017691D02*
X001100Y017691D01*
X001100Y017789D02*
X003076Y017789D01*
X003132Y017888D02*
X001100Y017888D01*
X001100Y017986D02*
X003218Y017986D01*
X003317Y018085D02*
X001100Y018085D01*
X001100Y018183D02*
X003439Y018183D01*
X003610Y018282D02*
X001100Y018282D01*
X001100Y018380D02*
X003911Y018380D01*
X004389Y018380D02*
X024398Y018380D01*
X024358Y018282D02*
X004690Y018282D01*
X004861Y018183D02*
X025100Y018183D01*
X025100Y018085D02*
X025200Y018085D01*
X025200Y018100D02*
X025200Y017670D01*
X025518Y017670D01*
X025592Y017682D01*
X025664Y017705D01*
X025732Y017739D01*
X025793Y017784D01*
X025846Y017837D01*
X025891Y017898D01*
X025925Y017966D01*
X025948Y018038D01*
X025958Y018100D01*
X025200Y018100D01*
X025200Y018183D02*
X030525Y018183D01*
X030625Y018125D02*
X030375Y018270D01*
X030170Y018475D01*
X030025Y018725D01*
X029950Y019005D01*
X029950Y019295D01*
X030025Y019575D01*
X030170Y019825D01*
X030375Y020030D01*
X030625Y020175D01*
X030905Y020250D01*
X031195Y020250D01*
X031475Y020175D01*
X031725Y020030D01*
X031930Y019825D01*
X032075Y019575D01*
X032150Y019295D01*
X032150Y019005D01*
X032075Y018725D01*
X031930Y018475D01*
X031725Y018270D01*
X031475Y018125D01*
X031195Y018050D01*
X030905Y018050D01*
X030625Y018125D01*
X030776Y018085D02*
X025956Y018085D01*
X025931Y017986D02*
X039570Y017986D01*
X039570Y017888D02*
X025883Y017888D01*
X025798Y017789D02*
X039570Y017789D01*
X039570Y017691D02*
X025619Y017691D01*
X025200Y017691D02*
X025100Y017691D01*
X025100Y017789D02*
X025200Y017789D01*
X025200Y017888D02*
X025100Y017888D01*
X025100Y017986D02*
X025200Y017986D01*
X025200Y018200D02*
X025958Y018200D01*
X025948Y018262D01*
X025925Y018334D01*
X025891Y018402D01*
X025846Y018463D01*
X025793Y018516D01*
X025732Y018561D01*
X025664Y018595D01*
X025592Y018618D01*
X025518Y018630D01*
X025200Y018630D01*
X025200Y018200D01*
X025200Y018282D02*
X025100Y018282D01*
X025100Y018380D02*
X025200Y018380D01*
X025200Y018479D02*
X025100Y018479D01*
X025100Y018577D02*
X025200Y018577D01*
X025571Y018690D02*
X024728Y018690D01*
X024559Y018760D01*
X024430Y018889D01*
X024409Y018940D01*
X016563Y018940D01*
X015063Y020440D01*
X008907Y020440D01*
X008837Y020370D01*
X008716Y020320D01*
X008584Y020320D01*
X008463Y020370D01*
X008370Y020463D01*
X008320Y020584D01*
X008320Y020716D01*
X008370Y020837D01*
X008463Y020930D01*
X008584Y020980D01*
X008716Y020980D01*
X008837Y020930D01*
X008907Y020860D01*
X015237Y020860D01*
X015360Y020737D01*
X016737Y019360D01*
X024409Y019360D01*
X024430Y019411D01*
X024559Y019540D01*
X024728Y019610D01*
X025571Y019610D01*
X025741Y019540D01*
X025870Y019411D01*
X025940Y019241D01*
X025940Y019058D01*
X025870Y018889D01*
X025741Y018760D01*
X025571Y018690D01*
X025699Y018577D02*
X030111Y018577D01*
X030167Y018479D02*
X025830Y018479D01*
X025902Y018380D02*
X030264Y018380D01*
X030363Y018282D02*
X025942Y018282D01*
X025755Y018774D02*
X030012Y018774D01*
X029986Y018873D02*
X025853Y018873D01*
X025904Y018971D02*
X029959Y018971D01*
X029950Y019070D02*
X025940Y019070D01*
X025940Y019168D02*
X029950Y019168D01*
X029950Y019267D02*
X025930Y019267D01*
X025889Y019365D02*
X029969Y019365D01*
X029995Y019464D02*
X025817Y019464D01*
X025687Y019562D02*
X030022Y019562D01*
X030075Y019661D02*
X016436Y019661D01*
X016338Y019759D02*
X017100Y019759D01*
X017113Y019746D02*
X017274Y019679D01*
X017450Y019679D01*
X017611Y019746D01*
X017735Y019870D01*
X017802Y020031D01*
X017802Y020207D01*
X017735Y020368D01*
X017611Y020492D01*
X017450Y020559D01*
X017274Y020559D01*
X017113Y020492D01*
X016989Y020368D01*
X016922Y020207D01*
X016922Y020031D01*
X016989Y019870D01*
X017113Y019746D01*
X017001Y019858D02*
X016239Y019858D01*
X016141Y019956D02*
X016953Y019956D01*
X016922Y020055D02*
X016042Y020055D01*
X015944Y020153D02*
X016922Y020153D01*
X016941Y020252D02*
X015845Y020252D01*
X015747Y020350D02*
X016981Y020350D01*
X017069Y020449D02*
X015648Y020449D01*
X015550Y020547D02*
X017246Y020547D01*
X017171Y020659D02*
X016902Y020928D01*
X016902Y021089D01*
X017332Y021089D01*
X017392Y021089D01*
X017392Y021149D01*
X017822Y021149D01*
X017822Y021310D01*
X017553Y021579D01*
X017392Y021579D01*
X017392Y021149D01*
X017332Y021149D01*
X017332Y021579D01*
X017171Y021579D01*
X016902Y021310D01*
X016902Y021149D01*
X017332Y021149D01*
X017332Y021089D01*
X017332Y020659D01*
X017171Y020659D01*
X017086Y020744D02*
X015353Y020744D01*
X015451Y020646D02*
X039570Y020646D01*
X039570Y020744D02*
X017638Y020744D01*
X017553Y020659D02*
X017822Y020928D01*
X017822Y021089D01*
X017392Y021089D01*
X017392Y020659D01*
X017553Y020659D01*
X017478Y020547D02*
X024577Y020547D01*
X024559Y020540D02*
X024430Y020411D01*
X024360Y020241D01*
X024360Y020058D01*
X024430Y019889D01*
X024559Y019760D01*
X024728Y019690D01*
X025571Y019690D01*
X025741Y019760D01*
X025870Y019889D01*
X025940Y020058D01*
X025940Y020241D01*
X025870Y020411D01*
X025741Y020540D01*
X025571Y020610D01*
X024728Y020610D01*
X024559Y020540D01*
X024468Y020449D02*
X017655Y020449D01*
X017743Y020350D02*
X024405Y020350D01*
X024364Y020252D02*
X017783Y020252D01*
X017802Y020153D02*
X024360Y020153D01*
X024362Y020055D02*
X017802Y020055D01*
X017771Y019956D02*
X024402Y019956D01*
X024462Y019858D02*
X017723Y019858D01*
X017624Y019759D02*
X024562Y019759D01*
X024613Y019562D02*
X016535Y019562D01*
X016633Y019464D02*
X024483Y019464D01*
X024411Y019365D02*
X016732Y019365D01*
X016335Y019168D02*
X001100Y019168D01*
X001100Y019070D02*
X016433Y019070D01*
X016532Y018971D02*
X001100Y018971D01*
X001100Y018873D02*
X024447Y018873D01*
X024545Y018774D02*
X001100Y018774D01*
X001100Y018676D02*
X030054Y018676D01*
X031324Y018085D02*
X039570Y018085D01*
X039570Y018183D02*
X031575Y018183D01*
X031737Y018282D02*
X039570Y018282D01*
X039570Y018380D02*
X031836Y018380D01*
X031933Y018479D02*
X039570Y018479D01*
X039570Y018577D02*
X031989Y018577D01*
X032046Y018676D02*
X036146Y018676D01*
X036226Y018595D02*
X036686Y018595D01*
X037011Y018920D01*
X037011Y019380D01*
X036686Y019705D01*
X036226Y019705D01*
X035901Y019380D01*
X035901Y018920D01*
X036226Y018595D01*
X036047Y018774D02*
X032088Y018774D01*
X032114Y018873D02*
X035949Y018873D01*
X035901Y018971D02*
X032141Y018971D01*
X032150Y019070D02*
X035901Y019070D01*
X035901Y019168D02*
X032150Y019168D01*
X032150Y019267D02*
X035901Y019267D01*
X035901Y019365D02*
X032131Y019365D01*
X032105Y019464D02*
X035985Y019464D01*
X036083Y019562D02*
X032078Y019562D01*
X032025Y019661D02*
X036182Y019661D01*
X036731Y019661D02*
X039570Y019661D01*
X039570Y019759D02*
X031969Y019759D01*
X031898Y019858D02*
X039570Y019858D01*
X039570Y019956D02*
X031800Y019956D01*
X031683Y020055D02*
X039570Y020055D01*
X039570Y020153D02*
X031513Y020153D01*
X030587Y020153D02*
X025940Y020153D01*
X025938Y020055D02*
X030417Y020055D01*
X030300Y019956D02*
X025898Y019956D01*
X025838Y019858D02*
X030202Y019858D01*
X030131Y019759D02*
X025738Y019759D01*
X025936Y020252D02*
X039570Y020252D01*
X039570Y020350D02*
X025895Y020350D01*
X025832Y020449D02*
X039570Y020449D01*
X039570Y020547D02*
X025723Y020547D01*
X024601Y018577D02*
X001100Y018577D01*
X001100Y018479D02*
X024470Y018479D01*
X024344Y018085D02*
X004983Y018085D01*
X005082Y017986D02*
X024369Y017986D01*
X025491Y014539D02*
X025907Y014539D01*
X026005Y014440D02*
X025672Y014440D01*
X025753Y014342D02*
X026104Y014342D01*
X026202Y014243D02*
X025794Y014243D01*
X025800Y014145D02*
X026301Y014145D01*
X026399Y014046D02*
X025789Y014046D01*
X025748Y013948D02*
X026498Y013948D01*
X026596Y013849D02*
X025661Y013849D01*
X025488Y013540D02*
X024812Y013540D01*
X024669Y013481D01*
X024559Y013371D01*
X024500Y013228D01*
X024500Y013072D01*
X024559Y012929D01*
X024669Y012819D01*
X024812Y012760D01*
X025488Y012760D01*
X025631Y012819D01*
X025741Y012929D01*
X025800Y013072D01*
X025800Y013228D01*
X025741Y013371D01*
X025631Y013481D01*
X025488Y013540D01*
X025657Y013455D02*
X026990Y013455D01*
X026892Y013554D02*
X023330Y013554D01*
X023330Y013455D02*
X024643Y013455D01*
X024553Y013357D02*
X023330Y013357D01*
X023330Y013258D02*
X024513Y013258D01*
X024500Y013160D02*
X023330Y013160D01*
X023330Y013061D02*
X024505Y013061D01*
X024546Y012963D02*
X023330Y012963D01*
X023330Y012864D02*
X024624Y012864D01*
X024799Y012766D02*
X023330Y012766D01*
X023330Y012667D02*
X026580Y012667D01*
X026585Y012569D02*
X023330Y012569D01*
X023330Y012470D02*
X024658Y012470D01*
X024669Y012481D02*
X024559Y012371D01*
X024500Y012228D01*
X024500Y012072D01*
X024559Y011929D01*
X024669Y011819D01*
X024812Y011760D01*
X025488Y011760D01*
X025631Y011819D01*
X025741Y011929D01*
X025800Y012072D01*
X025800Y012228D01*
X025741Y012371D01*
X025631Y012481D01*
X025488Y012540D01*
X024812Y012540D01*
X024669Y012481D01*
X024560Y012372D02*
X023330Y012372D01*
X023330Y012273D02*
X024519Y012273D01*
X024500Y012175D02*
X023330Y012175D01*
X023330Y012076D02*
X024500Y012076D01*
X024539Y011978D02*
X023330Y011978D01*
X023330Y011879D02*
X024609Y011879D01*
X024763Y011781D02*
X023330Y011781D01*
X023330Y011682D02*
X028763Y011682D01*
X028665Y011781D02*
X025537Y011781D01*
X025691Y011879D02*
X028566Y011879D01*
X028468Y011978D02*
X025761Y011978D01*
X025800Y012076D02*
X028369Y012076D01*
X028271Y012175D02*
X025800Y012175D01*
X025781Y012273D02*
X028172Y012273D01*
X028074Y012372D02*
X027587Y012372D01*
X027674Y012470D02*
X027975Y012470D01*
X027877Y012569D02*
X027715Y012569D01*
X027720Y012667D02*
X027778Y012667D01*
X027384Y013061D02*
X025795Y013061D01*
X025800Y013160D02*
X027286Y013160D01*
X027187Y013258D02*
X025787Y013258D01*
X025747Y013357D02*
X027089Y013357D01*
X026770Y012963D02*
X025754Y012963D01*
X025676Y012864D02*
X026649Y012864D01*
X026599Y012766D02*
X025501Y012766D01*
X025642Y012470D02*
X026626Y012470D01*
X026713Y012372D02*
X025740Y012372D01*
X025488Y011540D02*
X024812Y011540D01*
X024669Y011481D01*
X024559Y011371D01*
X024500Y011228D01*
X024500Y011072D01*
X024559Y010929D01*
X024669Y010819D01*
X024812Y010760D01*
X025488Y010760D01*
X025631Y010819D01*
X025741Y010929D01*
X025800Y011072D01*
X025800Y011228D01*
X025741Y011371D01*
X025631Y011481D01*
X025488Y011540D01*
X025620Y011485D02*
X028960Y011485D01*
X028862Y011584D02*
X023330Y011584D01*
X023330Y011485D02*
X024680Y011485D01*
X024575Y011387D02*
X023330Y011387D01*
X023330Y011288D02*
X024525Y011288D01*
X024500Y011190D02*
X023330Y011190D01*
X023330Y011091D02*
X024500Y011091D01*
X024533Y010993D02*
X023330Y010993D01*
X023330Y010894D02*
X024594Y010894D01*
X024727Y010796D02*
X023330Y010796D01*
X023330Y010697D02*
X026580Y010697D01*
X026580Y010720D02*
X026580Y010580D01*
X026633Y010452D01*
X026732Y010353D01*
X026860Y010300D01*
X027440Y010300D01*
X027568Y010353D01*
X027667Y010452D01*
X027720Y010580D01*
X027720Y010720D01*
X027667Y010848D01*
X027568Y010947D01*
X027440Y011000D01*
X026860Y011000D01*
X026732Y010947D01*
X026633Y010848D01*
X026580Y010720D01*
X026611Y010796D02*
X025573Y010796D01*
X025706Y010894D02*
X026679Y010894D01*
X026842Y010993D02*
X025767Y010993D01*
X025800Y011091D02*
X029354Y011091D01*
X029256Y011190D02*
X025800Y011190D01*
X025775Y011288D02*
X029157Y011288D01*
X029059Y011387D02*
X025725Y011387D01*
X026580Y010599D02*
X023330Y010599D01*
X023330Y010500D02*
X024674Y010500D01*
X024675Y010501D02*
X024623Y010463D01*
X024577Y010417D01*
X024539Y010365D01*
X024510Y010307D01*
X024490Y010246D01*
X024480Y010182D01*
X024480Y010180D01*
X025120Y010180D01*
X025120Y010560D01*
X024858Y010560D01*
X024794Y010550D01*
X024733Y010530D01*
X024675Y010501D01*
X024566Y010402D02*
X023330Y010402D01*
X023330Y010303D02*
X024509Y010303D01*
X024484Y010205D02*
X023330Y010205D01*
X023330Y010106D02*
X024482Y010106D01*
X024480Y010118D02*
X024490Y010054D01*
X024510Y009993D01*
X024539Y009935D01*
X024577Y009883D01*
X024623Y009837D01*
X024675Y009799D01*
X024733Y009770D01*
X024794Y009750D01*
X024858Y009740D01*
X025120Y009740D01*
X025120Y010120D01*
X025180Y010120D01*
X025180Y010180D01*
X025120Y010180D01*
X025120Y010120D01*
X024480Y010120D01*
X024480Y010118D01*
X024505Y010008D02*
X023330Y010008D01*
X023330Y009909D02*
X024558Y009909D01*
X024660Y009811D02*
X023330Y009811D01*
X023330Y009712D02*
X029120Y009712D01*
X029120Y009684D02*
X029123Y009677D01*
X025775Y006330D01*
X025758Y006330D01*
X025741Y006371D01*
X025631Y006481D01*
X025488Y006540D01*
X024812Y006540D01*
X024669Y006481D01*
X024559Y006371D01*
X024500Y006228D01*
X024500Y006072D01*
X024559Y005929D01*
X024669Y005819D01*
X024812Y005760D01*
X025488Y005760D01*
X025631Y005819D01*
X025741Y005929D01*
X025758Y005970D01*
X025925Y005970D01*
X029377Y009423D01*
X029384Y009420D01*
X029516Y009420D01*
X029637Y009470D01*
X029730Y009563D01*
X029780Y009684D01*
X029780Y009816D01*
X029730Y009937D01*
X029637Y010030D01*
X029516Y010080D01*
X029384Y010080D01*
X029263Y010030D01*
X029170Y009937D01*
X029120Y009816D01*
X029120Y009684D01*
X029059Y009614D02*
X027853Y009614D01*
X027837Y009630D02*
X027716Y009680D01*
X027584Y009680D01*
X027463Y009630D01*
X027370Y009537D01*
X027320Y009416D01*
X027320Y009284D01*
X027323Y009277D01*
X025557Y007511D01*
X025488Y007540D01*
X024812Y007540D01*
X024669Y007481D01*
X024559Y007371D01*
X024500Y007228D01*
X024500Y007072D01*
X024559Y006929D01*
X024669Y006819D01*
X024812Y006760D01*
X025488Y006760D01*
X025631Y006819D01*
X025741Y006929D01*
X025800Y007072D01*
X025800Y007228D01*
X025795Y007240D01*
X027577Y009023D01*
X027584Y009020D01*
X027716Y009020D01*
X027837Y009070D01*
X027930Y009163D01*
X027980Y009284D01*
X027980Y009416D01*
X027930Y009537D01*
X027837Y009630D01*
X027939Y009515D02*
X028960Y009515D01*
X028862Y009417D02*
X027980Y009417D01*
X027980Y009318D02*
X028763Y009318D01*
X028665Y009220D02*
X027953Y009220D01*
X027888Y009121D02*
X028566Y009121D01*
X028468Y009023D02*
X027722Y009023D01*
X027578Y009023D02*
X027577Y009023D01*
X027479Y008924D02*
X028369Y008924D01*
X028271Y008826D02*
X027380Y008826D01*
X027282Y008727D02*
X028172Y008727D01*
X028074Y008629D02*
X027183Y008629D01*
X027085Y008530D02*
X027975Y008530D01*
X027877Y008432D02*
X026986Y008432D01*
X026888Y008333D02*
X027778Y008333D01*
X027680Y008235D02*
X026789Y008235D01*
X026691Y008136D02*
X027581Y008136D01*
X027483Y008038D02*
X026592Y008038D01*
X026494Y007939D02*
X027384Y007939D01*
X027286Y007841D02*
X026395Y007841D01*
X026297Y007742D02*
X027187Y007742D01*
X027089Y007644D02*
X026198Y007644D01*
X026100Y007545D02*
X026990Y007545D01*
X026892Y007447D02*
X026001Y007447D01*
X025903Y007348D02*
X026793Y007348D01*
X026695Y007250D02*
X025804Y007250D01*
X025800Y007151D02*
X026596Y007151D01*
X026498Y007053D02*
X025792Y007053D01*
X025751Y006954D02*
X026399Y006954D01*
X026301Y006856D02*
X025667Y006856D01*
X025450Y007150D02*
X025150Y007150D01*
X025450Y007150D02*
X027650Y009350D01*
X027320Y009318D02*
X025763Y009318D01*
X025741Y009371D02*
X025631Y009481D01*
X025488Y009540D01*
X024812Y009540D01*
X024669Y009481D01*
X024559Y009371D01*
X024500Y009228D01*
X024500Y009072D01*
X024559Y008929D01*
X024669Y008819D01*
X024812Y008760D01*
X025488Y008760D01*
X025631Y008819D01*
X025741Y008929D01*
X025800Y009072D01*
X025800Y009228D01*
X025741Y009371D01*
X025695Y009417D02*
X027320Y009417D01*
X027361Y009515D02*
X025548Y009515D01*
X025506Y009750D02*
X025567Y009770D01*
X025625Y009799D01*
X025677Y009837D01*
X025723Y009883D01*
X025761Y009935D01*
X025790Y009993D01*
X025810Y010054D01*
X025820Y010118D01*
X025820Y010120D01*
X025180Y010120D01*
X025180Y009740D01*
X025442Y009740D01*
X025506Y009750D01*
X025640Y009811D02*
X029120Y009811D01*
X029159Y009909D02*
X025742Y009909D01*
X025795Y010008D02*
X029241Y010008D01*
X029450Y009750D02*
X025850Y006150D01*
X025150Y006150D01*
X025517Y005772D02*
X026917Y005772D01*
X026819Y005674D02*
X023330Y005674D01*
X023330Y005772D02*
X024783Y005772D01*
X024618Y005871D02*
X023330Y005871D01*
X023330Y005969D02*
X024543Y005969D01*
X024502Y006068D02*
X023330Y006068D01*
X023330Y006166D02*
X024500Y006166D01*
X024515Y006265D02*
X023330Y006265D01*
X023330Y006363D02*
X024556Y006363D01*
X024650Y006462D02*
X023330Y006462D01*
X023330Y006560D02*
X026005Y006560D01*
X025907Y006462D02*
X025650Y006462D01*
X025744Y006363D02*
X025808Y006363D01*
X026022Y006068D02*
X027213Y006068D01*
X027311Y006166D02*
X026121Y006166D01*
X026219Y006265D02*
X027410Y006265D01*
X027508Y006363D02*
X026318Y006363D01*
X026416Y006462D02*
X027607Y006462D01*
X027705Y006560D02*
X026515Y006560D01*
X026613Y006659D02*
X027804Y006659D01*
X027902Y006757D02*
X026712Y006757D01*
X026810Y006856D02*
X028001Y006856D01*
X028099Y006954D02*
X026909Y006954D01*
X027007Y007053D02*
X028198Y007053D01*
X028296Y007151D02*
X027106Y007151D01*
X027204Y007250D02*
X028395Y007250D01*
X028467Y007348D02*
X027303Y007348D01*
X027401Y007447D02*
X028538Y007447D01*
X028680Y007545D02*
X027500Y007545D01*
X028550Y007150D02*
X029150Y007150D01*
X029625Y006757D02*
X031370Y006757D01*
X031370Y006659D02*
X028313Y006659D01*
X028412Y006757D02*
X028675Y006757D01*
X028536Y006856D02*
X028510Y006856D01*
X028550Y007150D02*
X026550Y005150D01*
X025150Y005150D01*
X025553Y004787D02*
X027032Y004787D01*
X026934Y004689D02*
X023330Y004689D01*
X023330Y004787D02*
X024747Y004787D01*
X024603Y004886D02*
X023330Y004886D01*
X023330Y004984D02*
X024537Y004984D01*
X024500Y005083D02*
X023330Y005083D01*
X023330Y005181D02*
X024500Y005181D01*
X024522Y005280D02*
X023330Y005280D01*
X023330Y005378D02*
X024566Y005378D01*
X024665Y005477D02*
X023330Y005477D01*
X023330Y005575D02*
X026720Y005575D01*
X026622Y005477D02*
X025635Y005477D01*
X025734Y005378D02*
X026523Y005378D01*
X026737Y005083D02*
X027328Y005083D01*
X027426Y005181D02*
X026836Y005181D01*
X026934Y005280D02*
X027525Y005280D01*
X027623Y005378D02*
X027033Y005378D01*
X027131Y005477D02*
X027722Y005477D01*
X027820Y005575D02*
X027230Y005575D01*
X027328Y005674D02*
X027919Y005674D01*
X028017Y005772D02*
X027427Y005772D01*
X027525Y005871D02*
X028116Y005871D01*
X028214Y005969D02*
X027624Y005969D01*
X027722Y006068D02*
X028313Y006068D01*
X028411Y006166D02*
X027821Y006166D01*
X027919Y006265D02*
X028432Y006265D01*
X028473Y006363D02*
X028018Y006363D01*
X028116Y006462D02*
X028553Y006462D01*
X028716Y006560D02*
X028215Y006560D01*
X027114Y005969D02*
X025757Y005969D01*
X025682Y005871D02*
X027016Y005871D01*
X027229Y004984D02*
X026639Y004984D01*
X027131Y004886D02*
X025697Y004886D01*
X026104Y006659D02*
X023330Y006659D01*
X023330Y006757D02*
X026202Y006757D01*
X025590Y007545D02*
X023330Y007545D01*
X023330Y007447D02*
X024635Y007447D01*
X024550Y007348D02*
X023330Y007348D01*
X023330Y007250D02*
X024509Y007250D01*
X024500Y007151D02*
X023330Y007151D01*
X023330Y007053D02*
X024508Y007053D01*
X024549Y006954D02*
X023330Y006954D01*
X023330Y006856D02*
X024633Y006856D01*
X025689Y007644D02*
X023330Y007644D01*
X023330Y007742D02*
X025787Y007742D01*
X025886Y007841D02*
X025652Y007841D01*
X025631Y007819D02*
X025741Y007929D01*
X025800Y008072D01*
X025800Y008228D01*
X025741Y008371D01*
X025631Y008481D01*
X025488Y008540D01*
X024812Y008540D01*
X024669Y008481D01*
X024559Y008371D01*
X024500Y008228D01*
X024500Y008072D01*
X024559Y007929D01*
X024669Y007819D01*
X024812Y007760D01*
X025488Y007760D01*
X025631Y007819D01*
X025745Y007939D02*
X025984Y007939D01*
X026083Y008038D02*
X025786Y008038D01*
X025800Y008136D02*
X026181Y008136D01*
X026280Y008235D02*
X025797Y008235D01*
X025756Y008333D02*
X026378Y008333D01*
X026477Y008432D02*
X025680Y008432D01*
X025512Y008530D02*
X026575Y008530D01*
X026674Y008629D02*
X023330Y008629D01*
X023330Y008727D02*
X026772Y008727D01*
X026871Y008826D02*
X025637Y008826D01*
X025736Y008924D02*
X026969Y008924D01*
X027068Y009023D02*
X025779Y009023D01*
X025800Y009121D02*
X027166Y009121D01*
X027265Y009220D02*
X025800Y009220D01*
X025180Y009811D02*
X025120Y009811D01*
X025120Y009909D02*
X025180Y009909D01*
X025180Y010008D02*
X025120Y010008D01*
X025120Y010106D02*
X025180Y010106D01*
X025180Y010180D02*
X025820Y010180D01*
X025820Y010182D01*
X025810Y010246D01*
X025790Y010307D01*
X025761Y010365D01*
X025723Y010417D01*
X025677Y010463D01*
X025625Y010501D01*
X025567Y010530D01*
X025506Y010550D01*
X025442Y010560D01*
X025180Y010560D01*
X025180Y010180D01*
X025180Y010205D02*
X025120Y010205D01*
X025120Y010303D02*
X025180Y010303D01*
X025180Y010402D02*
X025120Y010402D01*
X025120Y010500D02*
X025180Y010500D01*
X025626Y010500D02*
X026613Y010500D01*
X026684Y010402D02*
X025734Y010402D01*
X025791Y010303D02*
X026853Y010303D01*
X027447Y010303D02*
X030142Y010303D01*
X030044Y010402D02*
X027616Y010402D01*
X027687Y010500D02*
X029945Y010500D01*
X029847Y010599D02*
X027720Y010599D01*
X027720Y010697D02*
X029748Y010697D01*
X029650Y010796D02*
X027689Y010796D01*
X027621Y010894D02*
X029551Y010894D01*
X029453Y010993D02*
X027458Y010993D01*
X025816Y010205D02*
X030241Y010205D01*
X030339Y010106D02*
X025818Y010106D01*
X024752Y009515D02*
X023330Y009515D01*
X023330Y009417D02*
X024605Y009417D01*
X024537Y009318D02*
X023330Y009318D01*
X023330Y009220D02*
X024500Y009220D01*
X024500Y009121D02*
X023330Y009121D01*
X023330Y009023D02*
X024521Y009023D01*
X024564Y008924D02*
X023330Y008924D01*
X023330Y008826D02*
X024663Y008826D01*
X024788Y008530D02*
X023330Y008530D01*
X023330Y008432D02*
X024620Y008432D01*
X024544Y008333D02*
X023330Y008333D01*
X023330Y008235D02*
X024503Y008235D01*
X024500Y008136D02*
X023330Y008136D01*
X023330Y008038D02*
X024514Y008038D01*
X024555Y007939D02*
X023330Y007939D01*
X023330Y007841D02*
X024648Y007841D01*
X022970Y008629D02*
X021926Y008629D01*
X021828Y008727D02*
X022970Y008727D01*
X022970Y009220D02*
X022814Y009220D01*
X022785Y009318D02*
X022970Y009318D01*
X022970Y009417D02*
X022723Y009417D01*
X022597Y009515D02*
X022970Y009515D01*
X022970Y009614D02*
X021330Y009614D01*
X021330Y009712D02*
X022970Y009712D01*
X023330Y009614D02*
X027447Y009614D01*
X028780Y008826D02*
X031444Y008826D01*
X031420Y008924D02*
X028879Y008924D01*
X028977Y009023D02*
X031423Y009023D01*
X031324Y009121D02*
X029076Y009121D01*
X029174Y009220D02*
X031226Y009220D01*
X031127Y009318D02*
X029273Y009318D01*
X029371Y009417D02*
X031029Y009417D01*
X030930Y009515D02*
X029682Y009515D01*
X029751Y009614D02*
X030832Y009614D01*
X030733Y009712D02*
X029780Y009712D01*
X029780Y009811D02*
X030635Y009811D01*
X030536Y009909D02*
X029741Y009909D01*
X029659Y010008D02*
X030438Y010008D01*
X031255Y010500D02*
X034170Y010500D01*
X034170Y010402D02*
X031353Y010402D01*
X031452Y010303D02*
X034170Y010303D01*
X034170Y010205D02*
X031550Y010205D01*
X031649Y010106D02*
X034170Y010106D01*
X034170Y010008D02*
X031747Y010008D01*
X031846Y009909D02*
X034170Y009909D01*
X034170Y009811D02*
X031944Y009811D01*
X032043Y009712D02*
X034170Y009712D01*
X034170Y009614D02*
X032141Y009614D01*
X032240Y009515D02*
X034170Y009515D01*
X034170Y009417D02*
X032330Y009417D01*
X032330Y009318D02*
X034151Y009318D01*
X034063Y009220D02*
X032330Y009220D01*
X032330Y009121D02*
X034022Y009121D01*
X034020Y009023D02*
X032330Y009023D01*
X031506Y008727D02*
X028682Y008727D01*
X029762Y007447D02*
X031792Y007447D01*
X031693Y007348D02*
X029833Y007348D01*
X029874Y007250D02*
X031595Y007250D01*
X031496Y007151D02*
X029880Y007151D01*
X029875Y007053D02*
X031398Y007053D01*
X031370Y006954D02*
X029834Y006954D01*
X029764Y006856D02*
X031370Y006856D01*
X031370Y006560D02*
X029584Y006560D01*
X029747Y006462D02*
X031295Y006462D01*
X031240Y006363D02*
X029827Y006363D01*
X029868Y006265D02*
X031220Y006265D01*
X031228Y006166D02*
X029880Y006166D01*
X029880Y006068D02*
X031268Y006068D01*
X031366Y005969D02*
X029840Y005969D01*
X029779Y005871D02*
X032516Y005871D01*
X032850Y005950D02*
X032050Y005150D01*
X029150Y005150D01*
X029548Y005575D02*
X032220Y005575D01*
X032122Y005477D02*
X029732Y005477D01*
X029821Y005378D02*
X032023Y005378D01*
X031805Y006462D02*
X034084Y006462D01*
X033985Y006560D02*
X031730Y006560D01*
X031730Y006659D02*
X033887Y006659D01*
X033788Y006757D02*
X031730Y006757D01*
X031730Y006856D02*
X033690Y006856D01*
X033591Y006954D02*
X031809Y006954D01*
X031907Y007053D02*
X033493Y007053D01*
X033194Y007151D02*
X032006Y007151D01*
X032287Y007250D02*
X033096Y007250D01*
X032997Y007348D02*
X032415Y007348D01*
X032464Y007447D02*
X032899Y007447D01*
X034170Y010599D02*
X031156Y010599D01*
X031058Y010697D02*
X034170Y010697D01*
X034170Y010796D02*
X030959Y010796D01*
X030861Y010894D02*
X034170Y010894D01*
X034170Y010993D02*
X030762Y010993D01*
X030664Y011091D02*
X034170Y011091D01*
X034170Y011190D02*
X030565Y011190D01*
X030467Y011288D02*
X034170Y011288D01*
X034170Y011387D02*
X030368Y011387D01*
X030270Y011485D02*
X034170Y011485D01*
X034170Y011584D02*
X030171Y011584D01*
X030073Y011682D02*
X034170Y011682D01*
X034170Y011781D02*
X029974Y011781D01*
X029876Y011879D02*
X034170Y011879D01*
X034170Y011978D02*
X029777Y011978D01*
X029679Y012076D02*
X034170Y012076D01*
X034220Y012175D02*
X029580Y012175D01*
X029482Y012273D02*
X034318Y012273D01*
X034417Y012372D02*
X029383Y012372D01*
X029285Y012470D02*
X034515Y012470D01*
X034614Y012569D02*
X029186Y012569D01*
X029088Y012667D02*
X034712Y012667D01*
X034811Y012766D02*
X028989Y012766D01*
X028891Y012864D02*
X034909Y012864D01*
X035008Y012963D02*
X028792Y012963D01*
X028694Y013061D02*
X035106Y013061D01*
X035205Y013160D02*
X028595Y013160D01*
X028497Y013258D02*
X035303Y013258D01*
X035402Y013357D02*
X028398Y013357D01*
X028300Y013455D02*
X035500Y013455D01*
X035599Y013554D02*
X028201Y013554D01*
X028103Y013652D02*
X035697Y013652D01*
X035796Y013751D02*
X028004Y013751D01*
X027906Y013849D02*
X035894Y013849D01*
X035993Y013948D02*
X027807Y013948D01*
X027709Y014046D02*
X036091Y014046D01*
X036190Y014145D02*
X027610Y014145D01*
X027512Y014243D02*
X036288Y014243D01*
X036108Y013554D02*
X036945Y013554D01*
X036847Y013455D02*
X036010Y013455D01*
X035911Y013357D02*
X036748Y013357D01*
X036720Y013258D02*
X035813Y013258D01*
X035714Y013160D02*
X036720Y013160D01*
X036720Y013061D02*
X035616Y013061D01*
X035517Y012963D02*
X036729Y012963D01*
X036828Y012864D02*
X035419Y012864D01*
X035320Y012766D02*
X036926Y012766D01*
X036763Y012372D02*
X035570Y012372D01*
X035810Y012273D02*
X036720Y012273D01*
X036720Y012175D02*
X036049Y012175D01*
X036288Y012076D02*
X036720Y012076D01*
X036720Y011978D02*
X036527Y011978D01*
X036767Y011879D02*
X036813Y011879D01*
X036767Y018676D02*
X039570Y018676D01*
X039570Y018774D02*
X036865Y018774D01*
X036964Y018873D02*
X039570Y018873D01*
X039570Y018971D02*
X037011Y018971D01*
X037011Y019070D02*
X039570Y019070D01*
X039570Y019168D02*
X037011Y019168D01*
X037011Y019267D02*
X039570Y019267D01*
X039570Y019365D02*
X037011Y019365D01*
X036928Y019464D02*
X039570Y019464D01*
X039570Y019562D02*
X036829Y019562D01*
X039570Y020843D02*
X017736Y020843D01*
X017822Y020941D02*
X039570Y020941D01*
X039570Y021040D02*
X017822Y021040D01*
X017822Y021237D02*
X039570Y021237D01*
X039570Y021335D02*
X017796Y021335D01*
X017698Y021434D02*
X039570Y021434D01*
X039570Y021532D02*
X017599Y021532D01*
X017392Y021532D02*
X017332Y021532D01*
X017332Y021434D02*
X017392Y021434D01*
X017392Y021335D02*
X017332Y021335D01*
X017332Y021237D02*
X017392Y021237D01*
X017392Y021138D02*
X039570Y021138D01*
X039570Y021631D02*
X036750Y021631D01*
X036694Y021575D02*
X037031Y021912D01*
X037031Y022100D01*
X036506Y022100D01*
X036506Y021575D01*
X036694Y021575D01*
X036506Y021631D02*
X036406Y021631D01*
X036406Y021575D02*
X036406Y022100D01*
X035881Y022100D01*
X035881Y021912D01*
X036218Y021575D01*
X036406Y021575D01*
X036406Y021729D02*
X036506Y021729D01*
X036506Y021828D02*
X036406Y021828D01*
X036406Y021926D02*
X036506Y021926D01*
X036506Y022025D02*
X036406Y022025D01*
X036406Y022100D02*
X036506Y022100D01*
X036506Y022200D01*
X036406Y022200D01*
X036406Y022100D01*
X036406Y022123D02*
X001100Y022123D01*
X001100Y022025D02*
X005600Y022025D01*
X005614Y022035D02*
X005557Y021993D01*
X005507Y021943D01*
X005465Y021886D01*
X005433Y021823D01*
X005411Y021755D01*
X005402Y021700D01*
X006100Y021700D01*
X006100Y022100D01*
X005815Y022100D01*
X005745Y022089D01*
X005677Y022067D01*
X005614Y022035D01*
X005494Y021926D02*
X001100Y021926D01*
X001100Y021828D02*
X005435Y021828D01*
X005407Y021729D02*
X001100Y021729D01*
X001100Y021631D02*
X006100Y021631D01*
X006100Y021600D02*
X005402Y021600D01*
X005411Y021545D01*
X005433Y021477D01*
X005465Y021414D01*
X005507Y021357D01*
X005557Y021307D01*
X005614Y021265D01*
X005677Y021233D01*
X005745Y021211D01*
X005815Y021200D01*
X006100Y021200D01*
X006100Y021600D01*
X006200Y021600D01*
X006200Y021700D01*
X006100Y021700D01*
X006100Y021600D01*
X006100Y021532D02*
X006200Y021532D01*
X006200Y021600D02*
X006200Y021200D01*
X006485Y021200D01*
X006555Y021211D01*
X006623Y021233D01*
X006686Y021265D01*
X006743Y021307D01*
X006793Y021357D01*
X006835Y021414D01*
X006867Y021477D01*
X006889Y021545D01*
X006898Y021600D01*
X006200Y021600D01*
X006200Y021631D02*
X036163Y021631D01*
X036064Y021729D02*
X006893Y021729D01*
X006889Y021755D02*
X006867Y021823D01*
X006835Y021886D01*
X006793Y021943D01*
X006743Y021993D01*
X006686Y022035D01*
X006623Y022067D01*
X006555Y022089D01*
X006485Y022100D01*
X006200Y022100D01*
X006200Y021700D01*
X006898Y021700D01*
X006889Y021755D01*
X006865Y021828D02*
X035966Y021828D01*
X035881Y021926D02*
X006806Y021926D01*
X006700Y022025D02*
X035881Y022025D01*
X035881Y022200D02*
X036406Y022200D01*
X036406Y022725D01*
X036218Y022725D01*
X035881Y022388D01*
X035881Y022200D01*
X035881Y022222D02*
X006539Y022222D01*
X006536Y022220D02*
X006694Y022285D01*
X006815Y022406D01*
X006880Y022564D01*
X006880Y022736D01*
X006815Y022894D01*
X006694Y023015D01*
X006536Y023080D01*
X005764Y023080D01*
X005606Y023015D01*
X005485Y022894D01*
X005420Y022736D01*
X005420Y022564D01*
X005485Y022406D01*
X005606Y022285D01*
X005764Y022220D01*
X006536Y022220D01*
X006728Y022320D02*
X035881Y022320D01*
X035912Y022419D02*
X006820Y022419D01*
X006860Y022517D02*
X036010Y022517D01*
X036109Y022616D02*
X006880Y022616D01*
X006880Y022714D02*
X036207Y022714D01*
X036406Y022714D02*
X036506Y022714D01*
X036506Y022725D02*
X036506Y022200D01*
X037031Y022200D01*
X037031Y022388D01*
X036694Y022725D01*
X036506Y022725D01*
X036506Y022616D02*
X036406Y022616D01*
X036406Y022517D02*
X036506Y022517D01*
X036506Y022419D02*
X036406Y022419D01*
X036406Y022320D02*
X036506Y022320D01*
X036506Y022222D02*
X036406Y022222D01*
X036506Y022123D02*
X039570Y022123D01*
X039570Y022025D02*
X037031Y022025D01*
X037031Y021926D02*
X039570Y021926D01*
X039570Y021828D02*
X036947Y021828D01*
X036848Y021729D02*
X039570Y021729D01*
X039570Y022222D02*
X037031Y022222D01*
X037031Y022320D02*
X039570Y022320D01*
X039570Y022419D02*
X037001Y022419D01*
X036902Y022517D02*
X039570Y022517D01*
X039570Y022616D02*
X036804Y022616D01*
X036705Y022714D02*
X039570Y022714D01*
X039570Y022813D02*
X006848Y022813D01*
X006797Y022911D02*
X039570Y022911D01*
X039570Y023010D02*
X006699Y023010D01*
X005601Y023010D02*
X001100Y023010D01*
X001100Y023108D02*
X039570Y023108D01*
X039570Y023207D02*
X001100Y023207D01*
X001100Y023305D02*
X039570Y023305D01*
X039570Y023404D02*
X001100Y023404D01*
X001100Y023502D02*
X039570Y023502D01*
X039570Y023601D02*
X001100Y023601D01*
X001100Y023699D02*
X039570Y023699D01*
X039570Y023798D02*
X001100Y023798D01*
X001100Y023896D02*
X039570Y023896D01*
X039570Y023995D02*
X001100Y023995D01*
X001100Y024093D02*
X039570Y024093D01*
X039570Y024192D02*
X001100Y024192D01*
X001100Y024290D02*
X039570Y024290D01*
X039570Y024389D02*
X001100Y024389D01*
X001100Y022911D02*
X005503Y022911D01*
X005452Y022813D02*
X001100Y022813D01*
X001100Y022714D02*
X005420Y022714D01*
X005420Y022616D02*
X001100Y022616D01*
X001100Y022517D02*
X005440Y022517D01*
X005480Y022419D02*
X001100Y022419D01*
X001100Y022320D02*
X005572Y022320D01*
X005761Y022222D02*
X001100Y022222D01*
X001100Y021532D02*
X005415Y021532D01*
X005455Y021434D02*
X001100Y021434D01*
X001100Y021335D02*
X005529Y021335D01*
X005670Y021237D02*
X001100Y021237D01*
X001100Y021138D02*
X017332Y021138D01*
X017332Y021040D02*
X017392Y021040D01*
X017392Y020941D02*
X017332Y020941D01*
X017332Y020843D02*
X017392Y020843D01*
X017392Y020744D02*
X017332Y020744D01*
X016988Y020843D02*
X015254Y020843D01*
X015153Y020350D02*
X008788Y020350D01*
X008512Y020350D02*
X006758Y020350D01*
X006815Y020406D02*
X006694Y020285D01*
X006536Y020220D01*
X005764Y020220D01*
X005606Y020285D01*
X005485Y020406D01*
X005420Y020564D01*
X005420Y020736D01*
X005485Y020894D01*
X005606Y021015D01*
X005764Y021080D01*
X006536Y021080D01*
X006694Y021015D01*
X006815Y020894D01*
X006880Y020736D01*
X006880Y020564D01*
X006815Y020406D01*
X006832Y020449D02*
X008385Y020449D01*
X008335Y020547D02*
X006873Y020547D01*
X006880Y020646D02*
X008320Y020646D01*
X008332Y020744D02*
X006876Y020744D01*
X006836Y020843D02*
X008376Y020843D01*
X008490Y020941D02*
X006767Y020941D01*
X006633Y021040D02*
X016902Y021040D01*
X016902Y020941D02*
X008810Y020941D01*
X006885Y021532D02*
X017125Y021532D01*
X017026Y021434D02*
X006845Y021434D01*
X006771Y021335D02*
X016928Y021335D01*
X016902Y021237D02*
X006630Y021237D01*
X006200Y021237D02*
X006100Y021237D01*
X006100Y021335D02*
X006200Y021335D01*
X006200Y021434D02*
X006100Y021434D01*
X006100Y021729D02*
X006200Y021729D01*
X006200Y021828D02*
X006100Y021828D01*
X006100Y021926D02*
X006200Y021926D01*
X006200Y022025D02*
X006100Y022025D01*
X005667Y021040D02*
X001100Y021040D01*
X001100Y020941D02*
X005533Y020941D01*
X005464Y020843D02*
X001100Y020843D01*
X001100Y020744D02*
X005424Y020744D01*
X005420Y020646D02*
X001100Y020646D01*
X001100Y020547D02*
X005427Y020547D01*
X005468Y020449D02*
X001100Y020449D01*
X001100Y020350D02*
X005542Y020350D01*
X005688Y020252D02*
X001100Y020252D01*
X001100Y020153D02*
X015350Y020153D01*
X015448Y020055D02*
X006597Y020055D01*
X006536Y020080D02*
X005764Y020080D01*
X005606Y020015D01*
X005485Y019894D01*
X005420Y019736D01*
X005420Y019564D01*
X005485Y019406D01*
X005606Y019285D01*
X005764Y019220D01*
X006536Y019220D01*
X006694Y019285D01*
X006815Y019406D01*
X006880Y019564D01*
X006880Y019736D01*
X006815Y019894D01*
X006694Y020015D01*
X006536Y020080D01*
X006612Y020252D02*
X015251Y020252D01*
X015547Y019956D02*
X006752Y019956D01*
X006829Y019858D02*
X015645Y019858D01*
X015744Y019759D02*
X006870Y019759D01*
X006880Y019661D02*
X015842Y019661D01*
X015941Y019562D02*
X006879Y019562D01*
X006838Y019464D02*
X016039Y019464D01*
X016138Y019365D02*
X006773Y019365D01*
X006648Y019267D02*
X016236Y019267D01*
X021330Y013455D02*
X021643Y013455D01*
X021553Y013357D02*
X021330Y013357D01*
X021330Y013258D02*
X021513Y013258D01*
X021500Y013160D02*
X021330Y013160D01*
X021330Y013061D02*
X021505Y013061D01*
X021546Y012963D02*
X021330Y012963D01*
X021330Y012864D02*
X021624Y012864D01*
X021799Y012766D02*
X021330Y012766D01*
X021330Y012667D02*
X022970Y012667D01*
X022970Y012569D02*
X021330Y012569D01*
X021330Y012470D02*
X021658Y012470D01*
X021560Y012372D02*
X021330Y012372D01*
X021330Y012273D02*
X021519Y012273D01*
X021500Y012175D02*
X021330Y012175D01*
X021330Y012076D02*
X021500Y012076D01*
X021539Y011978D02*
X021330Y011978D01*
X021330Y011879D02*
X021609Y011879D01*
X021763Y011781D02*
X021330Y011781D01*
X021330Y011682D02*
X022970Y011682D01*
X022970Y011584D02*
X021330Y011584D01*
X021330Y011485D02*
X021680Y011485D01*
X021575Y011387D02*
X021330Y011387D01*
X021330Y011288D02*
X021525Y011288D01*
X021500Y011190D02*
X021330Y011190D01*
X021330Y011091D02*
X021500Y011091D01*
X021533Y010993D02*
X021330Y010993D01*
X021330Y010894D02*
X021594Y010894D01*
X021727Y010796D02*
X021330Y010796D01*
X021330Y010697D02*
X022970Y010697D01*
X022970Y010599D02*
X021330Y010599D01*
X021330Y010500D02*
X021716Y010500D01*
X021590Y010402D02*
X021330Y010402D01*
X021330Y010303D02*
X021531Y010303D01*
X021500Y010205D02*
X021330Y010205D01*
X021330Y010106D02*
X021500Y010106D01*
X021527Y010008D02*
X021330Y010008D01*
X021330Y009909D02*
X021579Y009909D01*
X021690Y009811D02*
X021330Y009811D01*
X021330Y009515D02*
X021703Y009515D01*
X021577Y009417D02*
X021330Y009417D01*
X021330Y009318D02*
X021515Y009318D01*
X021486Y009220D02*
X021335Y009220D01*
X021434Y009121D02*
X022120Y009121D01*
X022120Y009023D02*
X022180Y009023D01*
X022180Y008924D02*
X022120Y008924D01*
X022120Y008826D02*
X022180Y008826D01*
X021783Y005772D02*
X021650Y005772D01*
X021650Y004787D02*
X021747Y004787D01*
X021711Y003802D02*
X021650Y003802D01*
X021650Y002325D02*
X025109Y002325D01*
X025270Y002226D02*
X021650Y002226D01*
X021650Y002128D02*
X039570Y002128D01*
X039570Y002226D02*
X025430Y002226D01*
X025591Y002325D02*
X039570Y002325D01*
X039570Y002423D02*
X025655Y002423D01*
X025680Y002522D02*
X039570Y002522D01*
X039570Y002620D02*
X025678Y002620D01*
X025637Y002719D02*
X028722Y002719D01*
X028547Y002817D02*
X025625Y002817D01*
X025727Y002916D02*
X028464Y002916D01*
X028421Y003014D02*
X025776Y003014D01*
X029100Y003014D02*
X029200Y003014D01*
X029200Y002916D02*
X029100Y002916D01*
X029100Y002817D02*
X029200Y002817D01*
X029200Y002719D02*
X029100Y002719D01*
X029578Y002719D02*
X039570Y002719D01*
X039570Y002817D02*
X029753Y002817D01*
X029836Y002916D02*
X039570Y002916D01*
X039570Y003014D02*
X029879Y003014D01*
X029200Y003310D02*
X029100Y003310D01*
X029100Y003408D02*
X029200Y003408D01*
X029200Y003507D02*
X029100Y003507D01*
X021650Y002029D02*
X039570Y002029D01*
X039570Y001931D02*
X021650Y001931D01*
X021650Y001832D02*
X039570Y001832D01*
X039570Y001734D02*
X021650Y001734D01*
X021650Y001635D02*
X039570Y001635D01*
X039570Y001537D02*
X021650Y001537D01*
X021650Y001438D02*
X039570Y001438D01*
X039570Y001340D02*
X021650Y001340D01*
X021650Y001241D02*
X039570Y001241D01*
X039570Y001143D02*
X021650Y001143D01*
X010650Y006659D02*
X001100Y006659D01*
X001100Y006757D02*
X010650Y006757D01*
X010650Y006856D02*
X001100Y006856D01*
X001100Y006954D02*
X003784Y006954D01*
X003668Y006985D02*
X003985Y006900D01*
X004315Y006900D01*
X004632Y006985D01*
X004918Y007150D01*
X005150Y007382D01*
X005315Y007668D01*
X005400Y007985D01*
X005400Y008315D01*
X005315Y008632D01*
X005150Y008918D01*
X004918Y009150D01*
X004632Y009315D01*
X004315Y009400D01*
X003985Y009400D01*
X003668Y009315D01*
X003382Y009150D01*
X003150Y008918D01*
X002985Y008632D01*
X002900Y008315D01*
X002900Y007985D01*
X002985Y007668D01*
X003150Y007382D01*
X003382Y007150D01*
X003668Y006985D01*
X003551Y007053D02*
X001100Y007053D01*
X001100Y007151D02*
X003381Y007151D01*
X003283Y007250D02*
X001100Y007250D01*
X001100Y007348D02*
X003184Y007348D01*
X003113Y007447D02*
X001100Y007447D01*
X001100Y007545D02*
X003056Y007545D01*
X002999Y007644D02*
X001100Y007644D01*
X001100Y007742D02*
X002965Y007742D01*
X002939Y007841D02*
X001100Y007841D01*
X001100Y007939D02*
X002912Y007939D01*
X002900Y008038D02*
X001100Y008038D01*
X001100Y008136D02*
X002900Y008136D01*
X002900Y008235D02*
X001100Y008235D01*
X001100Y008333D02*
X002905Y008333D01*
X002931Y008432D02*
X001100Y008432D01*
X001100Y008530D02*
X002958Y008530D01*
X002984Y008629D02*
X001100Y008629D01*
X001100Y008727D02*
X003040Y008727D01*
X003097Y008826D02*
X001100Y008826D01*
X001100Y008924D02*
X003156Y008924D01*
X003255Y009023D02*
X001100Y009023D01*
X001100Y009121D02*
X003353Y009121D01*
X003502Y009220D02*
X001100Y009220D01*
X001100Y009318D02*
X003679Y009318D01*
X004621Y009318D02*
X010650Y009318D01*
X010650Y009220D02*
X004798Y009220D01*
X004947Y009121D02*
X010650Y009121D01*
X010650Y009023D02*
X005045Y009023D01*
X005144Y008924D02*
X010650Y008924D01*
X010650Y008826D02*
X005203Y008826D01*
X005260Y008727D02*
X010650Y008727D01*
X010650Y008629D02*
X005316Y008629D01*
X005342Y008530D02*
X010650Y008530D01*
X010650Y008432D02*
X005369Y008432D01*
X005395Y008333D02*
X010650Y008333D01*
X010650Y008235D02*
X005400Y008235D01*
X005400Y008136D02*
X010650Y008136D01*
X010650Y008038D02*
X005400Y008038D01*
X005388Y007939D02*
X010650Y007939D01*
X010650Y007841D02*
X005361Y007841D01*
X005335Y007742D02*
X010650Y007742D01*
X010650Y007644D02*
X005301Y007644D01*
X005244Y007545D02*
X010650Y007545D01*
X010650Y007447D02*
X005187Y007447D01*
X005116Y007348D02*
X010650Y007348D01*
X010650Y007250D02*
X005017Y007250D01*
X004919Y007151D02*
X010650Y007151D01*
X010650Y007053D02*
X004749Y007053D01*
X004516Y006954D02*
X010650Y006954D01*
X010650Y009417D02*
X001100Y009417D01*
X001100Y009515D02*
X010650Y009515D01*
X010650Y009614D02*
X001100Y009614D01*
X001100Y009712D02*
X010650Y009712D01*
X010650Y009811D02*
X009719Y009811D01*
X009694Y009785D02*
X009815Y009906D01*
X009880Y010064D01*
X009880Y010236D01*
X009815Y010394D01*
X009694Y010515D01*
X009536Y010580D01*
X008764Y010580D01*
X008606Y010515D01*
X008485Y010394D01*
X008420Y010236D01*
X008420Y010064D01*
X008485Y009906D01*
X008606Y009785D01*
X008764Y009720D01*
X009536Y009720D01*
X009694Y009785D01*
X009816Y009909D02*
X010650Y009909D01*
X010650Y010008D02*
X009856Y010008D01*
X009880Y010106D02*
X010650Y010106D01*
X010650Y010205D02*
X009880Y010205D01*
X009852Y010303D02*
X010650Y010303D01*
X010650Y010402D02*
X009807Y010402D01*
X009708Y010500D02*
X010650Y010500D01*
X010650Y010599D02*
X001100Y010599D01*
X001100Y010697D02*
X010650Y010697D01*
X010650Y010796D02*
X009704Y010796D01*
X009694Y010785D02*
X009815Y010906D01*
X009880Y011064D01*
X009880Y011236D01*
X009815Y011394D01*
X009694Y011515D01*
X009536Y011580D01*
X008764Y011580D01*
X008606Y011515D01*
X008485Y011394D01*
X008420Y011236D01*
X008420Y011064D01*
X008485Y010906D01*
X008606Y010785D01*
X008764Y010720D01*
X009536Y010720D01*
X009694Y010785D01*
X009802Y010894D02*
X010650Y010894D01*
X010650Y010993D02*
X009850Y010993D01*
X009880Y011091D02*
X010650Y011091D01*
X010650Y011190D02*
X009880Y011190D01*
X009858Y011288D02*
X010650Y011288D01*
X010650Y011387D02*
X009817Y011387D01*
X009723Y011485D02*
X010650Y011485D01*
X010650Y011584D02*
X001100Y011584D01*
X001100Y011682D02*
X010650Y011682D01*
X010650Y011781D02*
X009682Y011781D01*
X009694Y011785D02*
X009815Y011906D01*
X009880Y012064D01*
X009880Y012236D01*
X009815Y012394D01*
X009694Y012515D01*
X009536Y012580D01*
X008764Y012580D01*
X008606Y012515D01*
X008485Y012394D01*
X008420Y012236D01*
X008420Y012064D01*
X008485Y011906D01*
X008606Y011785D01*
X008764Y011720D01*
X009536Y011720D01*
X009694Y011785D01*
X009787Y011879D02*
X010650Y011879D01*
X010650Y011978D02*
X009844Y011978D01*
X009880Y012076D02*
X010650Y012076D01*
X010650Y012175D02*
X009880Y012175D01*
X009864Y012273D02*
X010650Y012273D01*
X010650Y012372D02*
X009824Y012372D01*
X009738Y012470D02*
X010650Y012470D01*
X010650Y012569D02*
X009563Y012569D01*
X008562Y012470D02*
X001100Y012470D01*
X001100Y012372D02*
X008476Y012372D01*
X008436Y012273D02*
X001100Y012273D01*
X001100Y012175D02*
X008420Y012175D01*
X008420Y012076D02*
X001100Y012076D01*
X001100Y011978D02*
X008456Y011978D01*
X008513Y011879D02*
X001100Y011879D01*
X001100Y011781D02*
X008618Y011781D01*
X008577Y011485D02*
X001100Y011485D01*
X001100Y011387D02*
X008483Y011387D01*
X008442Y011288D02*
X001100Y011288D01*
X001100Y011190D02*
X008420Y011190D01*
X008420Y011091D02*
X001100Y011091D01*
X001100Y010993D02*
X008450Y010993D01*
X008498Y010894D02*
X001100Y010894D01*
X001100Y010796D02*
X008596Y010796D01*
X008592Y010500D02*
X001100Y010500D01*
X001100Y010402D02*
X008493Y010402D01*
X008448Y010303D02*
X001100Y010303D01*
X001100Y010205D02*
X008420Y010205D01*
X008420Y010106D02*
X001100Y010106D01*
X001100Y010008D02*
X008444Y010008D01*
X008484Y009909D02*
X001100Y009909D01*
X001100Y009811D02*
X008581Y009811D01*
X005652Y019267D02*
X001100Y019267D01*
X001100Y019365D02*
X005527Y019365D01*
X005462Y019464D02*
X001100Y019464D01*
X001100Y019562D02*
X005421Y019562D01*
X005420Y019661D02*
X001100Y019661D01*
X001100Y019759D02*
X005430Y019759D01*
X005471Y019858D02*
X001100Y019858D01*
X001100Y019956D02*
X005548Y019956D01*
X005703Y020055D02*
X001100Y020055D01*
D20*
X002150Y002150D03*
X003150Y002150D03*
X004150Y002150D03*
X005150Y002150D03*
X006150Y002150D03*
X007150Y002150D03*
X008150Y002150D03*
X009150Y002150D03*
X010150Y002150D03*
X011150Y002150D03*
X012150Y002150D03*
X013150Y002150D03*
X014150Y002150D03*
X015150Y002150D03*
X016150Y002150D03*
X017150Y002150D03*
X018150Y002150D03*
X019150Y002150D03*
X020150Y002150D03*
X021150Y002150D03*
X021150Y003150D03*
X020150Y003150D03*
X019150Y003150D03*
X018150Y003150D03*
X017150Y003150D03*
X016150Y003150D03*
X015150Y003150D03*
X014150Y003150D03*
X013150Y003150D03*
X012150Y003150D03*
X011150Y003150D03*
X010150Y003150D03*
X009150Y003150D03*
X008150Y003150D03*
X007150Y003150D03*
X006150Y003150D03*
X005150Y003150D03*
X004150Y003150D03*
X003150Y003150D03*
X002150Y003150D03*
X002150Y004150D03*
X003150Y004150D03*
X003150Y005150D03*
X002150Y005150D03*
X002150Y006150D03*
X003150Y006150D03*
X004150Y006150D03*
X005150Y006150D03*
X006150Y006150D03*
X007150Y006150D03*
X008150Y006150D03*
X009150Y006150D03*
X010150Y006150D03*
X011150Y006150D03*
X012150Y006150D03*
X013150Y006150D03*
X014150Y006150D03*
X015150Y006150D03*
X016150Y006150D03*
X017150Y006150D03*
X018150Y006150D03*
X019150Y006150D03*
X020150Y006150D03*
X021150Y006150D03*
X021150Y005150D03*
X020150Y005150D03*
X020150Y004150D03*
X021150Y004150D03*
X019150Y004150D03*
X018150Y004150D03*
X017150Y004150D03*
X017150Y005150D03*
X018150Y005150D03*
X019150Y005150D03*
X016150Y005150D03*
X015150Y005150D03*
X015150Y004150D03*
X016150Y004150D03*
X014150Y004150D03*
X013150Y004150D03*
X013150Y005150D03*
X014150Y005150D03*
X012150Y005150D03*
X011150Y005150D03*
X011150Y004150D03*
X012150Y004150D03*
X010150Y004150D03*
X009150Y004150D03*
X009150Y005150D03*
X010150Y005150D03*
X008150Y005150D03*
X007150Y005150D03*
X006150Y005150D03*
X006150Y004150D03*
X007150Y004150D03*
X008150Y004150D03*
X005150Y004150D03*
X004150Y004150D03*
X004150Y005150D03*
X005150Y005150D03*
X011150Y007150D03*
X012150Y007150D03*
X013150Y007150D03*
X014150Y007150D03*
X015150Y007150D03*
X016150Y007150D03*
X017150Y007150D03*
X018150Y007150D03*
X019150Y007150D03*
X020150Y007150D03*
X021150Y007150D03*
X020150Y008150D03*
X019150Y008150D03*
X018150Y008150D03*
X017150Y008150D03*
X016150Y008150D03*
X015150Y008150D03*
X014150Y008150D03*
X013150Y008150D03*
X012150Y008150D03*
X011150Y008150D03*
X011150Y009150D03*
X012150Y009150D03*
X013150Y009150D03*
X014150Y009150D03*
X015150Y009150D03*
X016150Y009150D03*
X017150Y009150D03*
X018150Y009150D03*
X019150Y009150D03*
X020150Y009150D03*
X020150Y010150D03*
X019150Y010150D03*
X018150Y010150D03*
X017150Y010150D03*
X016150Y010150D03*
X015150Y010150D03*
X014150Y010150D03*
X013150Y010150D03*
X012150Y010150D03*
X011150Y010150D03*
X011150Y011150D03*
X012150Y011150D03*
X013150Y011150D03*
X014150Y011150D03*
X015150Y011150D03*
X016150Y011150D03*
X017150Y011150D03*
X018150Y011150D03*
X019150Y011150D03*
X020150Y011150D03*
X020150Y012150D03*
X019150Y012150D03*
X018150Y012150D03*
X017150Y012150D03*
X016150Y012150D03*
X015150Y012150D03*
X014150Y012150D03*
X013150Y012150D03*
X012150Y012150D03*
X011150Y012150D03*
D21*
X016650Y019150D02*
X015150Y020650D01*
X008650Y020650D01*
X016650Y019150D02*
X025150Y019150D01*
M02*
