G75*
G70*
%OFA0B0*%
%FSLAX24Y24*%
%IPPOS*%
%LPD*%
%AMOC8*
5,1,8,0,0,1.08239X$1,22.5*
%
%ADD10C,0.1680*%
%ADD11C,0.0600*%
%ADD12OC8,0.0680*%
%ADD13C,0.0740*%
%ADD14C,0.1380*%
%ADD15C,0.0680*%
%ADD16C,0.0520*%
%ADD17OC8,0.0930*%
%ADD18OC8,0.0700*%
%ADD19C,0.0700*%
%ADD20C,0.0480*%
%ADD21C,0.0671*%
D10*
X004150Y008150D03*
X004150Y017150D03*
D11*
X021890Y016150D02*
X022410Y016150D01*
X022410Y015150D02*
X021890Y015150D01*
X021890Y014150D02*
X022410Y014150D01*
X022410Y013150D02*
X021890Y013150D01*
X021890Y012150D02*
X022410Y012150D01*
X022410Y011150D02*
X021890Y011150D01*
X021890Y010150D02*
X022410Y010150D01*
X022410Y009150D02*
X021890Y009150D01*
X021890Y008150D02*
X022410Y008150D01*
X022410Y007150D02*
X021890Y007150D01*
X021890Y006150D02*
X022410Y006150D01*
X022410Y005150D02*
X021890Y005150D01*
X021890Y004150D02*
X022410Y004150D01*
X022410Y003150D02*
X021890Y003150D01*
X024890Y003150D02*
X025410Y003150D01*
X025410Y004150D02*
X024890Y004150D01*
X024890Y005150D02*
X025410Y005150D01*
X025410Y006150D02*
X024890Y006150D01*
X024890Y007150D02*
X025410Y007150D01*
X025410Y008150D02*
X024890Y008150D01*
X024890Y009150D02*
X025410Y009150D01*
X025410Y010150D02*
X024890Y010150D01*
X024890Y011150D02*
X025410Y011150D01*
X025410Y012150D02*
X024890Y012150D01*
X024890Y013150D02*
X025410Y013150D01*
X025410Y014150D02*
X024890Y014150D01*
X024890Y015150D02*
X025410Y015150D01*
X025410Y016150D02*
X024890Y016150D01*
D12*
X037150Y016150D03*
X038150Y016150D03*
X038150Y015150D03*
X037150Y015150D03*
X037150Y014150D03*
X038150Y014150D03*
X038150Y013150D03*
X037150Y013150D03*
X037150Y012150D03*
X038150Y012150D03*
X038150Y011150D03*
X037150Y011150D03*
X037150Y010150D03*
X038150Y010150D03*
X038150Y009150D03*
X037150Y009150D03*
D13*
X025480Y018150D02*
X024820Y018150D01*
X024820Y019150D02*
X025480Y019150D01*
X025480Y020150D02*
X024820Y020150D01*
D14*
X031050Y019150D03*
D15*
X029450Y008150D02*
X028850Y008150D01*
X028850Y007150D02*
X029450Y007150D01*
X029450Y006150D02*
X028850Y006150D01*
X028850Y005150D02*
X029450Y005150D01*
X029450Y004150D02*
X028850Y004150D01*
X028850Y003150D02*
X029450Y003150D01*
X009450Y010150D02*
X008850Y010150D01*
X008850Y011150D02*
X009450Y011150D01*
X009450Y012150D02*
X008850Y012150D01*
X008850Y013150D02*
X009450Y013150D01*
X009450Y014150D02*
X008850Y014150D01*
X008850Y015150D02*
X009450Y015150D01*
X006450Y019650D02*
X005850Y019650D01*
X005850Y020650D02*
X006450Y020650D01*
X006450Y021650D02*
X005850Y021650D01*
X005850Y022650D02*
X006450Y022650D01*
D16*
X026930Y012650D02*
X027370Y012650D01*
X027370Y010650D02*
X026930Y010650D01*
D17*
X036456Y019150D03*
X036456Y022150D03*
D18*
X017362Y021119D03*
D19*
X017362Y020119D03*
D20*
X020150Y020150D03*
X022150Y022150D03*
X026150Y023150D03*
X023650Y018150D03*
X025150Y017150D03*
X020150Y018150D03*
X017650Y022150D03*
X008650Y020650D03*
X007150Y021650D03*
X012650Y015150D03*
X017150Y014150D03*
X018150Y014150D03*
X019150Y014150D03*
X027650Y009350D03*
X029450Y009750D03*
X030150Y008650D03*
X031750Y008950D03*
X032150Y007550D03*
X033450Y007650D03*
X031550Y006250D03*
X032850Y005950D03*
X034150Y004150D03*
X036150Y003650D03*
X036450Y004350D03*
X037450Y007850D03*
X038450Y007850D03*
X039250Y008350D03*
X036150Y008150D03*
X034350Y009050D03*
X036250Y010250D03*
X038650Y010650D03*
X038750Y012050D03*
X039050Y013050D03*
X035150Y012350D03*
X036050Y016250D03*
X030650Y003650D03*
X025350Y002550D03*
D21*
X002150Y002150D03*
X003150Y002150D03*
X004150Y002150D03*
X005150Y002150D03*
X006150Y002150D03*
X007150Y002150D03*
X008150Y002150D03*
X009150Y002150D03*
X010150Y002150D03*
X011150Y002150D03*
X012150Y002150D03*
X013150Y002150D03*
X014150Y002150D03*
X015150Y002150D03*
X016150Y002150D03*
X017150Y002150D03*
X018150Y002150D03*
X019150Y002150D03*
X020150Y002150D03*
X021150Y002150D03*
X021150Y003150D03*
X020150Y003150D03*
X019150Y003150D03*
X018150Y003150D03*
X017150Y003150D03*
X016150Y003150D03*
X015150Y003150D03*
X014150Y003150D03*
X013150Y003150D03*
X012150Y003150D03*
X011150Y003150D03*
X010150Y003150D03*
X009150Y003150D03*
X008150Y003150D03*
X007150Y003150D03*
X006150Y003150D03*
X005150Y003150D03*
X004150Y003150D03*
X003150Y003150D03*
X002150Y003150D03*
X002150Y004150D03*
X003150Y004150D03*
X003150Y005150D03*
X002150Y005150D03*
X002150Y006150D03*
X003150Y006150D03*
X004150Y006150D03*
X005150Y006150D03*
X006150Y006150D03*
X007150Y006150D03*
X008150Y006150D03*
X009150Y006150D03*
X010150Y006150D03*
X011150Y006150D03*
X012150Y006150D03*
X013150Y006150D03*
X014150Y006150D03*
X015150Y006150D03*
X016150Y006150D03*
X017150Y006150D03*
X018150Y006150D03*
X019150Y006150D03*
X020150Y006150D03*
X021150Y006150D03*
X021150Y005150D03*
X020150Y005150D03*
X020150Y004150D03*
X021150Y004150D03*
X019150Y004150D03*
X018150Y004150D03*
X017150Y004150D03*
X017150Y005150D03*
X018150Y005150D03*
X019150Y005150D03*
X016150Y005150D03*
X015150Y005150D03*
X015150Y004150D03*
X016150Y004150D03*
X014150Y004150D03*
X013150Y004150D03*
X013150Y005150D03*
X014150Y005150D03*
X012150Y005150D03*
X011150Y005150D03*
X011150Y004150D03*
X012150Y004150D03*
X010150Y004150D03*
X009150Y004150D03*
X009150Y005150D03*
X010150Y005150D03*
X008150Y005150D03*
X007150Y005150D03*
X006150Y005150D03*
X006150Y004150D03*
X007150Y004150D03*
X008150Y004150D03*
X005150Y004150D03*
X004150Y004150D03*
X004150Y005150D03*
X005150Y005150D03*
X011150Y007150D03*
X012150Y007150D03*
X013150Y007150D03*
X014150Y007150D03*
X015150Y007150D03*
X016150Y007150D03*
X017150Y007150D03*
X018150Y007150D03*
X019150Y007150D03*
X020150Y007150D03*
X021150Y007150D03*
X020150Y008150D03*
X019150Y008150D03*
X018150Y008150D03*
X017150Y008150D03*
X016150Y008150D03*
X015150Y008150D03*
X014150Y008150D03*
X013150Y008150D03*
X012150Y008150D03*
X011150Y008150D03*
X011150Y009150D03*
X012150Y009150D03*
X013150Y009150D03*
X014150Y009150D03*
X015150Y009150D03*
X016150Y009150D03*
X017150Y009150D03*
X018150Y009150D03*
X019150Y009150D03*
X020150Y009150D03*
X020150Y010150D03*
X019150Y010150D03*
X018150Y010150D03*
X017150Y010150D03*
X016150Y010150D03*
X015150Y010150D03*
X014150Y010150D03*
X013150Y010150D03*
X012150Y010150D03*
X011150Y010150D03*
X011150Y011150D03*
X012150Y011150D03*
X013150Y011150D03*
X014150Y011150D03*
X015150Y011150D03*
X016150Y011150D03*
X017150Y011150D03*
X018150Y011150D03*
X019150Y011150D03*
X020150Y011150D03*
X020150Y012150D03*
X019150Y012150D03*
X018150Y012150D03*
X017150Y012150D03*
X016150Y012150D03*
X015150Y012150D03*
X014150Y012150D03*
X013150Y012150D03*
X012150Y012150D03*
X011150Y012150D03*
M02*
