G75*
G70*
%OFA0B0*%
%FSLAX24Y24*%
%IPPOS*%
%LPD*%
%AMOC8*
5,1,8,0,0,1.08239X$1,22.5*
%
%ADD10C,0.0000*%
%ADD11C,0.0100*%
%ADD12C,0.0200*%
%ADD13C,0.0030*%
%ADD14C,0.0080*%
%ADD15C,0.0040*%
%ADD16C,0.0060*%
%ADD17C,0.0070*%
%ADD18C,0.0050*%
%ADD19R,0.0340X0.0300*%
%ADD20C,0.0020*%
%ADD21R,0.0250X0.0300*%
%ADD22R,0.1100X0.0500*%
%ADD23R,0.0200X0.0050*%
D10*
X000650Y000650D02*
X000650Y024933D01*
X040020Y024933D01*
X040020Y000650D01*
X000650Y000650D01*
X003350Y008150D02*
X003352Y008206D01*
X003358Y008263D01*
X003368Y008318D01*
X003382Y008373D01*
X003399Y008427D01*
X003421Y008479D01*
X003446Y008529D01*
X003474Y008578D01*
X003506Y008625D01*
X003541Y008669D01*
X003579Y008711D01*
X003620Y008750D01*
X003664Y008785D01*
X003710Y008818D01*
X003758Y008847D01*
X003808Y008873D01*
X003860Y008896D01*
X003914Y008914D01*
X003968Y008929D01*
X004023Y008940D01*
X004079Y008947D01*
X004136Y008950D01*
X004192Y008949D01*
X004249Y008944D01*
X004304Y008935D01*
X004359Y008922D01*
X004413Y008905D01*
X004466Y008885D01*
X004517Y008861D01*
X004566Y008833D01*
X004613Y008802D01*
X004658Y008768D01*
X004701Y008730D01*
X004740Y008690D01*
X004777Y008647D01*
X004810Y008602D01*
X004840Y008554D01*
X004867Y008504D01*
X004890Y008453D01*
X004910Y008400D01*
X004926Y008346D01*
X004938Y008290D01*
X004946Y008235D01*
X004950Y008178D01*
X004950Y008122D01*
X004946Y008065D01*
X004938Y008010D01*
X004926Y007954D01*
X004910Y007900D01*
X004890Y007847D01*
X004867Y007796D01*
X004840Y007746D01*
X004810Y007698D01*
X004777Y007653D01*
X004740Y007610D01*
X004701Y007570D01*
X004658Y007532D01*
X004613Y007498D01*
X004566Y007467D01*
X004517Y007439D01*
X004466Y007415D01*
X004413Y007395D01*
X004359Y007378D01*
X004304Y007365D01*
X004249Y007356D01*
X004192Y007351D01*
X004136Y007350D01*
X004079Y007353D01*
X004023Y007360D01*
X003968Y007371D01*
X003914Y007386D01*
X003860Y007404D01*
X003808Y007427D01*
X003758Y007453D01*
X003710Y007482D01*
X003664Y007515D01*
X003620Y007550D01*
X003579Y007589D01*
X003541Y007631D01*
X003506Y007675D01*
X003474Y007722D01*
X003446Y007771D01*
X003421Y007821D01*
X003399Y007873D01*
X003382Y007927D01*
X003368Y007982D01*
X003358Y008037D01*
X003352Y008094D01*
X003350Y008150D01*
X003350Y017150D02*
X003352Y017206D01*
X003358Y017263D01*
X003368Y017318D01*
X003382Y017373D01*
X003399Y017427D01*
X003421Y017479D01*
X003446Y017529D01*
X003474Y017578D01*
X003506Y017625D01*
X003541Y017669D01*
X003579Y017711D01*
X003620Y017750D01*
X003664Y017785D01*
X003710Y017818D01*
X003758Y017847D01*
X003808Y017873D01*
X003860Y017896D01*
X003914Y017914D01*
X003968Y017929D01*
X004023Y017940D01*
X004079Y017947D01*
X004136Y017950D01*
X004192Y017949D01*
X004249Y017944D01*
X004304Y017935D01*
X004359Y017922D01*
X004413Y017905D01*
X004466Y017885D01*
X004517Y017861D01*
X004566Y017833D01*
X004613Y017802D01*
X004658Y017768D01*
X004701Y017730D01*
X004740Y017690D01*
X004777Y017647D01*
X004810Y017602D01*
X004840Y017554D01*
X004867Y017504D01*
X004890Y017453D01*
X004910Y017400D01*
X004926Y017346D01*
X004938Y017290D01*
X004946Y017235D01*
X004950Y017178D01*
X004950Y017122D01*
X004946Y017065D01*
X004938Y017010D01*
X004926Y016954D01*
X004910Y016900D01*
X004890Y016847D01*
X004867Y016796D01*
X004840Y016746D01*
X004810Y016698D01*
X004777Y016653D01*
X004740Y016610D01*
X004701Y016570D01*
X004658Y016532D01*
X004613Y016498D01*
X004566Y016467D01*
X004517Y016439D01*
X004466Y016415D01*
X004413Y016395D01*
X004359Y016378D01*
X004304Y016365D01*
X004249Y016356D01*
X004192Y016351D01*
X004136Y016350D01*
X004079Y016353D01*
X004023Y016360D01*
X003968Y016371D01*
X003914Y016386D01*
X003860Y016404D01*
X003808Y016427D01*
X003758Y016453D01*
X003710Y016482D01*
X003664Y016515D01*
X003620Y016550D01*
X003579Y016589D01*
X003541Y016631D01*
X003506Y016675D01*
X003474Y016722D01*
X003446Y016771D01*
X003421Y016821D01*
X003399Y016873D01*
X003382Y016927D01*
X003368Y016982D01*
X003358Y017037D01*
X003352Y017094D01*
X003350Y017150D01*
X030400Y019150D02*
X030402Y019200D01*
X030408Y019250D01*
X030418Y019300D01*
X030431Y019348D01*
X030448Y019396D01*
X030469Y019442D01*
X030493Y019486D01*
X030521Y019528D01*
X030552Y019568D01*
X030586Y019605D01*
X030623Y019640D01*
X030662Y019671D01*
X030703Y019700D01*
X030747Y019725D01*
X030793Y019747D01*
X030840Y019765D01*
X030888Y019779D01*
X030937Y019790D01*
X030987Y019797D01*
X031037Y019800D01*
X031088Y019799D01*
X031138Y019794D01*
X031188Y019785D01*
X031236Y019773D01*
X031284Y019756D01*
X031330Y019736D01*
X031375Y019713D01*
X031418Y019686D01*
X031458Y019656D01*
X031496Y019623D01*
X031531Y019587D01*
X031564Y019548D01*
X031593Y019507D01*
X031619Y019464D01*
X031642Y019419D01*
X031661Y019372D01*
X031676Y019324D01*
X031688Y019275D01*
X031696Y019225D01*
X031700Y019175D01*
X031700Y019125D01*
X031696Y019075D01*
X031688Y019025D01*
X031676Y018976D01*
X031661Y018928D01*
X031642Y018881D01*
X031619Y018836D01*
X031593Y018793D01*
X031564Y018752D01*
X031531Y018713D01*
X031496Y018677D01*
X031458Y018644D01*
X031418Y018614D01*
X031375Y018587D01*
X031330Y018564D01*
X031284Y018544D01*
X031236Y018527D01*
X031188Y018515D01*
X031138Y018506D01*
X031088Y018501D01*
X031037Y018500D01*
X030987Y018503D01*
X030937Y018510D01*
X030888Y018521D01*
X030840Y018535D01*
X030793Y018553D01*
X030747Y018575D01*
X030703Y018600D01*
X030662Y018629D01*
X030623Y018660D01*
X030586Y018695D01*
X030552Y018732D01*
X030521Y018772D01*
X030493Y018814D01*
X030469Y018858D01*
X030448Y018904D01*
X030431Y018952D01*
X030418Y019000D01*
X030408Y019050D01*
X030402Y019100D01*
X030400Y019150D01*
D11*
X021650Y014150D02*
X018150Y014150D01*
X017150Y013150D01*
X017150Y012650D01*
X018150Y012650D02*
X018150Y013150D01*
X018650Y013650D01*
X021150Y013650D01*
X021650Y013150D01*
X020650Y013150D02*
X021650Y012150D01*
X020650Y012650D02*
X019650Y012650D01*
X019150Y012650D02*
X019150Y013150D01*
X020650Y013150D01*
X020650Y012650D02*
X020650Y007650D01*
X021650Y002650D02*
X021650Y001650D01*
X001650Y001650D01*
X001650Y006650D01*
X010650Y006650D01*
X010650Y012650D01*
X014650Y012650D01*
X015150Y012650D02*
X015150Y013413D01*
X015149Y013413D01*
X016146Y013413D02*
X016146Y012654D01*
X016150Y012650D01*
X006650Y010650D02*
X005150Y007650D01*
X003032Y008150D02*
X003034Y008216D01*
X003040Y008282D01*
X003050Y008348D01*
X003063Y008413D01*
X003081Y008477D01*
X003102Y008539D01*
X003127Y008601D01*
X003155Y008661D01*
X003187Y008719D01*
X003223Y008775D01*
X003261Y008828D01*
X003303Y008880D01*
X003348Y008929D01*
X003395Y008975D01*
X003446Y009018D01*
X003498Y009058D01*
X003553Y009095D01*
X003610Y009129D01*
X003669Y009159D01*
X003730Y009186D01*
X003792Y009209D01*
X003855Y009228D01*
X003920Y009244D01*
X003985Y009256D01*
X004051Y009264D01*
X004117Y009268D01*
X004183Y009268D01*
X004249Y009264D01*
X004315Y009256D01*
X004380Y009244D01*
X004445Y009228D01*
X004508Y009209D01*
X004570Y009186D01*
X004631Y009159D01*
X004690Y009129D01*
X004747Y009095D01*
X004802Y009058D01*
X004854Y009018D01*
X004905Y008975D01*
X004952Y008929D01*
X004997Y008880D01*
X005039Y008828D01*
X005077Y008775D01*
X005113Y008719D01*
X005145Y008661D01*
X005173Y008601D01*
X005198Y008539D01*
X005219Y008477D01*
X005237Y008413D01*
X005250Y008348D01*
X005260Y008282D01*
X005266Y008216D01*
X005268Y008150D01*
X005266Y008084D01*
X005260Y008018D01*
X005250Y007952D01*
X005237Y007887D01*
X005219Y007823D01*
X005198Y007761D01*
X005173Y007699D01*
X005145Y007639D01*
X005113Y007581D01*
X005077Y007525D01*
X005039Y007472D01*
X004997Y007420D01*
X004952Y007371D01*
X004905Y007325D01*
X004854Y007282D01*
X004802Y007242D01*
X004747Y007205D01*
X004690Y007171D01*
X004631Y007141D01*
X004570Y007114D01*
X004508Y007091D01*
X004445Y007072D01*
X004380Y007056D01*
X004315Y007044D01*
X004249Y007036D01*
X004183Y007032D01*
X004117Y007032D01*
X004051Y007036D01*
X003985Y007044D01*
X003920Y007056D01*
X003855Y007072D01*
X003792Y007091D01*
X003730Y007114D01*
X003669Y007141D01*
X003610Y007171D01*
X003553Y007205D01*
X003498Y007242D01*
X003446Y007282D01*
X003395Y007325D01*
X003348Y007371D01*
X003303Y007420D01*
X003261Y007472D01*
X003223Y007525D01*
X003187Y007581D01*
X003155Y007639D01*
X003127Y007699D01*
X003102Y007761D01*
X003081Y007823D01*
X003063Y007887D01*
X003050Y007952D01*
X003040Y008018D01*
X003034Y008084D01*
X003032Y008150D01*
X003150Y007650D02*
X002150Y009650D01*
X000650Y009650D01*
X000650Y011150D01*
X001150Y011150D01*
X001162Y011138D01*
X001364Y011138D01*
X001364Y011167D01*
X001650Y010650D02*
X002150Y009650D01*
X001650Y010650D02*
X001556Y010773D01*
X001469Y010900D01*
X001388Y011031D01*
X001313Y011166D01*
X001245Y011304D01*
X001183Y011446D01*
X001129Y011590D01*
X001081Y011737D01*
X001041Y011886D01*
X001007Y012037D01*
X000981Y012189D01*
X000963Y012342D01*
X000952Y012496D01*
X000948Y012650D01*
X000952Y012804D01*
X000963Y012958D01*
X000981Y013111D01*
X001007Y013263D01*
X001041Y013414D01*
X001081Y013563D01*
X001129Y013710D01*
X001183Y013854D01*
X001245Y013996D01*
X001313Y014134D01*
X001388Y014269D01*
X001469Y014400D01*
X001556Y014527D01*
X001650Y014650D01*
X003150Y017650D01*
X003032Y017150D02*
X003034Y017216D01*
X003040Y017282D01*
X003050Y017348D01*
X003063Y017413D01*
X003081Y017477D01*
X003102Y017539D01*
X003127Y017601D01*
X003155Y017661D01*
X003187Y017719D01*
X003223Y017775D01*
X003261Y017828D01*
X003303Y017880D01*
X003348Y017929D01*
X003395Y017975D01*
X003446Y018018D01*
X003498Y018058D01*
X003553Y018095D01*
X003610Y018129D01*
X003669Y018159D01*
X003730Y018186D01*
X003792Y018209D01*
X003855Y018228D01*
X003920Y018244D01*
X003985Y018256D01*
X004051Y018264D01*
X004117Y018268D01*
X004183Y018268D01*
X004249Y018264D01*
X004315Y018256D01*
X004380Y018244D01*
X004445Y018228D01*
X004508Y018209D01*
X004570Y018186D01*
X004631Y018159D01*
X004690Y018129D01*
X004747Y018095D01*
X004802Y018058D01*
X004854Y018018D01*
X004905Y017975D01*
X004952Y017929D01*
X004997Y017880D01*
X005039Y017828D01*
X005077Y017775D01*
X005113Y017719D01*
X005145Y017661D01*
X005173Y017601D01*
X005198Y017539D01*
X005219Y017477D01*
X005237Y017413D01*
X005250Y017348D01*
X005260Y017282D01*
X005266Y017216D01*
X005268Y017150D01*
X005266Y017084D01*
X005260Y017018D01*
X005250Y016952D01*
X005237Y016887D01*
X005219Y016823D01*
X005198Y016761D01*
X005173Y016699D01*
X005145Y016639D01*
X005113Y016581D01*
X005077Y016525D01*
X005039Y016472D01*
X004997Y016420D01*
X004952Y016371D01*
X004905Y016325D01*
X004854Y016282D01*
X004802Y016242D01*
X004747Y016205D01*
X004690Y016171D01*
X004631Y016141D01*
X004570Y016114D01*
X004508Y016091D01*
X004445Y016072D01*
X004380Y016056D01*
X004315Y016044D01*
X004249Y016036D01*
X004183Y016032D01*
X004117Y016032D01*
X004051Y016036D01*
X003985Y016044D01*
X003920Y016056D01*
X003855Y016072D01*
X003792Y016091D01*
X003730Y016114D01*
X003669Y016141D01*
X003610Y016171D01*
X003553Y016205D01*
X003498Y016242D01*
X003446Y016282D01*
X003395Y016325D01*
X003348Y016371D01*
X003303Y016420D01*
X003261Y016472D01*
X003223Y016525D01*
X003187Y016581D01*
X003155Y016639D01*
X003127Y016699D01*
X003102Y016761D01*
X003081Y016823D01*
X003063Y016887D01*
X003050Y016952D01*
X003040Y017018D01*
X003034Y017084D01*
X003032Y017150D01*
X005150Y017650D02*
X006650Y014650D01*
X006744Y014527D01*
X006831Y014400D01*
X006912Y014269D01*
X006987Y014134D01*
X007055Y013996D01*
X007117Y013854D01*
X007171Y013710D01*
X007219Y013563D01*
X007259Y013414D01*
X007293Y013263D01*
X007319Y013111D01*
X007337Y012958D01*
X007348Y012804D01*
X007352Y012650D01*
X007348Y012496D01*
X007337Y012342D01*
X007319Y012189D01*
X007293Y012037D01*
X007259Y011886D01*
X007219Y011737D01*
X007171Y011590D01*
X007117Y011446D01*
X007055Y011304D01*
X006987Y011166D01*
X006912Y011031D01*
X006831Y010900D01*
X006744Y010773D01*
X006650Y010650D01*
X005150Y019150D02*
X003650Y019150D01*
X003650Y019650D01*
X000650Y019650D01*
X000650Y022650D01*
X003650Y022650D01*
X003650Y023150D01*
X005150Y023150D01*
X005150Y019150D01*
X003650Y019650D02*
X003650Y022650D01*
D12*
X014650Y013150D02*
X014650Y012650D01*
X015650Y012650D02*
X015650Y013150D01*
X016650Y013150D02*
X016650Y012650D01*
X017650Y012650D02*
X017650Y013150D01*
X018650Y013150D02*
X018650Y012650D01*
X020650Y007650D02*
X021650Y007650D01*
X021650Y006650D02*
X020650Y006650D01*
X020650Y005650D02*
X021650Y005650D01*
X021650Y004650D02*
X020650Y004650D01*
X020650Y003650D02*
X021650Y003650D01*
X021650Y002650D02*
X020650Y002650D01*
D13*
X016584Y013597D02*
X016646Y013659D01*
X016646Y013906D01*
X016584Y013967D01*
X016399Y013967D01*
X016399Y013597D01*
X016584Y013597D01*
X016278Y013597D02*
X016278Y013967D01*
X016031Y013967D02*
X016278Y013597D01*
X016031Y013597D02*
X016031Y013967D01*
X015909Y013906D02*
X015848Y013967D01*
X015724Y013967D01*
X015663Y013906D01*
X015663Y013659D01*
X015724Y013597D01*
X015848Y013597D01*
X015909Y013659D01*
X015909Y013782D01*
X015786Y013782D01*
X015499Y013789D02*
X015499Y013665D01*
X015437Y013604D01*
X015314Y013604D01*
X015252Y013665D01*
X015252Y013789D02*
X015376Y013850D01*
X015437Y013850D01*
X015499Y013789D01*
X015499Y013974D02*
X015252Y013974D01*
X015252Y013789D01*
X015131Y013789D02*
X014884Y013789D01*
X015007Y013912D02*
X015007Y013665D01*
D14*
X014908Y019690D02*
X014294Y019690D01*
X014601Y019690D02*
X014601Y020611D01*
X014294Y020304D01*
X013987Y020457D02*
X013373Y019843D01*
X013527Y019690D01*
X013834Y019690D01*
X013987Y019843D01*
X013987Y020457D01*
X013834Y020611D01*
X013527Y020611D01*
X013373Y020457D01*
X013373Y019843D01*
X013066Y019690D02*
X012452Y019690D01*
X013066Y020304D01*
X013066Y020457D01*
X012913Y020611D01*
X012606Y020611D01*
X012452Y020457D01*
X012145Y020457D02*
X011992Y020611D01*
X011685Y020611D01*
X011532Y020457D01*
X011532Y019843D01*
X011685Y019690D01*
X011992Y019690D01*
X012145Y019843D01*
X011225Y019843D02*
X011071Y019690D01*
X010611Y019690D01*
X010611Y020611D01*
X011071Y020611D01*
X011225Y020457D01*
X011225Y020304D01*
X011071Y020150D01*
X010611Y020150D01*
X011071Y020150D02*
X011225Y019997D01*
X011225Y019843D01*
X010304Y019690D02*
X009690Y019690D01*
X009690Y020611D01*
X010304Y020611D01*
X009997Y020150D02*
X009690Y020150D01*
X015215Y019843D02*
X015368Y019690D01*
X015675Y019690D01*
X015829Y019843D01*
X015829Y019997D01*
X015675Y020150D01*
X015522Y020150D01*
X015675Y020150D02*
X015829Y020304D01*
X015829Y020457D01*
X015675Y020611D01*
X015368Y020611D01*
X015215Y020457D01*
X018860Y020800D02*
X018860Y023160D01*
X021440Y023160D02*
X021440Y020800D01*
X018860Y020800D01*
D15*
X018630Y021712D02*
X018553Y021712D01*
X018246Y022019D01*
X018170Y022019D01*
X018170Y021712D01*
X018246Y022172D02*
X018323Y022172D01*
X018400Y022249D01*
X018400Y022403D01*
X018477Y022479D01*
X018553Y022479D01*
X018630Y022403D01*
X018630Y022249D01*
X018553Y022172D01*
X018477Y022172D01*
X018400Y022249D01*
X018400Y022403D02*
X018323Y022479D01*
X018246Y022479D01*
X018170Y022403D01*
X018170Y022249D01*
X018246Y022172D01*
X018246Y022633D02*
X018170Y022710D01*
X018170Y022863D01*
X018246Y022940D01*
X018553Y022633D01*
X018630Y022710D01*
X018630Y022863D01*
X018553Y022940D01*
X018246Y022940D01*
X018170Y023093D02*
X018400Y023093D01*
X018323Y023247D01*
X018323Y023323D01*
X018400Y023400D01*
X018553Y023400D01*
X018630Y023323D01*
X018630Y023170D01*
X018553Y023093D01*
X018170Y023093D02*
X018170Y023400D01*
X018246Y022633D02*
X018553Y022633D01*
X022759Y021071D02*
X022759Y020764D01*
X022836Y020688D01*
X022989Y020688D01*
X023066Y020764D01*
X023219Y020764D02*
X023219Y020688D01*
X023219Y020764D02*
X023526Y021071D01*
X023526Y021148D01*
X023219Y021148D01*
X023066Y021071D02*
X022989Y021148D01*
X022836Y021148D01*
X022759Y021071D01*
X024012Y021421D02*
X024012Y021881D01*
X024242Y021881D01*
X024319Y021805D01*
X024319Y021651D01*
X024242Y021574D01*
X024012Y021574D01*
X024166Y021574D02*
X024319Y021421D01*
X024473Y021498D02*
X024549Y021421D01*
X024703Y021421D01*
X024780Y021498D01*
X024780Y021651D01*
X024703Y021728D01*
X024626Y021728D01*
X024473Y021651D01*
X024473Y021881D01*
X024780Y021881D01*
X024636Y022876D02*
X024713Y022953D01*
X024713Y023030D01*
X024636Y023107D01*
X024406Y023107D01*
X024406Y022953D01*
X024483Y022876D01*
X024636Y022876D01*
X024406Y023107D02*
X024559Y023260D01*
X024713Y023337D01*
X024252Y023260D02*
X024252Y023107D01*
X024176Y023030D01*
X023945Y023030D01*
X023945Y022876D02*
X023945Y023337D01*
X024176Y023337D01*
X024252Y023260D01*
X024099Y023030D02*
X024252Y022876D01*
X023371Y018652D02*
X023217Y018652D01*
X023141Y018575D01*
X022987Y018575D02*
X022910Y018652D01*
X022757Y018652D01*
X022680Y018575D01*
X022680Y018268D01*
X022757Y018192D01*
X022910Y018192D01*
X022987Y018268D01*
X023141Y018268D02*
X023217Y018192D01*
X023371Y018192D01*
X023448Y018268D01*
X023448Y018345D01*
X023371Y018422D01*
X023294Y018422D01*
X023371Y018422D02*
X023448Y018499D01*
X023448Y018575D01*
X023371Y018652D01*
X016536Y018747D02*
X016460Y018823D01*
X016306Y018823D01*
X016229Y018900D01*
X016306Y018977D01*
X016536Y018977D01*
X016536Y018747D02*
X016460Y018670D01*
X016229Y018670D01*
X016076Y018823D02*
X015769Y018823D01*
X015769Y018747D02*
X015769Y018900D01*
X015846Y018977D01*
X015999Y018977D01*
X016076Y018900D01*
X016076Y018823D01*
X015999Y018670D02*
X015846Y018670D01*
X015769Y018747D01*
X015615Y018670D02*
X015385Y018670D01*
X015309Y018747D01*
X015309Y018900D01*
X015385Y018977D01*
X015615Y018977D01*
X015615Y019130D02*
X015615Y018670D01*
X015155Y018823D02*
X015155Y018900D01*
X015078Y018977D01*
X014925Y018977D01*
X014848Y018900D01*
X014848Y018747D01*
X014925Y018670D01*
X015078Y018670D01*
X015155Y018823D02*
X014848Y018823D01*
X014695Y018670D02*
X014541Y018670D01*
X014618Y018670D02*
X014618Y018977D01*
X014541Y018977D01*
X014618Y019130D02*
X014618Y019207D01*
X014081Y019130D02*
X014081Y018670D01*
X014388Y018670D01*
X013927Y018900D02*
X013620Y018900D01*
X013467Y018900D02*
X013390Y018977D01*
X013237Y018977D01*
X013160Y018900D01*
X013160Y018747D01*
X013237Y018670D01*
X013390Y018670D01*
X013467Y018747D01*
X013467Y018900D01*
X013007Y018977D02*
X012776Y018823D01*
X013007Y018670D01*
X012776Y018670D02*
X012776Y019130D01*
X012623Y018977D02*
X012393Y018823D01*
X012623Y018670D01*
X012393Y018670D02*
X012393Y019130D01*
X012239Y018977D02*
X012239Y018670D01*
X012009Y018670D01*
X011932Y018747D01*
X011932Y018977D01*
X011779Y019130D02*
X011472Y018823D01*
X011549Y018900D02*
X011779Y018670D01*
X011472Y018670D02*
X011472Y019130D01*
X010858Y018900D02*
X010858Y018823D01*
X010551Y018823D01*
X010551Y018747D02*
X010551Y018900D01*
X010628Y018977D01*
X010781Y018977D01*
X010858Y018900D01*
X010781Y018670D02*
X010628Y018670D01*
X010551Y018747D01*
X010398Y018670D02*
X010244Y018670D01*
X010321Y018670D02*
X010321Y019130D01*
X010244Y019130D01*
X010014Y019130D02*
X010014Y018670D01*
X009937Y018670D02*
X010091Y018670D01*
X009784Y018670D02*
X009630Y018670D01*
X009707Y018670D02*
X009707Y018977D01*
X009630Y018977D01*
X009707Y019130D02*
X009707Y019207D01*
X009477Y019130D02*
X009477Y018823D01*
X009323Y018670D01*
X009170Y018823D01*
X009170Y019130D01*
X009937Y019130D02*
X010014Y019130D01*
X012170Y017977D02*
X012170Y017670D01*
X012170Y017823D02*
X012323Y017977D01*
X012400Y017977D01*
X012554Y017900D02*
X012630Y017977D01*
X012784Y017977D01*
X012861Y017900D01*
X012861Y017823D01*
X012554Y017823D01*
X012554Y017747D02*
X012554Y017900D01*
X012554Y017747D02*
X012630Y017670D01*
X012784Y017670D01*
X013014Y017977D02*
X013168Y017670D01*
X013321Y017977D01*
X013474Y017900D02*
X013705Y017900D01*
X013781Y017823D01*
X013781Y017747D01*
X013705Y017670D01*
X013474Y017670D01*
X013474Y018130D01*
X013705Y018130D01*
X013781Y018054D01*
X013781Y017977D01*
X013705Y017900D01*
X010730Y016011D02*
X010730Y015857D01*
X010653Y015780D01*
X010577Y015780D01*
X010500Y015857D01*
X010500Y016011D01*
X010577Y016087D01*
X010653Y016087D01*
X010730Y016011D01*
X010500Y016011D02*
X010423Y016087D01*
X010346Y016087D01*
X010270Y016011D01*
X010270Y015857D01*
X010346Y015780D01*
X010423Y015780D01*
X010500Y015857D01*
X010653Y015627D02*
X010730Y015550D01*
X010730Y015397D01*
X010653Y015320D01*
X010346Y015320D01*
X010270Y015397D01*
X010270Y015550D01*
X010346Y015627D01*
X011770Y014471D02*
X011846Y014548D01*
X012153Y014241D01*
X012230Y014318D01*
X012230Y014471D01*
X012153Y014548D01*
X011846Y014548D01*
X011770Y014471D02*
X011770Y014318D01*
X011846Y014241D01*
X012153Y014241D01*
X012230Y014087D02*
X012230Y013780D01*
X012230Y013934D02*
X011770Y013934D01*
X011923Y013780D01*
X011846Y013627D02*
X011770Y013550D01*
X011770Y013397D01*
X011846Y013320D01*
X012153Y013320D01*
X012230Y013397D01*
X012230Y013550D01*
X012153Y013627D01*
X010730Y013550D02*
X010730Y013397D01*
X010653Y013320D01*
X010346Y013320D01*
X010270Y013397D01*
X010270Y013550D01*
X010346Y013627D01*
X010346Y013780D02*
X010423Y013780D01*
X010500Y013857D01*
X010500Y014087D01*
X010653Y014087D02*
X010346Y014087D01*
X010270Y014011D01*
X010270Y013857D01*
X010346Y013780D01*
X010653Y013780D02*
X010730Y013857D01*
X010730Y014011D01*
X010653Y014087D01*
X010653Y013627D02*
X010730Y013550D01*
X008946Y021265D02*
X008486Y021265D01*
X008486Y021495D01*
X008563Y021572D01*
X008870Y021572D01*
X008946Y021495D01*
X008946Y021265D01*
X008946Y021725D02*
X008946Y022032D01*
X008946Y021879D02*
X008486Y021879D01*
X008639Y021725D01*
X028641Y013567D02*
X028641Y013260D01*
X028717Y013183D01*
X028871Y013183D01*
X028948Y013260D01*
X029101Y013183D02*
X029408Y013490D01*
X029408Y013567D01*
X029331Y013644D01*
X029178Y013644D01*
X029101Y013567D01*
X028948Y013567D02*
X028871Y013644D01*
X028717Y013644D01*
X028641Y013567D01*
X029101Y013183D02*
X029408Y013183D01*
X029265Y011613D02*
X029265Y011153D01*
X029418Y011153D02*
X029111Y011153D01*
X028958Y011229D02*
X028881Y011153D01*
X028728Y011153D01*
X028651Y011229D01*
X028651Y011536D01*
X028728Y011613D01*
X028881Y011613D01*
X028958Y011536D01*
X029111Y011459D02*
X029265Y011613D01*
X029770Y008137D02*
X029846Y008137D01*
X030153Y007830D01*
X030230Y007830D01*
X030230Y007677D02*
X030077Y007523D01*
X030077Y007600D02*
X030077Y007370D01*
X030230Y007370D02*
X029770Y007370D01*
X029770Y007600D01*
X029846Y007677D01*
X030000Y007677D01*
X030077Y007600D01*
X029770Y007830D02*
X029770Y008137D01*
X027388Y008134D02*
X027081Y008134D01*
X027081Y007904D01*
X027234Y007981D01*
X027311Y007981D01*
X027388Y007904D01*
X027388Y007750D01*
X027311Y007674D01*
X027158Y007674D01*
X027081Y007750D01*
X026927Y007750D02*
X026851Y007674D01*
X026697Y007674D01*
X026620Y007750D01*
X026620Y008057D01*
X026697Y008134D01*
X026851Y008134D01*
X026927Y008057D01*
X034731Y008605D02*
X034731Y009065D01*
X034961Y009065D01*
X035038Y008989D01*
X035038Y008835D01*
X034961Y008758D01*
X034731Y008758D01*
X034884Y008758D02*
X035038Y008605D01*
X035191Y008835D02*
X035498Y008835D01*
X035422Y008605D02*
X035422Y009065D01*
X035191Y008835D01*
X034976Y010136D02*
X035053Y010213D01*
X034976Y010136D02*
X034822Y010136D01*
X034746Y010213D01*
X034746Y010520D01*
X034822Y010596D01*
X034976Y010596D01*
X035053Y010520D01*
X035206Y010366D02*
X035436Y010596D01*
X035436Y010136D01*
X035513Y010366D02*
X035206Y010366D01*
X027461Y002582D02*
X027461Y002122D01*
X027308Y002122D02*
X027615Y002122D01*
X027308Y002428D02*
X027461Y002582D01*
X027001Y002582D02*
X027001Y002122D01*
X027154Y002122D02*
X026847Y002122D01*
X026694Y002198D02*
X026617Y002122D01*
X026464Y002122D01*
X026387Y002198D01*
X026387Y002505D01*
X026464Y002582D01*
X026617Y002582D01*
X026694Y002505D01*
X026847Y002428D02*
X027001Y002582D01*
D16*
X028650Y002900D02*
X028900Y002650D01*
X029400Y002650D01*
X029650Y002900D01*
X029650Y003400D01*
X029400Y003650D01*
X029650Y003900D01*
X029650Y004400D01*
X029400Y004650D01*
X029650Y004900D01*
X029650Y005400D01*
X029400Y005650D01*
X029650Y005900D01*
X029650Y006400D01*
X029400Y006650D01*
X029650Y006900D01*
X029650Y007400D01*
X029400Y007650D01*
X029650Y007900D01*
X029650Y008400D01*
X029400Y008650D01*
X028900Y008650D01*
X028650Y008400D01*
X028650Y007900D01*
X028900Y007650D01*
X028650Y007400D01*
X028650Y006900D01*
X028900Y006650D01*
X028650Y006400D01*
X028650Y005900D01*
X028900Y005650D01*
X028650Y005400D01*
X028650Y004900D01*
X028900Y004650D01*
X028650Y004400D01*
X028650Y003900D01*
X028900Y003650D01*
X028650Y003400D01*
X028650Y002900D01*
X032100Y003330D02*
X032100Y004150D01*
X032100Y005150D01*
X032100Y005970D01*
X032102Y005993D01*
X032107Y006016D01*
X032116Y006038D01*
X032129Y006058D01*
X032144Y006076D01*
X032162Y006091D01*
X032182Y006104D01*
X032204Y006113D01*
X032227Y006118D01*
X032250Y006120D01*
X038050Y006120D01*
X038073Y006118D01*
X038096Y006113D01*
X038118Y006104D01*
X038138Y006091D01*
X038156Y006076D01*
X038171Y006058D01*
X038184Y006038D01*
X038193Y006016D01*
X038198Y005993D01*
X038200Y005970D01*
X038200Y003330D01*
X038198Y003307D01*
X038193Y003284D01*
X038184Y003262D01*
X038171Y003242D01*
X038156Y003224D01*
X038138Y003209D01*
X038118Y003196D01*
X038096Y003187D01*
X038073Y003182D01*
X038050Y003180D01*
X032250Y003180D01*
X032227Y003182D01*
X032204Y003187D01*
X032182Y003196D01*
X032162Y003209D01*
X032144Y003224D01*
X032129Y003242D01*
X032116Y003262D01*
X032107Y003284D01*
X032102Y003307D01*
X032100Y003330D01*
X032100Y004150D02*
X032144Y004152D01*
X032187Y004158D01*
X032229Y004167D01*
X032271Y004180D01*
X032311Y004197D01*
X032350Y004217D01*
X032387Y004240D01*
X032421Y004267D01*
X032454Y004296D01*
X032483Y004329D01*
X032510Y004363D01*
X032533Y004400D01*
X032553Y004439D01*
X032570Y004479D01*
X032583Y004521D01*
X032592Y004563D01*
X032598Y004606D01*
X032600Y004650D01*
X032598Y004694D01*
X032592Y004737D01*
X032583Y004779D01*
X032570Y004821D01*
X032553Y004861D01*
X032533Y004900D01*
X032510Y004937D01*
X032483Y004971D01*
X032454Y005004D01*
X032421Y005033D01*
X032387Y005060D01*
X032350Y005083D01*
X032311Y005103D01*
X032271Y005120D01*
X032229Y005133D01*
X032187Y005142D01*
X032144Y005148D01*
X032100Y005150D01*
X036650Y008900D02*
X036900Y008650D01*
X038400Y008650D01*
X038650Y008900D01*
X038650Y009400D01*
X038400Y009650D01*
X038650Y009900D01*
X038650Y010400D01*
X038400Y010650D01*
X038650Y010900D01*
X038650Y011400D01*
X038400Y011650D01*
X038650Y011900D01*
X038650Y012400D01*
X038400Y012650D01*
X038650Y012900D01*
X038650Y013400D01*
X038400Y013650D01*
X038650Y013900D01*
X038650Y014400D01*
X038400Y014650D01*
X038650Y014900D01*
X038650Y015400D01*
X038400Y015650D01*
X038650Y015900D01*
X038650Y016400D01*
X038400Y016650D01*
X036900Y016650D01*
X036650Y016400D01*
X036650Y015900D01*
X036900Y015650D01*
X036650Y015400D01*
X036650Y014900D01*
X036900Y014650D01*
X036650Y014400D01*
X036650Y013900D01*
X036900Y013650D01*
X036650Y013400D01*
X036650Y012900D01*
X036900Y012650D01*
X036650Y012400D01*
X036650Y011900D01*
X036900Y011650D01*
X036650Y011400D01*
X036650Y010900D01*
X036900Y010650D01*
X036650Y010400D01*
X036650Y009900D01*
X036900Y009650D01*
X036650Y009400D01*
X036650Y008900D01*
X028050Y010300D02*
X028050Y013000D01*
X028048Y013059D01*
X028042Y013117D01*
X028033Y013176D01*
X028019Y013233D01*
X028002Y013289D01*
X027981Y013344D01*
X027957Y013398D01*
X027929Y013450D01*
X027898Y013500D01*
X027864Y013548D01*
X027827Y013593D01*
X027786Y013636D01*
X027743Y013677D01*
X027698Y013714D01*
X027650Y013748D01*
X027600Y013779D01*
X027548Y013807D01*
X027494Y013831D01*
X027439Y013852D01*
X027383Y013869D01*
X027326Y013883D01*
X027267Y013892D01*
X027209Y013898D01*
X027150Y013900D01*
X027091Y013898D01*
X027033Y013892D01*
X026974Y013883D01*
X026917Y013869D01*
X026861Y013852D01*
X026806Y013831D01*
X026752Y013807D01*
X026700Y013779D01*
X026650Y013748D01*
X026602Y013714D01*
X026557Y013677D01*
X026514Y013636D01*
X026473Y013593D01*
X026436Y013548D01*
X026402Y013500D01*
X026371Y013450D01*
X026343Y013398D01*
X026319Y013344D01*
X026298Y013289D01*
X026281Y013233D01*
X026267Y013176D01*
X026258Y013117D01*
X026252Y013059D01*
X026250Y013000D01*
X026250Y010300D01*
X026252Y010241D01*
X026258Y010183D01*
X026267Y010124D01*
X026281Y010067D01*
X026298Y010011D01*
X026319Y009956D01*
X026343Y009902D01*
X026371Y009850D01*
X026402Y009800D01*
X026436Y009752D01*
X026473Y009707D01*
X026514Y009664D01*
X026557Y009623D01*
X026602Y009586D01*
X026650Y009552D01*
X026700Y009521D01*
X026752Y009493D01*
X026806Y009469D01*
X026861Y009448D01*
X026917Y009431D01*
X026974Y009417D01*
X027033Y009408D01*
X027091Y009402D01*
X027150Y009400D01*
X027209Y009402D01*
X027267Y009408D01*
X027326Y009417D01*
X027383Y009431D01*
X027439Y009448D01*
X027494Y009469D01*
X027548Y009493D01*
X027600Y009521D01*
X027650Y009552D01*
X027698Y009586D01*
X027743Y009623D01*
X027786Y009664D01*
X027827Y009707D01*
X027864Y009752D01*
X027898Y009800D01*
X027929Y009850D01*
X027957Y009902D01*
X027981Y009956D01*
X028002Y010011D01*
X028019Y010067D01*
X028033Y010124D01*
X028042Y010183D01*
X028048Y010241D01*
X028050Y010300D01*
X024650Y016650D02*
X022650Y016650D01*
X022650Y002650D01*
X023150Y002650D01*
X023152Y002694D01*
X023158Y002737D01*
X023167Y002779D01*
X023180Y002821D01*
X023197Y002861D01*
X023217Y002900D01*
X023240Y002937D01*
X023267Y002971D01*
X023296Y003004D01*
X023329Y003033D01*
X023363Y003060D01*
X023400Y003083D01*
X023439Y003103D01*
X023479Y003120D01*
X023521Y003133D01*
X023563Y003142D01*
X023606Y003148D01*
X023650Y003150D01*
X023694Y003148D01*
X023737Y003142D01*
X023779Y003133D01*
X023821Y003120D01*
X023861Y003103D01*
X023900Y003083D01*
X023937Y003060D01*
X023971Y003033D01*
X024004Y003004D01*
X024033Y002971D01*
X024060Y002937D01*
X024083Y002900D01*
X024103Y002861D01*
X024120Y002821D01*
X024133Y002779D01*
X024142Y002737D01*
X024148Y002694D01*
X024150Y002650D01*
X024650Y002650D01*
X024650Y002700D02*
X024650Y016650D01*
X026150Y017100D02*
X031050Y017100D01*
X031050Y017450D01*
X031650Y017450D01*
X031650Y017100D01*
X032400Y017100D01*
X032400Y021200D01*
X031650Y021200D01*
X031650Y020850D01*
X031050Y020850D01*
X031050Y021200D01*
X026150Y021200D01*
X026150Y017100D01*
X030340Y019150D02*
X030342Y019203D01*
X030348Y019256D01*
X030358Y019308D01*
X030372Y019359D01*
X030389Y019409D01*
X030410Y019458D01*
X030435Y019505D01*
X030463Y019550D01*
X030495Y019593D01*
X030530Y019633D01*
X030567Y019670D01*
X030607Y019705D01*
X030650Y019737D01*
X030695Y019765D01*
X030742Y019790D01*
X030791Y019811D01*
X030841Y019828D01*
X030892Y019842D01*
X030944Y019852D01*
X030997Y019858D01*
X031050Y019860D01*
X031103Y019858D01*
X031156Y019852D01*
X031208Y019842D01*
X031259Y019828D01*
X031309Y019811D01*
X031358Y019790D01*
X031405Y019765D01*
X031450Y019737D01*
X031493Y019705D01*
X031533Y019670D01*
X031570Y019633D01*
X031605Y019593D01*
X031637Y019550D01*
X031665Y019505D01*
X031690Y019458D01*
X031711Y019409D01*
X031728Y019359D01*
X031742Y019308D01*
X031752Y019256D01*
X031758Y019203D01*
X031760Y019150D01*
X031758Y019097D01*
X031752Y019044D01*
X031742Y018992D01*
X031728Y018941D01*
X031711Y018891D01*
X031690Y018842D01*
X031665Y018795D01*
X031637Y018750D01*
X031605Y018707D01*
X031570Y018667D01*
X031533Y018630D01*
X031493Y018595D01*
X031450Y018563D01*
X031405Y018535D01*
X031358Y018510D01*
X031309Y018489D01*
X031259Y018472D01*
X031208Y018458D01*
X031156Y018448D01*
X031103Y018442D01*
X031050Y018440D01*
X030997Y018442D01*
X030944Y018448D01*
X030892Y018458D01*
X030841Y018472D01*
X030791Y018489D01*
X030742Y018510D01*
X030695Y018535D01*
X030650Y018563D01*
X030607Y018595D01*
X030567Y018630D01*
X030530Y018667D01*
X030495Y018707D01*
X030463Y018750D01*
X030435Y018795D01*
X030410Y018842D01*
X030389Y018891D01*
X030372Y018941D01*
X030358Y018992D01*
X030348Y019044D01*
X030342Y019097D01*
X030340Y019150D01*
X035956Y020650D02*
X035958Y020694D01*
X035964Y020738D01*
X035974Y020781D01*
X035987Y020823D01*
X036004Y020864D01*
X036025Y020903D01*
X036049Y020940D01*
X036076Y020975D01*
X036106Y021007D01*
X036139Y021037D01*
X036175Y021063D01*
X036212Y021087D01*
X036252Y021106D01*
X036293Y021123D01*
X036336Y021135D01*
X036379Y021144D01*
X036423Y021149D01*
X036467Y021150D01*
X036511Y021147D01*
X036555Y021140D01*
X036598Y021129D01*
X036640Y021115D01*
X036680Y021097D01*
X036719Y021075D01*
X036755Y021051D01*
X036789Y021023D01*
X036821Y020992D01*
X036850Y020958D01*
X036876Y020922D01*
X036898Y020884D01*
X036917Y020844D01*
X036932Y020802D01*
X036944Y020760D01*
X036952Y020716D01*
X036956Y020672D01*
X036956Y020628D01*
X036952Y020584D01*
X036944Y020540D01*
X036932Y020498D01*
X036917Y020456D01*
X036898Y020416D01*
X036876Y020378D01*
X036850Y020342D01*
X036821Y020308D01*
X036789Y020277D01*
X036755Y020249D01*
X036719Y020225D01*
X036680Y020203D01*
X036640Y020185D01*
X036598Y020171D01*
X036555Y020160D01*
X036511Y020153D01*
X036467Y020150D01*
X036423Y020151D01*
X036379Y020156D01*
X036336Y020165D01*
X036293Y020177D01*
X036252Y020194D01*
X036212Y020213D01*
X036175Y020237D01*
X036139Y020263D01*
X036106Y020293D01*
X036076Y020325D01*
X036049Y020360D01*
X036025Y020397D01*
X036004Y020436D01*
X035987Y020477D01*
X035974Y020519D01*
X035964Y020562D01*
X035958Y020606D01*
X035956Y020650D01*
X034056Y020650D02*
X034059Y020768D01*
X034068Y020885D01*
X034082Y021002D01*
X034102Y021118D01*
X034128Y021233D01*
X034159Y021347D01*
X034196Y021459D01*
X034239Y021568D01*
X034286Y021676D01*
X034339Y021781D01*
X034397Y021884D01*
X034460Y021983D01*
X034528Y022080D01*
X034601Y022173D01*
X034678Y022262D01*
X034759Y022347D01*
X034844Y022428D01*
X034933Y022505D01*
X035026Y022578D01*
X035123Y022646D01*
X035222Y022709D01*
X035325Y022767D01*
X035430Y022820D01*
X035538Y022867D01*
X035647Y022910D01*
X035759Y022947D01*
X035873Y022978D01*
X035988Y023004D01*
X036104Y023024D01*
X036221Y023038D01*
X036338Y023047D01*
X036456Y023050D01*
X036574Y023047D01*
X036691Y023038D01*
X036808Y023024D01*
X036924Y023004D01*
X037039Y022978D01*
X037153Y022947D01*
X037265Y022910D01*
X037374Y022867D01*
X037482Y022820D01*
X037587Y022767D01*
X037690Y022709D01*
X037789Y022646D01*
X037886Y022578D01*
X037979Y022505D01*
X038068Y022428D01*
X038153Y022347D01*
X038234Y022262D01*
X038311Y022173D01*
X038384Y022080D01*
X038452Y021983D01*
X038515Y021884D01*
X038573Y021781D01*
X038626Y021676D01*
X038673Y021568D01*
X038716Y021459D01*
X038753Y021347D01*
X038784Y021233D01*
X038810Y021118D01*
X038830Y021002D01*
X038844Y020885D01*
X038853Y020768D01*
X038856Y020650D01*
X038853Y020532D01*
X038844Y020415D01*
X038830Y020298D01*
X038810Y020182D01*
X038784Y020067D01*
X038753Y019953D01*
X038716Y019841D01*
X038673Y019732D01*
X038626Y019624D01*
X038573Y019519D01*
X038515Y019416D01*
X038452Y019317D01*
X038384Y019220D01*
X038311Y019127D01*
X038234Y019038D01*
X038153Y018953D01*
X038068Y018872D01*
X037979Y018795D01*
X037886Y018722D01*
X037789Y018654D01*
X037690Y018591D01*
X037587Y018533D01*
X037482Y018480D01*
X037374Y018433D01*
X037265Y018390D01*
X037153Y018353D01*
X037039Y018322D01*
X036924Y018296D01*
X036808Y018276D01*
X036691Y018262D01*
X036574Y018253D01*
X036456Y018250D01*
X036338Y018253D01*
X036221Y018262D01*
X036104Y018276D01*
X035988Y018296D01*
X035873Y018322D01*
X035759Y018353D01*
X035647Y018390D01*
X035538Y018433D01*
X035430Y018480D01*
X035325Y018533D01*
X035222Y018591D01*
X035123Y018654D01*
X035026Y018722D01*
X034933Y018795D01*
X034844Y018872D01*
X034759Y018953D01*
X034678Y019038D01*
X034601Y019127D01*
X034528Y019220D01*
X034460Y019317D01*
X034397Y019416D01*
X034339Y019519D01*
X034286Y019624D01*
X034239Y019732D01*
X034196Y019841D01*
X034159Y019953D01*
X034128Y020067D01*
X034102Y020182D01*
X034082Y020298D01*
X034068Y020415D01*
X034059Y020532D01*
X034056Y020650D01*
X037306Y019150D02*
X037606Y019150D01*
X037156Y019150D02*
X037158Y019184D01*
X037164Y019218D01*
X037173Y019251D01*
X037187Y019282D01*
X037204Y019312D01*
X037224Y019340D01*
X037247Y019365D01*
X037273Y019388D01*
X037301Y019407D01*
X037331Y019423D01*
X037363Y019435D01*
X037396Y019444D01*
X037430Y019449D01*
X037465Y019450D01*
X037499Y019447D01*
X037532Y019440D01*
X037565Y019430D01*
X037596Y019415D01*
X037625Y019398D01*
X037652Y019377D01*
X037677Y019353D01*
X037699Y019326D01*
X037717Y019298D01*
X037732Y019267D01*
X037744Y019235D01*
X037752Y019201D01*
X037756Y019167D01*
X037756Y019133D01*
X037752Y019099D01*
X037744Y019065D01*
X037732Y019033D01*
X037717Y019002D01*
X037699Y018974D01*
X037677Y018947D01*
X037652Y018923D01*
X037625Y018902D01*
X037596Y018885D01*
X037565Y018870D01*
X037532Y018860D01*
X037499Y018853D01*
X037465Y018850D01*
X037430Y018851D01*
X037396Y018856D01*
X037363Y018865D01*
X037331Y018877D01*
X037301Y018893D01*
X037273Y018912D01*
X037247Y018935D01*
X037224Y018960D01*
X037204Y018988D01*
X037187Y019018D01*
X037173Y019049D01*
X037164Y019082D01*
X037158Y019116D01*
X037156Y019150D01*
X037456Y019300D02*
X037456Y019000D01*
X017462Y019669D02*
X017262Y019669D01*
X017362Y019769D02*
X017362Y019569D01*
X016262Y020619D02*
X016264Y020685D01*
X016270Y020750D01*
X016280Y020815D01*
X016293Y020880D01*
X016311Y020943D01*
X016332Y021006D01*
X016357Y021066D01*
X016386Y021126D01*
X016418Y021183D01*
X016453Y021239D01*
X016492Y021292D01*
X016534Y021343D01*
X016578Y021391D01*
X016626Y021436D01*
X016676Y021479D01*
X016729Y021518D01*
X016784Y021555D01*
X016841Y021588D01*
X016900Y021617D01*
X016960Y021643D01*
X017022Y021665D01*
X017085Y021684D01*
X017149Y021698D01*
X017214Y021709D01*
X017280Y021716D01*
X017346Y021719D01*
X017411Y021718D01*
X017477Y021713D01*
X017542Y021704D01*
X017607Y021691D01*
X017670Y021675D01*
X017733Y021655D01*
X017794Y021630D01*
X017854Y021603D01*
X017912Y021572D01*
X017968Y021537D01*
X018022Y021499D01*
X018073Y021458D01*
X018122Y021414D01*
X018168Y021367D01*
X018212Y021318D01*
X018252Y021266D01*
X018289Y021211D01*
X018323Y021155D01*
X018353Y021096D01*
X018380Y021036D01*
X018403Y020975D01*
X018422Y020912D01*
X018438Y020848D01*
X018450Y020783D01*
X018458Y020718D01*
X018462Y020652D01*
X018462Y020586D01*
X018458Y020520D01*
X018450Y020455D01*
X018438Y020390D01*
X018422Y020326D01*
X018403Y020263D01*
X018380Y020202D01*
X018353Y020142D01*
X018323Y020083D01*
X018289Y020027D01*
X018252Y019972D01*
X018212Y019920D01*
X018168Y019871D01*
X018122Y019824D01*
X018073Y019780D01*
X018022Y019739D01*
X017968Y019701D01*
X017912Y019666D01*
X017854Y019635D01*
X017794Y019608D01*
X017733Y019583D01*
X017670Y019563D01*
X017607Y019547D01*
X017542Y019534D01*
X017477Y019525D01*
X017411Y019520D01*
X017346Y019519D01*
X017280Y019522D01*
X017214Y019529D01*
X017149Y019540D01*
X017085Y019554D01*
X017022Y019573D01*
X016960Y019595D01*
X016900Y019621D01*
X016841Y019650D01*
X016784Y019683D01*
X016729Y019720D01*
X016676Y019759D01*
X016626Y019802D01*
X016578Y019847D01*
X016534Y019895D01*
X016492Y019946D01*
X016453Y019999D01*
X016418Y020055D01*
X016386Y020112D01*
X016357Y020172D01*
X016332Y020232D01*
X016311Y020295D01*
X016293Y020358D01*
X016280Y020423D01*
X016270Y020488D01*
X016264Y020553D01*
X016262Y020619D01*
X009650Y015400D02*
X009400Y015650D01*
X008900Y015650D01*
X008650Y015400D01*
X008650Y014900D01*
X008900Y014650D01*
X008650Y014400D01*
X008650Y013900D01*
X008900Y013650D01*
X008650Y013400D01*
X008650Y012900D01*
X008900Y012650D01*
X008650Y012400D01*
X008650Y011900D01*
X008900Y011650D01*
X008650Y011400D01*
X008650Y010900D01*
X008900Y010650D01*
X008650Y010400D01*
X008650Y009900D01*
X008900Y009650D01*
X009400Y009650D01*
X009650Y009900D01*
X009650Y010400D01*
X009400Y010650D01*
X009650Y010900D01*
X009650Y011400D01*
X009400Y011650D01*
X009650Y011900D01*
X009650Y012400D01*
X009400Y012650D01*
X009650Y012900D01*
X009650Y013400D01*
X009400Y013650D01*
X009650Y013900D01*
X009650Y014400D01*
X009400Y014650D01*
X009650Y014900D01*
X009650Y015400D01*
X006400Y019150D02*
X005900Y019150D01*
X005650Y019400D01*
X005650Y019900D01*
X005900Y020150D01*
X005650Y020400D01*
X005650Y020900D01*
X005900Y021150D01*
X005650Y021400D01*
X005650Y021900D01*
X005900Y022150D01*
X005650Y022400D01*
X005650Y022900D01*
X005900Y023150D01*
X006400Y023150D01*
X006650Y022900D01*
X006650Y022400D01*
X006400Y022150D01*
X006650Y021900D01*
X006650Y021400D01*
X006400Y021150D01*
X006650Y020900D01*
X006650Y020400D01*
X006400Y020150D01*
X006650Y019900D01*
X006650Y019400D01*
X006400Y019150D01*
D17*
X027885Y022466D02*
X028305Y022466D01*
X028095Y022466D02*
X028095Y021835D01*
X028530Y021835D02*
X028530Y022466D01*
X028845Y022466D01*
X028950Y022360D01*
X028950Y022150D01*
X028845Y022045D01*
X028530Y022045D01*
X028740Y022045D02*
X028950Y021835D01*
X029174Y021835D02*
X029594Y021835D01*
X029819Y021835D02*
X029819Y021940D01*
X030239Y022360D01*
X030239Y022466D01*
X029819Y022466D01*
X029174Y022466D02*
X029174Y021835D01*
X029819Y021835D02*
X030239Y021835D01*
X030463Y022150D02*
X030884Y022150D01*
X031108Y022150D02*
X031528Y022150D01*
X031423Y021835D02*
X031423Y022466D01*
X031108Y022150D01*
X030778Y021835D02*
X030778Y022466D01*
X030463Y022150D01*
X024251Y002566D02*
X024040Y002355D01*
X023816Y002460D02*
X023711Y002566D01*
X023501Y002566D01*
X023396Y002460D01*
X023396Y002040D01*
X023501Y001935D01*
X023711Y001935D01*
X023816Y002040D01*
X024040Y001935D02*
X024461Y001935D01*
X024251Y001935D02*
X024251Y002566D01*
X023176Y002566D02*
X022966Y002566D01*
X023071Y002566D02*
X023071Y001935D01*
X022966Y001935D02*
X023176Y001935D01*
D18*
X028025Y003135D02*
X028025Y003436D01*
X028025Y003596D02*
X028025Y003896D01*
X028025Y003746D02*
X028475Y003746D01*
X028475Y004056D02*
X028025Y004056D01*
X028025Y004281D01*
X028100Y004356D01*
X028400Y004356D01*
X028475Y004281D01*
X028475Y004056D01*
X028475Y004517D02*
X028475Y004667D01*
X028475Y004592D02*
X028025Y004592D01*
X028025Y004517D02*
X028025Y004667D01*
X028250Y003286D02*
X028250Y003135D01*
X028250Y002975D02*
X028250Y002675D01*
X028475Y003135D02*
X028025Y003135D01*
X029825Y003075D02*
X030275Y003075D01*
X030275Y002925D02*
X030275Y003225D01*
X029975Y002925D02*
X029825Y003075D01*
X031475Y003275D02*
X031475Y003425D01*
X031475Y003350D02*
X031925Y003350D01*
X031925Y003275D02*
X031925Y003425D01*
X031850Y003582D02*
X031925Y003657D01*
X031925Y003807D01*
X031850Y003882D01*
X031925Y004042D02*
X031625Y004343D01*
X031550Y004343D01*
X031475Y004268D01*
X031475Y004117D01*
X031550Y004042D01*
X031550Y003882D02*
X031475Y003807D01*
X031475Y003657D01*
X031550Y003582D01*
X031850Y003582D01*
X031925Y004042D02*
X031925Y004343D01*
X028400Y007925D02*
X028475Y008000D01*
X028475Y008150D01*
X028400Y008225D01*
X028325Y008225D01*
X028250Y008150D01*
X028250Y007925D01*
X028400Y007925D01*
X028250Y007925D02*
X028100Y008075D01*
X028025Y008225D01*
X038825Y009125D02*
X038975Y008975D01*
X038825Y009125D02*
X039275Y009125D01*
X039275Y008975D02*
X039275Y009275D01*
X036475Y015675D02*
X036475Y015975D01*
X036475Y015825D02*
X036025Y015825D01*
X036175Y015675D01*
X036250Y016135D02*
X036250Y016361D01*
X036325Y016436D01*
X036400Y016436D01*
X036475Y016361D01*
X036475Y016210D01*
X036400Y016135D01*
X036250Y016135D01*
X036100Y016286D01*
X036025Y016436D01*
X016737Y021769D02*
X016737Y021919D01*
X016662Y021994D01*
X016662Y022154D02*
X016737Y022229D01*
X016737Y022380D01*
X016662Y022455D01*
X016587Y022455D01*
X016512Y022380D01*
X016512Y022154D01*
X016662Y022154D01*
X016512Y022154D02*
X016362Y022305D01*
X016287Y022455D01*
X016362Y021994D02*
X016287Y021919D01*
X016287Y021769D01*
X016362Y021694D01*
X016662Y021694D01*
X016737Y021769D01*
X007838Y021775D02*
X007650Y021775D01*
X007650Y022088D01*
X007650Y021775D02*
X007462Y021775D01*
X007650Y021775D02*
X007838Y021525D01*
X007650Y021525D01*
X007650Y021212D01*
X007650Y021525D02*
X007462Y021525D01*
X007650Y021775D01*
X006150Y023275D02*
X006150Y023575D01*
X006375Y023500D02*
X005925Y023500D01*
X006150Y023275D01*
X006375Y019025D02*
X006375Y018725D01*
X006375Y018875D02*
X005925Y018875D01*
X006075Y018725D01*
X008475Y015265D02*
X008475Y014965D01*
X008475Y015115D02*
X008025Y015115D01*
X008175Y014965D01*
X004275Y014215D02*
X003825Y014215D01*
X003825Y014440D01*
X003900Y014515D01*
X004050Y014515D01*
X004125Y014440D01*
X004125Y014215D01*
X004200Y014054D02*
X004050Y014054D01*
X004050Y013904D01*
X003900Y013754D02*
X004200Y013754D01*
X004275Y013829D01*
X004275Y013979D01*
X004200Y014054D01*
X003900Y014054D02*
X003825Y013979D01*
X003825Y013829D01*
X003900Y013754D01*
X003900Y013594D02*
X004200Y013294D01*
X004275Y013369D01*
X004275Y013519D01*
X004200Y013594D01*
X003900Y013594D01*
X003825Y013519D01*
X003825Y013369D01*
X003900Y013294D01*
X004200Y013294D01*
X004200Y013134D02*
X004050Y013134D01*
X003975Y013059D01*
X003975Y012984D01*
X004050Y012833D01*
X003825Y012833D01*
X003825Y013134D01*
X004200Y013134D02*
X004275Y013059D01*
X004275Y012908D01*
X004200Y012833D01*
X004275Y012673D02*
X004275Y012373D01*
X003975Y012673D01*
X003900Y012673D01*
X003825Y012598D01*
X003825Y012448D01*
X003900Y012373D01*
X004050Y012213D02*
X004050Y011913D01*
X003825Y012138D01*
X004275Y012138D01*
X004275Y011753D02*
X003825Y011452D01*
X003900Y011292D02*
X004050Y011292D01*
X004125Y011217D01*
X004125Y010992D01*
X004275Y010992D02*
X003825Y010992D01*
X003825Y011217D01*
X003900Y011292D01*
X004275Y011452D02*
X003825Y011753D01*
X003825Y010832D02*
X004275Y010832D01*
X004275Y010531D02*
X003825Y010531D01*
X003975Y010682D01*
X003825Y010832D01*
X009825Y010265D02*
X009900Y010115D01*
X010050Y009965D01*
X010050Y010190D01*
X010125Y010265D01*
X010200Y010265D01*
X010275Y010190D01*
X010275Y010040D01*
X010200Y009965D01*
X010050Y009965D01*
D19*
X020150Y020610D03*
D20*
X026400Y020950D02*
X026400Y017350D01*
X029650Y017350D01*
X029650Y020950D01*
X026400Y020950D01*
X026450Y013000D02*
X026450Y010300D01*
X026452Y010249D01*
X026457Y010198D01*
X026467Y010148D01*
X026480Y010098D01*
X026496Y010050D01*
X026516Y010003D01*
X026540Y009957D01*
X026566Y009914D01*
X026596Y009872D01*
X026629Y009833D01*
X026664Y009796D01*
X026702Y009762D01*
X026743Y009731D01*
X026785Y009702D01*
X026830Y009677D01*
X026876Y009656D01*
X026924Y009637D01*
X026973Y009623D01*
X027023Y009612D01*
X027073Y009604D01*
X027124Y009600D01*
X027176Y009600D01*
X027227Y009604D01*
X027277Y009612D01*
X027327Y009623D01*
X027376Y009637D01*
X027424Y009656D01*
X027470Y009677D01*
X027515Y009702D01*
X027557Y009731D01*
X027598Y009762D01*
X027636Y009796D01*
X027671Y009833D01*
X027704Y009872D01*
X027734Y009914D01*
X027760Y009957D01*
X027784Y010003D01*
X027804Y010050D01*
X027820Y010098D01*
X027833Y010148D01*
X027843Y010198D01*
X027848Y010249D01*
X027850Y010300D01*
X027850Y013000D01*
X027848Y013051D01*
X027843Y013102D01*
X027833Y013152D01*
X027820Y013202D01*
X027804Y013250D01*
X027784Y013297D01*
X027760Y013343D01*
X027734Y013386D01*
X027704Y013428D01*
X027671Y013467D01*
X027636Y013504D01*
X027598Y013538D01*
X027557Y013569D01*
X027515Y013598D01*
X027470Y013623D01*
X027424Y013644D01*
X027376Y013663D01*
X027327Y013677D01*
X027277Y013688D01*
X027227Y013696D01*
X027176Y013700D01*
X027124Y013700D01*
X027073Y013696D01*
X027023Y013688D01*
X026973Y013677D01*
X026924Y013663D01*
X026876Y013644D01*
X026830Y013623D01*
X026785Y013598D01*
X026743Y013569D01*
X026702Y013538D01*
X026664Y013504D01*
X026629Y013467D01*
X026596Y013428D01*
X026566Y013386D01*
X026540Y013343D01*
X026516Y013297D01*
X026496Y013250D01*
X026480Y013202D01*
X026467Y013152D01*
X026457Y013102D01*
X026452Y013051D01*
X026450Y013000D01*
X032100Y003320D02*
X038200Y003320D01*
D21*
X024925Y018150D03*
X024925Y019150D03*
X024925Y020150D03*
D22*
X025600Y020150D03*
X025600Y019150D03*
X025600Y018150D03*
D23*
X032400Y006145D03*
X032900Y006145D03*
X033400Y006145D03*
X033900Y006145D03*
X034400Y006145D03*
X034900Y006145D03*
X035400Y006145D03*
X035900Y006145D03*
X036400Y006145D03*
X036900Y006145D03*
X037400Y006145D03*
X037900Y006145D03*
X037900Y003155D03*
X037400Y003155D03*
X036900Y003155D03*
X036400Y003155D03*
X035900Y003155D03*
X035400Y003155D03*
X034900Y003155D03*
X034400Y003155D03*
X033900Y003155D03*
X033400Y003155D03*
X032900Y003155D03*
X032400Y003155D03*
M02*
