%
M48
M72
T01C0.0240
T02C0.0320
T03C0.0394
T04C0.0400
T05C0.0440
T06C0.1300
T07C0.1600
%
T01
X8650Y20650
X7150Y21650
X12650Y15150
X17150Y14150
X18150Y14150
X19150Y14150
X25150Y17150
X23650Y18150
X20150Y18150
X20150Y20150
X22150Y22150
X26150Y23150
X17650Y22150
X27150Y12650
X27150Y10650
X27650Y9350
X29450Y9750
X30150Y8650
X31750Y8950
X32150Y7550
X33450Y7650
X31550Y6250
X32850Y5950
X34150Y4150
X36150Y3650
X36450Y4350
X37450Y7850
X38450Y7850
X39250Y8350
X36150Y8150
X34350Y9050
X36250Y10250
X38650Y10650
X38750Y12050
X39050Y13050
X35150Y12350
X36050Y16250
X30650Y3650
X25350Y2550
T02
X17362Y20119
X17362Y21119
X22150Y16150
X22150Y15150
X22150Y14150
X22150Y13150
X22150Y12150
X22150Y11150
X22150Y10150
X22150Y9150
X22150Y8150
X22150Y7150
X22150Y6150
X22150Y5150
X22150Y4150
X22150Y3150
X25150Y3150
X25150Y4150
X25150Y5150
X25150Y6150
X25150Y7150
X25150Y8150
X25150Y9150
X25150Y10150
X25150Y11150
X25150Y12150
X25150Y13150
X25150Y14150
X25150Y15150
X25150Y16150
T03
X2150Y2150
X3150Y2150
X4150Y2150
X5150Y2150
X6150Y2150
X7150Y2150
X8150Y2150
X9150Y2150
X10150Y2150
X11150Y2150
X12150Y2150
X13150Y2150
X14150Y2150
X15150Y2150
X16150Y2150
X17150Y2150
X18150Y2150
X19150Y2150
X20150Y2150
X21150Y2150
X21150Y3150
X20150Y3150
X19150Y3150
X18150Y3150
X17150Y3150
X16150Y3150
X15150Y3150
X14150Y3150
X13150Y3150
X12150Y3150
X11150Y3150
X10150Y3150
X9150Y3150
X8150Y3150
X7150Y3150
X6150Y3150
X5150Y3150
X4150Y3150
X3150Y3150
X2150Y3150
X2150Y4150
X3150Y4150
X3150Y5150
X2150Y5150
X2150Y6150
X3150Y6150
X4150Y6150
X5150Y6150
X6150Y6150
X7150Y6150
X8150Y6150
X9150Y6150
X10150Y6150
X11150Y6150
X12150Y6150
X13150Y6150
X14150Y6150
X15150Y6150
X16150Y6150
X17150Y6150
X18150Y6150
X19150Y6150
X20150Y6150
X21150Y6150
X21150Y5150
X20150Y5150
X20150Y4150
X21150Y4150
X19150Y4150
X18150Y4150
X17150Y4150
X17150Y5150
X18150Y5150
X19150Y5150
X16150Y5150
X15150Y5150
X15150Y4150
X16150Y4150
X14150Y4150
X13150Y4150
X13150Y5150
X14150Y5150
X12150Y5150
X11150Y5150
X11150Y4150
X12150Y4150
X10150Y4150
X9150Y4150
X9150Y5150
X10150Y5150
X8150Y5150
X7150Y5150
X6150Y5150
X6150Y4150
X7150Y4150
X8150Y4150
X5150Y4150
X4150Y4150
X4150Y5150
X5150Y5150
X11150Y8150
X12150Y8150
X13150Y8150
X14150Y8150
X15150Y8150
X16150Y8150
X17150Y8150
X18150Y8150
X19150Y8150
X20150Y8150
X20150Y7150
X21150Y7150
X19150Y7150
X18150Y7150
X17150Y7150
X16150Y7150
X15150Y7150
X14150Y7150
X13150Y7150
X12150Y7150
X11150Y7150
X11150Y9150
X12150Y9150
X13150Y9150
X14150Y9150
X15150Y9150
X16150Y9150
X17150Y9150
X18150Y9150
X19150Y9150
X20150Y9150
X20150Y10150
X19150Y10150
X18150Y10150
X17150Y10150
X16150Y10150
X15150Y10150
X14150Y10150
X13150Y10150
X12150Y10150
X11150Y10150
X11150Y11150
X12150Y11150
X13150Y11150
X14150Y11150
X15150Y11150
X16150Y11150
X17150Y11150
X18150Y11150
X19150Y11150
X20150Y11150
X20150Y12150
X19150Y12150
X18150Y12150
X17150Y12150
X16150Y12150
X15150Y12150
X14150Y12150
X13150Y12150
X12150Y12150
X11150Y12150
T04
X6150Y19650
X6150Y20650
X6150Y21650
X6150Y22650
X9150Y15150
X9150Y14150
X9150Y13150
X9150Y12150
X9150Y11150
X9150Y10150
X29150Y8150
X29150Y7150
X29150Y6150
X29150Y5150
X29150Y4150
X29150Y3150
X37150Y9150
X38150Y9150
X38150Y10150
X37150Y10150
X37150Y11150
X38150Y11150
X38150Y12150
X37150Y12150
X37150Y13150
X38150Y13150
X38150Y14150
X37150Y14150
X37150Y15150
X38150Y15150
X38150Y16150
X37150Y16150
X36456Y19150
X36456Y22150
T05
X25150Y20150
X25150Y19150
X25150Y18150
T06
X31050Y19150
T07
X4150Y17150
X4150Y8150
M30
