G75*
G70*
%OFA0B0*%
%FSLAX24Y24*%
%IPPOS*%
%LPD*%
%AMOC8*
5,1,8,0,0,1.08239X$1,22.5*
%
%ADD10C,0.0520*%
%ADD11R,0.0512X0.0591*%
%ADD12OC8,0.0600*%
%ADD13R,0.2126X0.2441*%
%ADD14R,0.0394X0.0630*%
%ADD15C,0.0660*%
%ADD16C,0.0600*%
%ADD17C,0.0440*%
%ADD18OC8,0.0850*%
%ADD19OC8,0.0620*%
%ADD20C,0.0620*%
%ADD21R,0.0669X0.0709*%
%ADD22R,0.0591X0.0512*%
%ADD23R,0.0260X0.0800*%
%ADD24C,0.0100*%
%ADD25C,0.0400*%
%ADD26C,0.0591*%
%ADD27C,0.0160*%
D10*
X021890Y003150D02*
X022410Y003150D01*
X022410Y004150D02*
X021890Y004150D01*
X021890Y005150D02*
X022410Y005150D01*
X022410Y006150D02*
X021890Y006150D01*
X021890Y007150D02*
X022410Y007150D01*
X022410Y008150D02*
X021890Y008150D01*
X021890Y009150D02*
X022410Y009150D01*
X022410Y010150D02*
X021890Y010150D01*
X021890Y011150D02*
X022410Y011150D01*
X022410Y012150D02*
X021890Y012150D01*
X021890Y013150D02*
X022410Y013150D01*
X022410Y014150D02*
X021890Y014150D01*
X021890Y015150D02*
X022410Y015150D01*
X022410Y016150D02*
X021890Y016150D01*
X024890Y016150D02*
X025410Y016150D01*
X025410Y015150D02*
X024890Y015150D01*
X024890Y014150D02*
X025410Y014150D01*
X025410Y013150D02*
X024890Y013150D01*
X024890Y012150D02*
X025410Y012150D01*
X025410Y011150D02*
X024890Y011150D01*
X024890Y010150D02*
X025410Y010150D01*
X025410Y009150D02*
X024890Y009150D01*
X024890Y008150D02*
X025410Y008150D01*
X025410Y007150D02*
X024890Y007150D01*
X024890Y006150D02*
X025410Y006150D01*
X025410Y005150D02*
X024890Y005150D01*
X024890Y004150D02*
X025410Y004150D01*
X025410Y003150D02*
X024890Y003150D01*
D11*
X026815Y003150D03*
X027485Y003150D03*
X034815Y008150D03*
X035485Y008150D03*
X035493Y009609D03*
X034824Y009609D03*
X029485Y010650D03*
X028815Y010650D03*
X028815Y012650D03*
X029485Y012650D03*
X027485Y008650D03*
X026815Y008650D03*
X023485Y019150D03*
X022815Y019150D03*
X022815Y020150D03*
X023485Y020150D03*
X023485Y021650D03*
X022815Y021650D03*
X022815Y023150D03*
X023485Y023150D03*
D12*
X037150Y016150D03*
X038150Y016150D03*
X038150Y015150D03*
X037150Y015150D03*
X037150Y014150D03*
X038150Y014150D03*
X038150Y013150D03*
X037150Y013150D03*
X037150Y012150D03*
X038150Y012150D03*
X038150Y011150D03*
X037150Y011150D03*
X037150Y010150D03*
X038150Y010150D03*
X038150Y009150D03*
X037150Y009150D03*
D13*
X020150Y022634D03*
D14*
X019252Y019760D03*
X021048Y019760D03*
D15*
X024820Y020150D02*
X025480Y020150D01*
X025480Y019150D02*
X024820Y019150D01*
X024820Y018150D02*
X025480Y018150D01*
D16*
X028850Y008150D02*
X029450Y008150D01*
X029450Y007150D02*
X028850Y007150D01*
X028850Y006150D02*
X029450Y006150D01*
X029450Y005150D02*
X028850Y005150D01*
X028850Y004150D02*
X029450Y004150D01*
X029450Y003150D02*
X028850Y003150D01*
X009450Y010150D02*
X008850Y010150D01*
X008850Y011150D02*
X009450Y011150D01*
X009450Y012150D02*
X008850Y012150D01*
X008850Y013150D02*
X009450Y013150D01*
X009450Y014150D02*
X008850Y014150D01*
X008850Y015150D02*
X009450Y015150D01*
X006450Y019650D02*
X005850Y019650D01*
X005850Y020650D02*
X006450Y020650D01*
X006450Y021650D02*
X005850Y021650D01*
X005850Y022650D02*
X006450Y022650D01*
D17*
X026930Y012650D02*
X027370Y012650D01*
X027370Y010650D02*
X026930Y010650D01*
D18*
X036456Y019150D03*
X036456Y022150D03*
D19*
X017362Y021119D03*
D20*
X017362Y020119D03*
D21*
X007650Y020843D03*
X007650Y022457D03*
D22*
X011150Y015985D03*
X011150Y015315D03*
X011150Y013985D03*
X011150Y013315D03*
X012650Y013315D03*
X012650Y013985D03*
X030650Y007985D03*
X030650Y007315D03*
D23*
X032400Y006630D03*
X032900Y006630D03*
X033400Y006630D03*
X033900Y006630D03*
X034400Y006630D03*
X034900Y006630D03*
X035400Y006630D03*
X035900Y006630D03*
X036400Y006630D03*
X036900Y006630D03*
X037400Y006630D03*
X037900Y006630D03*
X037900Y002670D03*
X037400Y002670D03*
X036900Y002670D03*
X036400Y002670D03*
X035900Y002670D03*
X035400Y002670D03*
X034900Y002670D03*
X034400Y002670D03*
X033900Y002670D03*
X033400Y002670D03*
X032900Y002670D03*
X032400Y002670D03*
D24*
X032350Y002650D01*
X025450Y002650D01*
X025350Y002550D01*
X025655Y002423D02*
X032140Y002423D01*
X032140Y002470D02*
X032140Y002216D01*
X032216Y002140D01*
X032584Y002140D01*
X032650Y002206D01*
X032716Y002140D01*
X033084Y002140D01*
X033150Y002206D01*
X033216Y002140D01*
X033584Y002140D01*
X033640Y002196D01*
X033650Y002178D01*
X033678Y002150D01*
X033712Y002130D01*
X033750Y002120D01*
X033885Y002120D01*
X033885Y002655D01*
X033660Y002655D01*
X033660Y002685D01*
X033885Y002685D01*
X033885Y003220D01*
X033750Y003220D01*
X033712Y003210D01*
X033678Y003190D01*
X033650Y003162D01*
X033640Y003144D01*
X033584Y003200D01*
X033216Y003200D01*
X033150Y003134D01*
X033084Y003200D01*
X033030Y003200D01*
X033030Y005025D01*
X032685Y005370D01*
X034425Y005370D01*
X034530Y005475D01*
X034725Y005670D01*
X036915Y005670D01*
X034770Y003525D01*
X034770Y003375D01*
X034770Y003200D01*
X034716Y003200D01*
X034650Y003134D01*
X034584Y003200D01*
X034216Y003200D01*
X034160Y003144D01*
X034150Y003162D01*
X034122Y003190D01*
X034088Y003210D01*
X034050Y003220D01*
X033915Y003220D01*
X033915Y002685D01*
X034140Y002685D01*
X034140Y002655D01*
X033915Y002655D01*
X033915Y002685D01*
X033885Y002685D01*
X033885Y002655D01*
X033915Y002655D01*
X033915Y002120D01*
X034050Y002120D01*
X034088Y002130D01*
X034122Y002150D01*
X034150Y002178D01*
X034160Y002196D01*
X034216Y002140D01*
X034584Y002140D01*
X034650Y002206D01*
X034716Y002140D01*
X035084Y002140D01*
X035150Y002206D01*
X035216Y002140D01*
X035584Y002140D01*
X035650Y002206D01*
X035716Y002140D01*
X036084Y002140D01*
X036140Y002196D01*
X036150Y002178D01*
X036178Y002150D01*
X036212Y002130D01*
X036250Y002120D01*
X036385Y002120D01*
X036385Y002655D01*
X036160Y002655D01*
X036160Y002685D01*
X036385Y002685D01*
X036385Y003220D01*
X036250Y003220D01*
X036212Y003210D01*
X036178Y003190D01*
X036150Y003162D01*
X036140Y003144D01*
X036084Y003200D01*
X035716Y003200D01*
X035650Y003134D01*
X035584Y003200D01*
X035216Y003200D01*
X035150Y003134D01*
X035130Y003154D01*
X035130Y003375D01*
X036120Y004365D01*
X036120Y004284D01*
X036170Y004163D01*
X036263Y004070D01*
X036384Y004020D01*
X036516Y004020D01*
X036523Y004023D01*
X037345Y003200D01*
X037216Y003200D01*
X037150Y003134D01*
X037084Y003200D01*
X036716Y003200D01*
X036660Y003144D01*
X036650Y003162D01*
X036622Y003190D01*
X036588Y003210D01*
X036550Y003220D01*
X036415Y003220D01*
X036415Y002685D01*
X036640Y002685D01*
X036640Y002655D01*
X036415Y002655D01*
X036415Y002685D01*
X036385Y002685D01*
X036385Y002655D01*
X036415Y002655D01*
X036415Y002120D01*
X036550Y002120D01*
X036588Y002130D01*
X036622Y002150D01*
X036650Y002178D01*
X036660Y002196D01*
X036716Y002140D01*
X037084Y002140D01*
X037150Y002206D01*
X037216Y002140D01*
X037405Y002140D01*
X037515Y002030D01*
X025625Y002030D01*
X025429Y002226D01*
X025537Y002270D01*
X025630Y002363D01*
X025674Y002470D01*
X032140Y002470D01*
X032140Y002325D02*
X025591Y002325D01*
X025430Y002226D02*
X032140Y002226D01*
X032140Y002830D02*
X029766Y002830D01*
X029793Y002857D01*
X029835Y002914D01*
X029867Y002977D01*
X029889Y003045D01*
X029898Y003100D01*
X029200Y003100D01*
X029200Y003200D01*
X029100Y003200D01*
X029100Y003600D01*
X028815Y003600D01*
X028745Y003589D01*
X028677Y003567D01*
X028614Y003535D01*
X028557Y003493D01*
X028507Y003443D01*
X028465Y003386D01*
X028433Y003323D01*
X028411Y003255D01*
X028402Y003200D01*
X029100Y003200D01*
X029100Y003100D01*
X028402Y003100D01*
X028411Y003045D01*
X028433Y002977D01*
X028465Y002914D01*
X028507Y002857D01*
X028534Y002830D01*
X027871Y002830D01*
X027871Y003499D01*
X027812Y003558D01*
X028420Y004165D01*
X028420Y004064D01*
X028485Y003906D01*
X028606Y003785D01*
X028764Y003720D01*
X029536Y003720D01*
X029694Y003785D01*
X029815Y003906D01*
X029880Y004064D01*
X029880Y004236D01*
X029815Y004394D01*
X029731Y004477D01*
X031225Y005970D01*
X031294Y006039D01*
X031363Y005970D01*
X031484Y005920D01*
X031616Y005920D01*
X031623Y005923D01*
X032670Y004875D01*
X032670Y003154D01*
X032650Y003134D01*
X032584Y003200D01*
X032216Y003200D01*
X032140Y003124D01*
X032140Y002830D01*
X032140Y002916D02*
X029836Y002916D01*
X029879Y003014D02*
X032140Y003014D01*
X032140Y003113D02*
X029200Y003113D01*
X029200Y003200D02*
X029898Y003200D01*
X029889Y003255D01*
X029867Y003323D01*
X029835Y003386D01*
X029793Y003443D01*
X029743Y003493D01*
X029686Y003535D01*
X029623Y003567D01*
X029555Y003589D01*
X029485Y003600D01*
X029200Y003600D01*
X029200Y003200D01*
X029200Y003211D02*
X029100Y003211D01*
X029100Y003113D02*
X027871Y003113D01*
X027871Y003211D02*
X028404Y003211D01*
X028429Y003310D02*
X027871Y003310D01*
X027871Y003408D02*
X028481Y003408D01*
X028575Y003507D02*
X027863Y003507D01*
X027860Y003605D02*
X032670Y003605D01*
X032670Y003507D02*
X029725Y003507D01*
X029819Y003408D02*
X032670Y003408D01*
X032670Y003310D02*
X029871Y003310D01*
X029896Y003211D02*
X032670Y003211D01*
X033030Y003211D02*
X033717Y003211D01*
X033885Y003211D02*
X033915Y003211D01*
X033915Y003113D02*
X033885Y003113D01*
X033885Y003014D02*
X033915Y003014D01*
X033915Y002916D02*
X033885Y002916D01*
X033885Y002817D02*
X033915Y002817D01*
X033915Y002719D02*
X033885Y002719D01*
X033885Y002620D02*
X033915Y002620D01*
X033915Y002522D02*
X033885Y002522D01*
X033885Y002423D02*
X033915Y002423D01*
X033915Y002325D02*
X033885Y002325D01*
X033885Y002226D02*
X033915Y002226D01*
X033915Y002128D02*
X033885Y002128D01*
X033722Y002128D02*
X025527Y002128D01*
X025550Y001850D02*
X038150Y001850D01*
X039250Y002950D01*
X039250Y008350D01*
X039559Y008235D02*
X039570Y008235D01*
X039570Y008260D02*
X039530Y008163D01*
X039437Y008070D01*
X039430Y008067D01*
X039430Y002875D01*
X039325Y002770D01*
X038225Y001670D01*
X025475Y001670D01*
X025370Y001775D01*
X024270Y002875D01*
X024270Y007525D01*
X024375Y007630D01*
X024617Y007872D01*
X024559Y007929D01*
X024500Y008072D01*
X024500Y008228D01*
X024559Y008371D01*
X024669Y008481D01*
X024812Y008540D01*
X025488Y008540D01*
X025518Y008527D01*
X025470Y008575D01*
X025285Y008760D01*
X024812Y008760D01*
X024669Y008819D01*
X024559Y008929D01*
X024500Y009072D01*
X024500Y009228D01*
X024559Y009371D01*
X024617Y009428D01*
X024075Y009970D01*
X022758Y009970D01*
X022741Y009929D01*
X022631Y009819D01*
X022488Y009760D01*
X021812Y009760D01*
X021669Y009819D01*
X021559Y009929D01*
X021500Y010072D01*
X021500Y010228D01*
X021559Y010371D01*
X021669Y010481D01*
X021812Y010540D01*
X021970Y010540D01*
X021970Y010760D01*
X021812Y010760D01*
X021669Y010819D01*
X021559Y010929D01*
X021500Y011072D01*
X021500Y011228D01*
X021559Y011371D01*
X021617Y011428D01*
X020650Y012395D01*
X020650Y007650D01*
X021650Y007650D01*
X021650Y007462D01*
X021669Y007481D01*
X021812Y007540D01*
X022488Y007540D01*
X022631Y007481D01*
X022741Y007371D01*
X022800Y007228D01*
X022800Y007072D01*
X022741Y006929D01*
X022631Y006819D01*
X022488Y006760D01*
X021812Y006760D01*
X021669Y006819D01*
X021650Y006838D01*
X021650Y006462D01*
X021669Y006481D01*
X021812Y006540D01*
X022488Y006540D01*
X022631Y006481D01*
X022741Y006371D01*
X022800Y006228D01*
X022800Y006072D01*
X022741Y005929D01*
X022631Y005819D01*
X022488Y005760D01*
X021812Y005760D01*
X021669Y005819D01*
X021650Y005838D01*
X021650Y005462D01*
X021669Y005481D01*
X021812Y005540D01*
X022488Y005540D01*
X022631Y005481D01*
X022741Y005371D01*
X022800Y005228D01*
X022800Y005072D01*
X022741Y004929D01*
X022631Y004819D01*
X022488Y004760D01*
X021812Y004760D01*
X021669Y004819D01*
X021650Y004838D01*
X021650Y004462D01*
X021669Y004481D01*
X021812Y004540D01*
X022488Y004540D01*
X022631Y004481D01*
X022741Y004371D01*
X022800Y004228D01*
X022800Y004072D01*
X022741Y003929D01*
X022631Y003819D01*
X022488Y003760D01*
X021812Y003760D01*
X021669Y003819D01*
X021650Y003838D01*
X021650Y003462D01*
X021669Y003481D01*
X021812Y003540D01*
X022488Y003540D01*
X022631Y003481D01*
X022741Y003371D01*
X022800Y003228D01*
X022800Y003072D01*
X022741Y002929D01*
X022631Y002819D01*
X022488Y002760D01*
X021812Y002760D01*
X021669Y002819D01*
X021650Y002838D01*
X021650Y001100D01*
X039570Y001100D01*
X039570Y008260D01*
X039570Y008136D02*
X039503Y008136D01*
X039570Y008038D02*
X039430Y008038D01*
X039430Y007939D02*
X039570Y007939D01*
X039570Y007841D02*
X039430Y007841D01*
X039430Y007742D02*
X039570Y007742D01*
X039570Y007644D02*
X039430Y007644D01*
X039430Y007545D02*
X039570Y007545D01*
X039570Y007447D02*
X039430Y007447D01*
X039430Y007348D02*
X039570Y007348D01*
X039570Y007250D02*
X039430Y007250D01*
X039430Y007151D02*
X039570Y007151D01*
X039570Y007053D02*
X039430Y007053D01*
X039430Y006954D02*
X039570Y006954D01*
X039570Y006856D02*
X039430Y006856D01*
X039430Y006757D02*
X039570Y006757D01*
X039570Y006659D02*
X039430Y006659D01*
X039430Y006560D02*
X039570Y006560D01*
X039570Y006462D02*
X039430Y006462D01*
X039430Y006363D02*
X039570Y006363D01*
X039570Y006265D02*
X039430Y006265D01*
X039430Y006166D02*
X039570Y006166D01*
X039570Y006068D02*
X039430Y006068D01*
X039430Y005969D02*
X039570Y005969D01*
X039570Y005871D02*
X039430Y005871D01*
X039430Y005772D02*
X039570Y005772D01*
X039570Y005674D02*
X039430Y005674D01*
X039430Y005575D02*
X039570Y005575D01*
X039570Y005477D02*
X039430Y005477D01*
X039430Y005378D02*
X039570Y005378D01*
X039570Y005280D02*
X039430Y005280D01*
X039430Y005181D02*
X039570Y005181D01*
X039570Y005083D02*
X039430Y005083D01*
X039430Y004984D02*
X039570Y004984D01*
X039570Y004886D02*
X039430Y004886D01*
X039430Y004787D02*
X039570Y004787D01*
X039570Y004689D02*
X039430Y004689D01*
X039430Y004590D02*
X039570Y004590D01*
X039570Y004492D02*
X039430Y004492D01*
X039430Y004393D02*
X039570Y004393D01*
X039570Y004295D02*
X039430Y004295D01*
X039430Y004196D02*
X039570Y004196D01*
X039570Y004098D02*
X039430Y004098D01*
X039430Y003999D02*
X039570Y003999D01*
X039570Y003901D02*
X039430Y003901D01*
X039430Y003802D02*
X039570Y003802D01*
X039570Y003704D02*
X039430Y003704D01*
X039430Y003605D02*
X039570Y003605D01*
X039570Y003507D02*
X039430Y003507D01*
X039430Y003408D02*
X039570Y003408D01*
X039570Y003310D02*
X039430Y003310D01*
X039430Y003211D02*
X039570Y003211D01*
X039570Y003113D02*
X039430Y003113D01*
X039430Y003014D02*
X039570Y003014D01*
X039570Y002916D02*
X039430Y002916D01*
X039372Y002817D02*
X039570Y002817D01*
X039570Y002719D02*
X039273Y002719D01*
X039175Y002620D02*
X039570Y002620D01*
X039570Y002522D02*
X039076Y002522D01*
X038978Y002423D02*
X039570Y002423D01*
X039570Y002325D02*
X038879Y002325D01*
X038781Y002226D02*
X039570Y002226D01*
X039570Y002128D02*
X038682Y002128D01*
X038584Y002029D02*
X039570Y002029D01*
X039570Y001931D02*
X038485Y001931D01*
X038387Y001832D02*
X039570Y001832D01*
X039570Y001734D02*
X038288Y001734D01*
X038050Y002050D02*
X037750Y002050D01*
X037450Y002350D01*
X037450Y002650D01*
X037400Y002670D01*
X037850Y002750D02*
X037850Y002950D01*
X036450Y004350D01*
X036236Y004098D02*
X035852Y004098D01*
X035951Y004196D02*
X036157Y004196D01*
X036120Y004295D02*
X036049Y004295D01*
X035835Y004590D02*
X033030Y004590D01*
X033030Y004492D02*
X035737Y004492D01*
X035638Y004393D02*
X033030Y004393D01*
X033030Y004295D02*
X035540Y004295D01*
X035441Y004196D02*
X033030Y004196D01*
X033030Y004098D02*
X035343Y004098D01*
X035244Y003999D02*
X033030Y003999D01*
X033030Y003901D02*
X035146Y003901D01*
X035047Y003802D02*
X033030Y003802D01*
X033030Y003704D02*
X034949Y003704D01*
X034850Y003605D02*
X033030Y003605D01*
X033030Y003507D02*
X034770Y003507D01*
X034770Y003408D02*
X033030Y003408D01*
X033030Y003310D02*
X034770Y003310D01*
X034770Y003211D02*
X034083Y003211D01*
X034950Y003450D02*
X034950Y002750D01*
X034900Y002670D01*
X035130Y003211D02*
X036217Y003211D01*
X036385Y003211D02*
X036415Y003211D01*
X036415Y003113D02*
X036385Y003113D01*
X036385Y003014D02*
X036415Y003014D01*
X036415Y002916D02*
X036385Y002916D01*
X036385Y002817D02*
X036415Y002817D01*
X036415Y002719D02*
X036385Y002719D01*
X036385Y002620D02*
X036415Y002620D01*
X036415Y002522D02*
X036385Y002522D01*
X036385Y002423D02*
X036415Y002423D01*
X036415Y002325D02*
X036385Y002325D01*
X036385Y002226D02*
X036415Y002226D01*
X036415Y002128D02*
X036385Y002128D01*
X036222Y002128D02*
X034078Y002128D01*
X032900Y002670D02*
X032850Y002750D01*
X032850Y004950D01*
X031550Y006250D01*
X031436Y006560D02*
X031330Y006560D01*
X031363Y006530D02*
X031330Y006497D01*
X031330Y007575D01*
X031330Y007725D01*
X031075Y007979D01*
X031075Y008294D01*
X030999Y008371D01*
X030301Y008371D01*
X030225Y008294D01*
X030225Y008230D01*
X029880Y008230D01*
X029880Y008236D01*
X029815Y008394D01*
X029694Y008515D01*
X029536Y008580D01*
X028764Y008580D01*
X028606Y008515D01*
X028485Y008394D01*
X028420Y008236D01*
X028420Y008064D01*
X028485Y007906D01*
X028606Y007785D01*
X028764Y007720D01*
X029536Y007720D01*
X029694Y007785D01*
X029778Y007870D01*
X030225Y007870D01*
X030225Y007675D01*
X030250Y007650D01*
X030225Y007625D01*
X030225Y007006D01*
X030301Y006929D01*
X030470Y006929D01*
X030470Y006725D01*
X029880Y006135D01*
X029880Y006236D01*
X029815Y006394D01*
X029694Y006515D01*
X029536Y006580D01*
X028764Y006580D01*
X028606Y006515D01*
X028485Y006394D01*
X028420Y006236D01*
X028420Y006135D01*
X026085Y008470D01*
X026429Y008470D01*
X026429Y008301D01*
X026506Y008225D01*
X027125Y008225D01*
X027136Y008235D01*
X027137Y008235D01*
X027171Y008215D01*
X027209Y008205D01*
X027435Y008205D01*
X027435Y008600D01*
X027535Y008600D01*
X027535Y008700D01*
X027891Y008700D01*
X027891Y008965D01*
X027880Y009003D01*
X027861Y009037D01*
X027833Y009065D01*
X027829Y009067D01*
X027837Y009070D01*
X027930Y009163D01*
X027933Y009170D01*
X031503Y009170D01*
X031470Y009137D01*
X031420Y009016D01*
X031420Y008884D01*
X031470Y008763D01*
X031563Y008670D01*
X031570Y008667D01*
X031570Y006580D01*
X031484Y006580D01*
X031363Y006530D01*
X031330Y006659D02*
X031570Y006659D01*
X031570Y006757D02*
X031330Y006757D01*
X031330Y006856D02*
X031570Y006856D01*
X031570Y006954D02*
X031330Y006954D01*
X031330Y007053D02*
X031570Y007053D01*
X031570Y007151D02*
X031330Y007151D01*
X031330Y007250D02*
X031570Y007250D01*
X031570Y007348D02*
X031330Y007348D01*
X031330Y007447D02*
X031570Y007447D01*
X031570Y007545D02*
X031330Y007545D01*
X031330Y007644D02*
X031570Y007644D01*
X031570Y007742D02*
X031313Y007742D01*
X031214Y007841D02*
X031570Y007841D01*
X031570Y007939D02*
X031116Y007939D01*
X031075Y008038D02*
X031570Y008038D01*
X031570Y008136D02*
X031075Y008136D01*
X031075Y008235D02*
X031570Y008235D01*
X031570Y008333D02*
X031037Y008333D01*
X030650Y008050D02*
X030650Y007985D01*
X030650Y007950D01*
X030850Y007950D01*
X031150Y007650D01*
X031150Y006150D01*
X029650Y004650D01*
X028650Y004650D01*
X027485Y003485D01*
X027485Y003150D01*
X027871Y003014D02*
X028421Y003014D01*
X028464Y002916D02*
X027871Y002916D01*
X027958Y003704D02*
X032670Y003704D01*
X032670Y003802D02*
X029710Y003802D01*
X029809Y003901D02*
X032670Y003901D01*
X032670Y003999D02*
X029853Y003999D01*
X029880Y004098D02*
X032670Y004098D01*
X032670Y004196D02*
X029880Y004196D01*
X029856Y004295D02*
X032670Y004295D01*
X032670Y004393D02*
X029815Y004393D01*
X029746Y004492D02*
X032670Y004492D01*
X032670Y004590D02*
X029845Y004590D01*
X029943Y004689D02*
X032670Y004689D01*
X032670Y004787D02*
X030042Y004787D01*
X030140Y004886D02*
X032660Y004886D01*
X032561Y004984D02*
X030239Y004984D01*
X030337Y005083D02*
X032463Y005083D01*
X032364Y005181D02*
X030436Y005181D01*
X030534Y005280D02*
X032266Y005280D01*
X032167Y005378D02*
X030633Y005378D01*
X030731Y005477D02*
X032069Y005477D01*
X031970Y005575D02*
X030830Y005575D01*
X030928Y005674D02*
X031872Y005674D01*
X031773Y005772D02*
X031027Y005772D01*
X031125Y005871D02*
X031675Y005871D01*
X031366Y005969D02*
X031224Y005969D01*
X031750Y006550D02*
X031750Y008950D01*
X031444Y008826D02*
X027891Y008826D01*
X027891Y008924D02*
X031420Y008924D01*
X031423Y009023D02*
X027869Y009023D01*
X027888Y009121D02*
X031464Y009121D01*
X032150Y009050D02*
X035050Y011950D01*
X035250Y011950D01*
X036450Y013150D01*
X036450Y015450D01*
X037150Y016150D01*
X036950Y016650D02*
X038350Y016650D01*
X039050Y015950D01*
X039050Y013050D01*
X038650Y012950D02*
X038650Y013650D01*
X038150Y014150D01*
X037650Y014650D02*
X038150Y015150D01*
X037650Y014650D02*
X037650Y011950D01*
X037350Y011650D01*
X036950Y011650D01*
X036250Y010950D01*
X036250Y010250D01*
X036474Y010008D02*
X036720Y010008D01*
X036720Y009972D02*
X036972Y009720D01*
X037328Y009720D01*
X037470Y009862D01*
X037470Y009438D01*
X037328Y009580D01*
X036972Y009580D01*
X036720Y009328D01*
X036720Y008972D01*
X036972Y008720D01*
X037165Y008720D01*
X035770Y007325D01*
X035770Y007160D01*
X035716Y007160D01*
X035650Y007094D01*
X035630Y007114D01*
X035630Y007725D01*
X035794Y007725D01*
X035871Y007801D01*
X035871Y008499D01*
X035794Y008575D01*
X035175Y008575D01*
X035150Y008550D01*
X035125Y008575D01*
X035030Y008575D01*
X035030Y009183D01*
X035134Y009183D01*
X035144Y009194D01*
X035145Y009193D01*
X035179Y009174D01*
X035217Y009163D01*
X035443Y009163D01*
X035443Y009559D01*
X035543Y009559D01*
X035543Y009659D01*
X035443Y009659D01*
X035443Y010054D01*
X035217Y010054D01*
X035179Y010044D01*
X035145Y010024D01*
X035144Y010023D01*
X035134Y010034D01*
X034689Y010034D01*
X036625Y011970D01*
X036722Y011970D01*
X036869Y011823D01*
X036770Y011725D01*
X036070Y011025D01*
X036070Y010533D01*
X036063Y010530D01*
X035970Y010437D01*
X035920Y010316D01*
X035920Y010184D01*
X035970Y010063D01*
X036063Y009970D01*
X036184Y009920D01*
X036316Y009920D01*
X036437Y009970D01*
X036530Y010063D01*
X036580Y010184D01*
X036580Y010316D01*
X036530Y010437D01*
X036437Y010530D01*
X036430Y010533D01*
X036430Y010875D01*
X036720Y011165D01*
X036720Y010972D01*
X036972Y010720D01*
X037328Y010720D01*
X037470Y010862D01*
X037470Y010438D01*
X037328Y010580D01*
X036972Y010580D01*
X036720Y010328D01*
X036720Y009972D01*
X036783Y009909D02*
X035899Y009909D01*
X035899Y009924D02*
X035889Y009962D01*
X035869Y009996D01*
X035841Y010024D01*
X035807Y010044D01*
X035769Y010054D01*
X035543Y010054D01*
X035543Y009659D01*
X035899Y009659D01*
X035899Y009924D01*
X035858Y010008D02*
X036026Y010008D01*
X035952Y010106D02*
X034761Y010106D01*
X034859Y010205D02*
X035920Y010205D01*
X035920Y010303D02*
X034958Y010303D01*
X035056Y010402D02*
X035956Y010402D01*
X036033Y010500D02*
X035155Y010500D01*
X035253Y010599D02*
X036070Y010599D01*
X036070Y010697D02*
X035352Y010697D01*
X035450Y010796D02*
X036070Y010796D01*
X036070Y010894D02*
X035549Y010894D01*
X035647Y010993D02*
X036070Y010993D01*
X036136Y011091D02*
X035746Y011091D01*
X035844Y011190D02*
X036235Y011190D01*
X036333Y011288D02*
X035943Y011288D01*
X036041Y011387D02*
X036432Y011387D01*
X036530Y011485D02*
X036140Y011485D01*
X036238Y011584D02*
X036629Y011584D01*
X036727Y011682D02*
X036337Y011682D01*
X036435Y011781D02*
X036826Y011781D01*
X036813Y011879D02*
X036534Y011879D01*
X036550Y012150D02*
X037150Y012150D01*
X036550Y012150D02*
X033950Y009550D01*
X033950Y006650D01*
X033900Y006630D01*
X034350Y006650D02*
X034400Y006630D01*
X034350Y006650D02*
X034350Y009050D01*
X035030Y009023D02*
X036720Y009023D01*
X036720Y009121D02*
X035030Y009121D01*
X035030Y008924D02*
X036768Y008924D01*
X036866Y008826D02*
X035030Y008826D01*
X035030Y008727D02*
X036965Y008727D01*
X037074Y008629D02*
X035030Y008629D01*
X034850Y008150D02*
X034815Y008150D01*
X034850Y008150D02*
X034850Y006650D01*
X034900Y006630D01*
X034850Y006550D01*
X034850Y006350D01*
X034450Y005950D01*
X032850Y005950D01*
X032750Y005550D02*
X031750Y006550D01*
X030650Y006650D02*
X029150Y005150D01*
X025650Y008650D01*
X025150Y009150D01*
X024150Y010150D01*
X022850Y010150D01*
X022850Y019150D01*
X022815Y019150D01*
X022850Y019150D02*
X022850Y019850D01*
X021050Y019850D01*
X021048Y019760D01*
X021374Y020030D02*
X021374Y020129D01*
X021298Y020205D01*
X020960Y020205D01*
X022225Y021470D01*
X022429Y021470D01*
X022429Y021301D01*
X022506Y021225D01*
X023125Y021225D01*
X023150Y021250D01*
X023175Y021225D01*
X023721Y021225D01*
X024482Y020463D01*
X024430Y020411D01*
X024360Y020241D01*
X024360Y020058D01*
X024430Y019889D01*
X024559Y019760D01*
X024728Y019690D01*
X025571Y019690D01*
X025741Y019760D01*
X025870Y019889D01*
X025940Y020058D01*
X025940Y020241D01*
X025870Y020411D01*
X025741Y020540D01*
X025571Y020610D01*
X024845Y020610D01*
X023871Y021584D01*
X023871Y021999D01*
X023794Y022075D01*
X023630Y022075D01*
X023630Y022725D01*
X023794Y022725D01*
X023871Y022801D01*
X023871Y023499D01*
X023794Y023575D01*
X023175Y023575D01*
X023164Y023565D01*
X023163Y023565D01*
X023129Y023585D01*
X023091Y023595D01*
X022865Y023595D01*
X022865Y023200D01*
X022765Y023200D01*
X022765Y023100D01*
X022409Y023100D01*
X022409Y022835D01*
X022420Y022797D01*
X022439Y022763D01*
X022467Y022735D01*
X022502Y022715D01*
X022540Y022705D01*
X022765Y022705D01*
X022765Y023100D01*
X022865Y023100D01*
X022865Y022705D01*
X023091Y022705D01*
X023129Y022715D01*
X023163Y022735D01*
X023164Y022735D01*
X023175Y022725D01*
X023270Y022725D01*
X023270Y022075D01*
X023175Y022075D01*
X023150Y022050D01*
X023125Y022075D01*
X022506Y022075D01*
X022429Y021999D01*
X022429Y021830D01*
X022075Y021830D01*
X020575Y020330D01*
X020470Y020225D01*
X020470Y016575D01*
X021617Y015428D01*
X021559Y015371D01*
X021500Y015228D01*
X021293Y015228D01*
X021395Y015130D02*
X021500Y015130D01*
X021500Y015072D02*
X021531Y014998D01*
X020950Y015559D01*
X020899Y015610D01*
X020897Y015610D01*
X020896Y015612D01*
X020823Y015610D01*
X018426Y015610D01*
X018356Y015611D01*
X018356Y015610D02*
X018296Y015551D01*
X017223Y014477D01*
X017216Y014480D01*
X017084Y014480D01*
X016963Y014430D01*
X016870Y014337D01*
X016820Y014216D01*
X016820Y014084D01*
X016870Y013963D01*
X016963Y013870D01*
X017084Y013820D01*
X017216Y013820D01*
X017337Y013870D01*
X017430Y013963D01*
X017480Y014084D01*
X017480Y014216D01*
X017477Y014223D01*
X018505Y015250D01*
X020752Y015250D01*
X021610Y014421D01*
X021559Y014371D01*
X021500Y014228D01*
X021500Y014075D01*
X020622Y014976D01*
X020622Y014977D01*
X020570Y015029D01*
X020519Y015082D01*
X020518Y015082D01*
X020517Y015083D01*
X020443Y015083D01*
X020370Y015084D01*
X020369Y015083D01*
X018905Y015083D01*
X018901Y015086D01*
X018831Y015083D01*
X018761Y015083D01*
X018757Y015079D01*
X018752Y015079D01*
X018705Y015027D01*
X018655Y014977D01*
X018655Y014972D01*
X018207Y014480D01*
X018084Y014480D01*
X017963Y014430D01*
X017870Y014337D01*
X017820Y014216D01*
X017820Y014084D01*
X017870Y013963D01*
X017963Y013870D01*
X018084Y013820D01*
X018216Y013820D01*
X018337Y013870D01*
X018430Y013963D01*
X018480Y014084D01*
X018480Y014216D01*
X018472Y014236D01*
X018915Y014723D01*
X020366Y014723D01*
X021622Y013434D01*
X021559Y013371D01*
X021500Y013228D01*
X021500Y013072D01*
X021513Y013042D01*
X020330Y014225D01*
X020225Y014330D01*
X019433Y014330D01*
X019430Y014337D01*
X019337Y014430D01*
X019216Y014480D01*
X019084Y014480D01*
X018963Y014430D01*
X018870Y014337D01*
X018820Y014216D01*
X018820Y014084D01*
X018870Y013963D01*
X018963Y013870D01*
X019084Y013820D01*
X019216Y013820D01*
X019337Y013870D01*
X019430Y013963D01*
X019433Y013970D01*
X020075Y013970D01*
X021617Y012428D01*
X021559Y012371D01*
X021500Y012228D01*
X021500Y012072D01*
X021513Y012042D01*
X020186Y013368D01*
X020186Y013368D01*
X020081Y013474D01*
X013075Y013474D01*
X013075Y013625D01*
X013065Y013636D01*
X013065Y013637D01*
X013085Y013671D01*
X013095Y013709D01*
X013095Y013935D01*
X012700Y013935D01*
X012700Y014035D01*
X012600Y014035D01*
X012600Y014391D01*
X012335Y014391D01*
X012297Y014380D01*
X012263Y014361D01*
X012235Y014333D01*
X012215Y014298D01*
X012205Y014260D01*
X012205Y014035D01*
X012600Y014035D01*
X012600Y013935D01*
X012205Y013935D01*
X012205Y013709D01*
X012215Y013671D01*
X012235Y013637D01*
X012235Y013636D01*
X012225Y013625D01*
X012225Y013491D01*
X011575Y013491D01*
X011575Y013625D01*
X011565Y013636D01*
X011565Y013637D01*
X011585Y013671D01*
X011595Y013709D01*
X011595Y013935D01*
X011200Y013935D01*
X011200Y014035D01*
X011100Y014035D01*
X011100Y014391D01*
X010835Y014391D01*
X010797Y014380D01*
X010763Y014361D01*
X010735Y014333D01*
X010715Y014298D01*
X010705Y014260D01*
X010705Y014035D01*
X011100Y014035D01*
X011100Y013935D01*
X010705Y013935D01*
X010705Y013709D01*
X010715Y013671D01*
X010735Y013637D01*
X010735Y013636D01*
X010725Y013625D01*
X010725Y013430D01*
X009778Y013430D01*
X009694Y013515D01*
X009536Y013580D01*
X008764Y013580D01*
X008606Y013515D01*
X008485Y013394D01*
X008420Y013236D01*
X008420Y013064D01*
X008485Y012906D01*
X008606Y012785D01*
X008764Y012720D01*
X009536Y012720D01*
X009694Y012785D01*
X009815Y012906D01*
X009880Y013064D01*
X009880Y013070D01*
X010725Y013070D01*
X010725Y013006D01*
X010801Y012929D01*
X011499Y012929D01*
X011575Y013006D01*
X011575Y013131D01*
X012225Y013131D01*
X012225Y013006D01*
X012301Y012929D01*
X012999Y012929D01*
X013075Y013006D01*
X013075Y013114D01*
X014970Y013114D01*
X014970Y012650D01*
X010650Y012650D01*
X010650Y006650D01*
X001100Y006650D01*
X001100Y024483D01*
X039570Y024483D01*
X039570Y015984D01*
X038630Y016925D01*
X038525Y017030D01*
X036575Y017030D01*
X036123Y016577D01*
X036116Y016580D01*
X035984Y016580D01*
X035863Y016530D01*
X035770Y016437D01*
X035720Y016316D01*
X035720Y016184D01*
X035770Y016063D01*
X035863Y015970D01*
X035971Y015926D01*
X029975Y009930D01*
X029733Y009930D01*
X029730Y009937D01*
X029637Y010030D01*
X029516Y010080D01*
X029384Y010080D01*
X029263Y010030D01*
X029170Y009937D01*
X029120Y009816D01*
X029120Y009684D01*
X029170Y009563D01*
X029203Y009530D01*
X027933Y009530D01*
X027930Y009537D01*
X027837Y009630D01*
X027716Y009680D01*
X027584Y009680D01*
X027463Y009630D01*
X027370Y009537D01*
X027320Y009416D01*
X027320Y009284D01*
X027370Y009163D01*
X027463Y009070D01*
X027535Y009041D01*
X027535Y008700D01*
X027435Y008700D01*
X027435Y009095D01*
X027209Y009095D01*
X027171Y009085D01*
X027137Y009065D01*
X027136Y009065D01*
X027125Y009075D01*
X026506Y009075D01*
X026429Y008999D01*
X026429Y008830D01*
X025725Y008830D01*
X025683Y008872D01*
X025741Y008929D01*
X025800Y009072D01*
X025800Y009228D01*
X025741Y009371D01*
X025631Y009481D01*
X025488Y009540D01*
X025015Y009540D01*
X024806Y009748D01*
X024858Y009740D01*
X025120Y009740D01*
X025120Y010120D01*
X024480Y010120D01*
X024480Y010118D01*
X024488Y010066D01*
X024225Y010330D01*
X023030Y010330D01*
X023030Y018725D01*
X023125Y018725D01*
X023136Y018735D01*
X023137Y018735D01*
X023171Y018715D01*
X023209Y018705D01*
X023435Y018705D01*
X023435Y019100D01*
X023535Y019100D01*
X023535Y019200D01*
X023891Y019200D01*
X023891Y019465D01*
X023880Y019503D01*
X023861Y019537D01*
X023833Y019565D01*
X023798Y019585D01*
X023760Y019595D01*
X023535Y019595D01*
X023535Y019200D01*
X023435Y019200D01*
X023435Y019595D01*
X023209Y019595D01*
X023171Y019585D01*
X023137Y019565D01*
X023136Y019565D01*
X023125Y019575D01*
X023030Y019575D01*
X023030Y019725D01*
X023125Y019725D01*
X023136Y019735D01*
X023137Y019735D01*
X023171Y019715D01*
X023209Y019705D01*
X023435Y019705D01*
X023435Y020100D01*
X023535Y020100D01*
X023535Y020200D01*
X023891Y020200D01*
X023891Y020465D01*
X023880Y020503D01*
X023861Y020537D01*
X023833Y020565D01*
X023798Y020585D01*
X023760Y020595D01*
X023535Y020595D01*
X023535Y020200D01*
X023435Y020200D01*
X023435Y020595D01*
X023209Y020595D01*
X023171Y020585D01*
X023137Y020565D01*
X023136Y020565D01*
X023125Y020575D01*
X022506Y020575D01*
X022429Y020499D01*
X022429Y020030D01*
X021374Y020030D01*
X021374Y020055D02*
X022429Y020055D01*
X022429Y020153D02*
X021350Y020153D01*
X021105Y020350D02*
X022429Y020350D01*
X022429Y020252D02*
X021006Y020252D01*
X021203Y020449D02*
X022429Y020449D01*
X022477Y020547D02*
X021302Y020547D01*
X021400Y020646D02*
X024300Y020646D01*
X024201Y020744D02*
X021499Y020744D01*
X021597Y020843D02*
X024103Y020843D01*
X024004Y020941D02*
X021696Y020941D01*
X021794Y021040D02*
X023906Y021040D01*
X023807Y021138D02*
X021893Y021138D01*
X021991Y021237D02*
X022494Y021237D01*
X022429Y021335D02*
X022090Y021335D01*
X022188Y021434D02*
X022429Y021434D01*
X022150Y021650D02*
X020650Y020150D01*
X020650Y016650D01*
X022150Y015150D01*
X021613Y015425D02*
X021089Y015425D01*
X021191Y015327D02*
X021541Y015327D01*
X021500Y015228D02*
X021500Y015072D01*
X021497Y015031D02*
X021517Y015031D01*
X021285Y014736D02*
X020856Y014736D01*
X020761Y014834D02*
X021183Y014834D01*
X021081Y014933D02*
X020665Y014933D01*
X020569Y015031D02*
X020979Y015031D01*
X020877Y015130D02*
X018384Y015130D01*
X018483Y015228D02*
X020775Y015228D01*
X020824Y015430D02*
X018431Y015430D01*
X017150Y014150D01*
X017480Y014145D02*
X017820Y014145D01*
X017831Y014243D02*
X017498Y014243D01*
X017596Y014342D02*
X017875Y014342D01*
X017988Y014440D02*
X017695Y014440D01*
X017793Y014539D02*
X018260Y014539D01*
X018350Y014637D02*
X017892Y014637D01*
X017990Y014736D02*
X018440Y014736D01*
X018529Y014834D02*
X018089Y014834D01*
X018187Y014933D02*
X018619Y014933D01*
X018709Y015031D02*
X018286Y015031D01*
X018072Y015327D02*
X012934Y015327D01*
X012930Y015337D02*
X012837Y015430D01*
X012716Y015480D01*
X012584Y015480D01*
X012463Y015430D01*
X012370Y015337D01*
X012367Y015330D01*
X011575Y015330D01*
X011575Y015625D01*
X011565Y015636D01*
X011565Y015637D01*
X011585Y015671D01*
X011595Y015709D01*
X011595Y015935D01*
X011200Y015935D01*
X011200Y016035D01*
X011100Y016035D01*
X011100Y016391D01*
X010835Y016391D01*
X010797Y016380D01*
X010763Y016361D01*
X010735Y016333D01*
X010715Y016298D01*
X010705Y016260D01*
X010705Y016035D01*
X011100Y016035D01*
X011100Y015935D01*
X010705Y015935D01*
X010705Y015709D01*
X010715Y015671D01*
X010735Y015637D01*
X010735Y015636D01*
X010725Y015625D01*
X010725Y015430D01*
X009778Y015430D01*
X009694Y015515D01*
X009536Y015580D01*
X008764Y015580D01*
X008606Y015515D01*
X008485Y015394D01*
X008420Y015236D01*
X008420Y015064D01*
X008485Y014906D01*
X008606Y014785D01*
X008764Y014720D01*
X009536Y014720D01*
X009694Y014785D01*
X009815Y014906D01*
X009880Y015064D01*
X009880Y015070D01*
X010725Y015070D01*
X010725Y015006D01*
X010801Y014929D01*
X011499Y014929D01*
X011540Y014970D01*
X012367Y014970D01*
X012370Y014963D01*
X012463Y014870D01*
X012584Y014820D01*
X012716Y014820D01*
X012837Y014870D01*
X012930Y014963D01*
X012980Y015084D01*
X012980Y015216D01*
X012930Y015337D01*
X012975Y015228D02*
X017974Y015228D01*
X017875Y015130D02*
X012980Y015130D01*
X012958Y015031D02*
X017777Y015031D01*
X017678Y014933D02*
X012899Y014933D01*
X012750Y014834D02*
X017580Y014834D01*
X017481Y014736D02*
X009573Y014736D01*
X009555Y014589D02*
X009485Y014600D01*
X009200Y014600D01*
X009200Y014200D01*
X009100Y014200D01*
X009100Y014600D01*
X008815Y014600D01*
X008745Y014589D01*
X008677Y014567D01*
X008614Y014535D01*
X008557Y014493D01*
X008507Y014443D01*
X008465Y014386D01*
X008433Y014323D01*
X008411Y014255D01*
X008402Y014200D01*
X009100Y014200D01*
X009100Y014100D01*
X009200Y014100D01*
X009200Y014200D01*
X009898Y014200D01*
X009889Y014255D01*
X009867Y014323D01*
X009835Y014386D01*
X009793Y014443D01*
X009743Y014493D01*
X009686Y014535D01*
X009623Y014567D01*
X009555Y014589D01*
X009679Y014539D02*
X017284Y014539D01*
X017383Y014637D02*
X001100Y014637D01*
X001100Y014539D02*
X008621Y014539D01*
X008504Y014440D02*
X001100Y014440D01*
X001100Y014342D02*
X008443Y014342D01*
X008409Y014243D02*
X001100Y014243D01*
X001100Y014145D02*
X009100Y014145D01*
X009100Y014100D02*
X008402Y014100D01*
X008411Y014045D01*
X008433Y013977D01*
X008465Y013914D01*
X008507Y013857D01*
X008557Y013807D01*
X008614Y013765D01*
X008677Y013733D01*
X008745Y013711D01*
X008815Y013700D01*
X009100Y013700D01*
X009100Y014100D01*
X009100Y014046D02*
X009200Y014046D01*
X009200Y014100D02*
X009200Y013700D01*
X009485Y013700D01*
X009555Y013711D01*
X009623Y013733D01*
X009686Y013765D01*
X009743Y013807D01*
X009793Y013857D01*
X009835Y013914D01*
X009867Y013977D01*
X009889Y014045D01*
X009898Y014100D01*
X009200Y014100D01*
X009200Y014145D02*
X010705Y014145D01*
X010705Y014243D02*
X009891Y014243D01*
X009857Y014342D02*
X010744Y014342D01*
X010705Y014046D02*
X009889Y014046D01*
X009852Y013948D02*
X011100Y013948D01*
X011100Y014046D02*
X011200Y014046D01*
X011200Y014035D02*
X011200Y014391D01*
X011465Y014391D01*
X011503Y014380D01*
X011537Y014361D01*
X011565Y014333D01*
X011585Y014298D01*
X011595Y014260D01*
X011595Y014035D01*
X011200Y014035D01*
X011200Y013948D02*
X012600Y013948D01*
X012600Y014046D02*
X012700Y014046D01*
X012700Y014035D02*
X012700Y014391D01*
X012965Y014391D01*
X013003Y014380D01*
X013037Y014361D01*
X013065Y014333D01*
X013085Y014298D01*
X013095Y014260D01*
X013095Y014035D01*
X012700Y014035D01*
X012700Y013948D02*
X016886Y013948D01*
X016836Y014046D02*
X013095Y014046D01*
X013095Y014145D02*
X016820Y014145D01*
X016831Y014243D02*
X013095Y014243D01*
X013056Y014342D02*
X016875Y014342D01*
X016988Y014440D02*
X009796Y014440D01*
X009742Y014834D02*
X012550Y014834D01*
X012401Y014933D02*
X011502Y014933D01*
X011150Y015150D02*
X011150Y015250D01*
X011150Y015315D01*
X011150Y015250D02*
X009250Y015250D01*
X009150Y015150D01*
X008727Y014736D02*
X001100Y014736D01*
X001100Y014834D02*
X008558Y014834D01*
X008475Y014933D02*
X001100Y014933D01*
X001100Y015031D02*
X008434Y015031D01*
X008420Y015130D02*
X001100Y015130D01*
X001100Y015228D02*
X008420Y015228D01*
X008458Y015327D02*
X001100Y015327D01*
X001100Y015425D02*
X008517Y015425D01*
X008628Y015524D02*
X001100Y015524D01*
X001100Y015622D02*
X010725Y015622D01*
X010725Y015524D02*
X009672Y015524D01*
X009866Y015031D02*
X010725Y015031D01*
X010798Y014933D02*
X009825Y014933D01*
X009200Y014539D02*
X009100Y014539D01*
X009100Y014440D02*
X009200Y014440D01*
X009200Y014342D02*
X009100Y014342D01*
X009100Y014243D02*
X009200Y014243D01*
X009200Y013948D02*
X009100Y013948D01*
X009100Y013849D02*
X009200Y013849D01*
X009200Y013751D02*
X009100Y013751D01*
X008701Y013554D02*
X001100Y013554D01*
X001100Y013652D02*
X010726Y013652D01*
X010725Y013554D02*
X009599Y013554D01*
X009753Y013455D02*
X010725Y013455D01*
X010705Y013751D02*
X009657Y013751D01*
X009785Y013849D02*
X010705Y013849D01*
X011100Y014145D02*
X011200Y014145D01*
X011200Y014243D02*
X011100Y014243D01*
X011100Y014342D02*
X011200Y014342D01*
X011556Y014342D02*
X012244Y014342D01*
X012205Y014243D02*
X011595Y014243D01*
X011595Y014145D02*
X012205Y014145D01*
X012205Y014046D02*
X011595Y014046D01*
X011595Y013849D02*
X012205Y013849D01*
X012205Y013751D02*
X011595Y013751D01*
X011574Y013652D02*
X012226Y013652D01*
X012225Y013554D02*
X011575Y013554D01*
X011150Y013350D02*
X011150Y013315D01*
X011150Y013311D01*
X011134Y013311D01*
X011150Y013311D02*
X012645Y013311D01*
X012650Y013350D01*
X012650Y013315D01*
X012645Y013311D02*
X012662Y013294D01*
X015150Y013294D01*
X015150Y012150D01*
X015150Y013150D01*
X015150Y013294D02*
X020006Y013294D01*
X022150Y011150D01*
X022150Y010150D01*
X022850Y010150D01*
X022721Y009909D02*
X024136Y009909D01*
X024235Y009811D02*
X022610Y009811D01*
X022506Y009550D02*
X022442Y009560D01*
X022180Y009560D01*
X022180Y009180D01*
X022120Y009180D01*
X022120Y009560D01*
X021858Y009560D01*
X021794Y009550D01*
X021733Y009530D01*
X021675Y009501D01*
X021623Y009463D01*
X021577Y009417D01*
X021539Y009365D01*
X021510Y009307D01*
X021490Y009246D01*
X021480Y009182D01*
X021480Y009180D01*
X022120Y009180D01*
X022120Y009120D01*
X022180Y009120D01*
X022180Y009180D01*
X022820Y009180D01*
X022820Y009182D01*
X022810Y009246D01*
X022790Y009307D01*
X022761Y009365D01*
X022723Y009417D01*
X022677Y009463D01*
X022625Y009501D01*
X022567Y009530D01*
X022506Y009550D01*
X022597Y009515D02*
X024530Y009515D01*
X024605Y009417D02*
X022723Y009417D01*
X022785Y009318D02*
X024537Y009318D01*
X024500Y009220D02*
X022814Y009220D01*
X022820Y009120D02*
X022180Y009120D01*
X022180Y008740D01*
X022442Y008740D01*
X022506Y008750D01*
X022567Y008770D01*
X022625Y008799D01*
X022677Y008837D01*
X022723Y008883D01*
X022761Y008935D01*
X022790Y008993D01*
X022810Y009054D01*
X022820Y009118D01*
X022820Y009120D01*
X022800Y009023D02*
X024521Y009023D01*
X024500Y009121D02*
X022180Y009121D01*
X022120Y009121D02*
X020650Y009121D01*
X020650Y009023D02*
X021500Y009023D01*
X021510Y008993D02*
X021539Y008935D01*
X021577Y008883D01*
X021623Y008837D01*
X021675Y008799D01*
X021733Y008770D01*
X021794Y008750D01*
X021858Y008740D01*
X022120Y008740D01*
X022120Y009120D01*
X021480Y009120D01*
X021480Y009118D01*
X021490Y009054D01*
X021510Y008993D01*
X021547Y008924D02*
X020650Y008924D01*
X020650Y008826D02*
X021639Y008826D01*
X021788Y008530D02*
X020650Y008530D01*
X020650Y008432D02*
X021620Y008432D01*
X021669Y008481D02*
X021559Y008371D01*
X021500Y008228D01*
X021500Y008072D01*
X021559Y007929D01*
X021669Y007819D01*
X021812Y007760D01*
X022488Y007760D01*
X022631Y007819D01*
X022741Y007929D01*
X022800Y008072D01*
X022800Y008228D01*
X022741Y008371D01*
X022631Y008481D01*
X022488Y008540D01*
X021812Y008540D01*
X021669Y008481D01*
X021544Y008333D02*
X020650Y008333D01*
X020650Y008235D02*
X021503Y008235D01*
X021500Y008136D02*
X020650Y008136D01*
X020650Y008038D02*
X021514Y008038D01*
X021555Y007939D02*
X020650Y007939D01*
X020650Y007841D02*
X021648Y007841D01*
X021650Y007644D02*
X024389Y007644D01*
X024487Y007742D02*
X020650Y007742D01*
X021150Y007150D02*
X022150Y007150D01*
X022665Y007447D02*
X024270Y007447D01*
X024270Y007348D02*
X022750Y007348D01*
X022791Y007250D02*
X024270Y007250D01*
X024270Y007151D02*
X022800Y007151D01*
X022792Y007053D02*
X024270Y007053D01*
X024270Y006954D02*
X022751Y006954D01*
X022667Y006856D02*
X024270Y006856D01*
X024270Y006757D02*
X021650Y006757D01*
X021650Y006659D02*
X024270Y006659D01*
X024270Y006560D02*
X021650Y006560D01*
X022150Y006150D02*
X021150Y006150D01*
X021650Y005772D02*
X021783Y005772D01*
X021650Y005674D02*
X024270Y005674D01*
X024270Y005772D02*
X022517Y005772D01*
X022682Y005871D02*
X024270Y005871D01*
X024270Y005969D02*
X022757Y005969D01*
X022798Y006068D02*
X024270Y006068D01*
X024270Y006166D02*
X022800Y006166D01*
X022785Y006265D02*
X024270Y006265D01*
X024270Y006363D02*
X022744Y006363D01*
X022650Y006462D02*
X024270Y006462D01*
X024450Y007450D02*
X024450Y002950D01*
X025550Y001850D01*
X025412Y001734D02*
X021650Y001734D01*
X021650Y001832D02*
X025313Y001832D01*
X025215Y001931D02*
X021650Y001931D01*
X021650Y002029D02*
X025116Y002029D01*
X025018Y002128D02*
X021650Y002128D01*
X021650Y002226D02*
X024919Y002226D01*
X024821Y002325D02*
X021650Y002325D01*
X021650Y002423D02*
X024722Y002423D01*
X024624Y002522D02*
X021650Y002522D01*
X021650Y002620D02*
X024525Y002620D01*
X024427Y002719D02*
X021650Y002719D01*
X021650Y002817D02*
X021675Y002817D01*
X022150Y003150D02*
X021150Y003150D01*
X021650Y003507D02*
X021732Y003507D01*
X021650Y003605D02*
X024270Y003605D01*
X024270Y003507D02*
X022568Y003507D01*
X022704Y003408D02*
X024270Y003408D01*
X024270Y003310D02*
X022766Y003310D01*
X022800Y003211D02*
X024270Y003211D01*
X024270Y003113D02*
X022800Y003113D01*
X022776Y003014D02*
X024270Y003014D01*
X024270Y002916D02*
X022727Y002916D01*
X022625Y002817D02*
X024328Y002817D01*
X025150Y003150D02*
X026815Y003150D01*
X028057Y003802D02*
X028590Y003802D01*
X028491Y003901D02*
X028155Y003901D01*
X028254Y003999D02*
X028447Y003999D01*
X028420Y004098D02*
X028352Y004098D01*
X029100Y003507D02*
X029200Y003507D01*
X029200Y003408D02*
X029100Y003408D01*
X029100Y003310D02*
X029200Y003310D01*
X033030Y004689D02*
X035934Y004689D01*
X036032Y004787D02*
X033030Y004787D01*
X033030Y004886D02*
X036131Y004886D01*
X036229Y004984D02*
X033030Y004984D01*
X032972Y005083D02*
X036328Y005083D01*
X036426Y005181D02*
X032874Y005181D01*
X032775Y005280D02*
X036525Y005280D01*
X036623Y005378D02*
X034433Y005378D01*
X034531Y005477D02*
X036722Y005477D01*
X036820Y005575D02*
X034630Y005575D01*
X034650Y005850D02*
X034350Y005550D01*
X032750Y005550D01*
X032900Y006630D02*
X032950Y006650D01*
X032950Y008950D01*
X037150Y013150D01*
X038150Y013150D02*
X039150Y012150D01*
X039150Y009450D01*
X038350Y008650D01*
X037750Y008650D01*
X036450Y007350D01*
X036450Y006650D01*
X036400Y006630D01*
X035950Y006650D02*
X035900Y006630D01*
X035950Y006650D02*
X035950Y007250D01*
X037650Y008950D01*
X037650Y011350D01*
X037950Y011650D01*
X038350Y011650D01*
X038750Y012050D01*
X038970Y011803D02*
X038970Y009525D01*
X038545Y009100D01*
X038200Y009100D01*
X038200Y009200D01*
X038100Y009200D01*
X038100Y009600D01*
X037964Y009600D01*
X037830Y009466D01*
X037830Y009862D01*
X037972Y009720D01*
X038328Y009720D01*
X038580Y009972D01*
X038580Y010328D01*
X038328Y010580D01*
X037972Y010580D01*
X037830Y010438D01*
X037830Y010862D01*
X037972Y010720D01*
X038328Y010720D01*
X038580Y010972D01*
X038580Y011328D01*
X038431Y011477D01*
X038677Y011723D01*
X038684Y011720D01*
X038816Y011720D01*
X038937Y011770D01*
X038970Y011803D01*
X038970Y011781D02*
X038947Y011781D01*
X038970Y011682D02*
X038637Y011682D01*
X038538Y011584D02*
X038970Y011584D01*
X038970Y011485D02*
X038440Y011485D01*
X038522Y011387D02*
X038970Y011387D01*
X038970Y011288D02*
X038580Y011288D01*
X038580Y011190D02*
X038970Y011190D01*
X038970Y011091D02*
X038580Y011091D01*
X038580Y010993D02*
X038970Y010993D01*
X038970Y010894D02*
X038502Y010894D01*
X038404Y010796D02*
X038970Y010796D01*
X038970Y010697D02*
X037830Y010697D01*
X037830Y010599D02*
X038970Y010599D01*
X038970Y010500D02*
X038408Y010500D01*
X038507Y010402D02*
X038970Y010402D01*
X038970Y010303D02*
X038580Y010303D01*
X038580Y010205D02*
X038970Y010205D01*
X038970Y010106D02*
X038580Y010106D01*
X038580Y010008D02*
X038970Y010008D01*
X038970Y009909D02*
X038517Y009909D01*
X038419Y009811D02*
X038970Y009811D01*
X038970Y009712D02*
X037830Y009712D01*
X037830Y009614D02*
X038970Y009614D01*
X038960Y009515D02*
X038421Y009515D01*
X038336Y009600D02*
X038600Y009336D01*
X038600Y009200D01*
X038200Y009200D01*
X038200Y009600D01*
X038336Y009600D01*
X038200Y009515D02*
X038100Y009515D01*
X038100Y009417D02*
X038200Y009417D01*
X038200Y009318D02*
X038100Y009318D01*
X038100Y009220D02*
X038200Y009220D01*
X038200Y009121D02*
X038566Y009121D01*
X038600Y009220D02*
X038665Y009220D01*
X038600Y009318D02*
X038763Y009318D01*
X038862Y009417D02*
X038520Y009417D01*
X037879Y009515D02*
X037830Y009515D01*
X037470Y009515D02*
X037393Y009515D01*
X037470Y009614D02*
X035543Y009614D01*
X035543Y009559D02*
X035899Y009559D01*
X035899Y009294D01*
X035889Y009256D01*
X035869Y009221D01*
X035841Y009193D01*
X035807Y009174D01*
X035769Y009163D01*
X035543Y009163D01*
X035543Y009559D01*
X035543Y009515D02*
X035443Y009515D01*
X035443Y009417D02*
X035543Y009417D01*
X035543Y009318D02*
X035443Y009318D01*
X035443Y009220D02*
X035543Y009220D01*
X035867Y009220D02*
X036720Y009220D01*
X036720Y009318D02*
X035899Y009318D01*
X035899Y009417D02*
X036808Y009417D01*
X036907Y009515D02*
X035899Y009515D01*
X035899Y009712D02*
X037470Y009712D01*
X037470Y009811D02*
X037419Y009811D01*
X037830Y009811D02*
X037881Y009811D01*
X037892Y010500D02*
X037830Y010500D01*
X037830Y010796D02*
X037896Y010796D01*
X037470Y010796D02*
X037404Y010796D01*
X037470Y010697D02*
X036430Y010697D01*
X036430Y010599D02*
X037470Y010599D01*
X037470Y010500D02*
X037408Y010500D01*
X036892Y010500D02*
X036467Y010500D01*
X036544Y010402D02*
X036793Y010402D01*
X036720Y010303D02*
X036580Y010303D01*
X036580Y010205D02*
X036720Y010205D01*
X036720Y010106D02*
X036548Y010106D01*
X036881Y009811D02*
X035899Y009811D01*
X035543Y009811D02*
X035443Y009811D01*
X035443Y009909D02*
X035543Y009909D01*
X035543Y010008D02*
X035443Y010008D01*
X035443Y009712D02*
X035543Y009712D01*
X034850Y009550D02*
X034824Y009609D01*
X034850Y009550D02*
X034850Y008150D01*
X035450Y008150D02*
X035485Y008150D01*
X035450Y008150D02*
X035450Y006650D01*
X035400Y006630D01*
X035630Y007151D02*
X035707Y007151D01*
X035770Y007250D02*
X035630Y007250D01*
X035630Y007348D02*
X035793Y007348D01*
X035892Y007447D02*
X035630Y007447D01*
X035630Y007545D02*
X035990Y007545D01*
X036089Y007644D02*
X035630Y007644D01*
X035812Y007742D02*
X036187Y007742D01*
X036286Y007841D02*
X035871Y007841D01*
X035871Y007939D02*
X036384Y007939D01*
X036483Y008038D02*
X035871Y008038D01*
X035871Y008136D02*
X036581Y008136D01*
X036680Y008235D02*
X035871Y008235D01*
X035871Y008333D02*
X036778Y008333D01*
X036877Y008432D02*
X035871Y008432D01*
X035840Y008530D02*
X036975Y008530D01*
X037450Y007850D02*
X036950Y007350D01*
X036950Y006650D01*
X036900Y006630D01*
X037400Y006630D02*
X037450Y006650D01*
X037450Y007350D01*
X039350Y009250D01*
X039350Y012250D01*
X038650Y012950D01*
X036720Y011091D02*
X036646Y011091D01*
X036720Y010993D02*
X036547Y010993D01*
X036449Y010894D02*
X036798Y010894D01*
X036896Y010796D02*
X036430Y010796D01*
X035150Y012350D02*
X032150Y009350D01*
X027650Y009350D01*
X027347Y009220D02*
X025800Y009220D01*
X025800Y009121D02*
X027412Y009121D01*
X027435Y009023D02*
X027535Y009023D01*
X027535Y008924D02*
X027435Y008924D01*
X027435Y008826D02*
X027535Y008826D01*
X027535Y008727D02*
X027435Y008727D01*
X027535Y008629D02*
X031570Y008629D01*
X031570Y008530D02*
X029656Y008530D01*
X029777Y008432D02*
X031570Y008432D01*
X031506Y008727D02*
X027891Y008727D01*
X027891Y008600D02*
X027535Y008600D01*
X027535Y008205D01*
X027760Y008205D01*
X027798Y008215D01*
X027833Y008235D01*
X027861Y008263D01*
X027880Y008297D01*
X027891Y008335D01*
X027891Y008600D01*
X027891Y008530D02*
X028644Y008530D01*
X028523Y008432D02*
X027891Y008432D01*
X027890Y008333D02*
X028460Y008333D01*
X028420Y008235D02*
X027832Y008235D01*
X027535Y008235D02*
X027435Y008235D01*
X027435Y008333D02*
X027535Y008333D01*
X027535Y008432D02*
X027435Y008432D01*
X027435Y008530D02*
X027535Y008530D01*
X027137Y008235D02*
X027135Y008235D01*
X026714Y007841D02*
X028551Y007841D01*
X028472Y007939D02*
X026616Y007939D01*
X026517Y008038D02*
X028431Y008038D01*
X028420Y008136D02*
X026419Y008136D01*
X026496Y008235D02*
X026320Y008235D01*
X026222Y008333D02*
X026429Y008333D01*
X026429Y008432D02*
X026123Y008432D01*
X025650Y008650D02*
X026815Y008650D01*
X026429Y008924D02*
X025736Y008924D01*
X025779Y009023D02*
X026453Y009023D01*
X025763Y009318D02*
X027320Y009318D01*
X027320Y009417D02*
X025695Y009417D01*
X025548Y009515D02*
X027361Y009515D01*
X027447Y009614D02*
X024941Y009614D01*
X024843Y009712D02*
X029120Y009712D01*
X029120Y009811D02*
X025640Y009811D01*
X025625Y009799D02*
X025677Y009837D01*
X025723Y009883D01*
X025761Y009935D01*
X025790Y009993D01*
X025810Y010054D01*
X025820Y010118D01*
X025820Y010120D01*
X025180Y010120D01*
X025180Y010180D01*
X025120Y010180D01*
X025120Y010560D01*
X024858Y010560D01*
X024794Y010550D01*
X024733Y010530D01*
X024675Y010501D01*
X024623Y010463D01*
X024577Y010417D01*
X024539Y010365D01*
X024510Y010307D01*
X024490Y010246D01*
X024480Y010182D01*
X024480Y010180D01*
X025120Y010180D01*
X025120Y010120D01*
X025180Y010120D01*
X025180Y009740D01*
X025442Y009740D01*
X025506Y009750D01*
X025567Y009770D01*
X025625Y009799D01*
X025742Y009909D02*
X029159Y009909D01*
X029241Y010008D02*
X025795Y010008D01*
X025818Y010106D02*
X030151Y010106D01*
X030053Y010008D02*
X029659Y010008D01*
X029760Y010205D02*
X029798Y010215D01*
X029833Y010235D01*
X029861Y010263D01*
X029880Y010297D01*
X029891Y010335D01*
X029891Y010600D01*
X029535Y010600D01*
X029535Y010700D01*
X029891Y010700D01*
X029891Y010965D01*
X029880Y011003D01*
X029861Y011037D01*
X029833Y011065D01*
X029798Y011085D01*
X029760Y011095D01*
X029535Y011095D01*
X029535Y010700D01*
X029435Y010700D01*
X029435Y011095D01*
X029209Y011095D01*
X029171Y011085D01*
X029137Y011065D01*
X029136Y011065D01*
X029125Y011075D01*
X028506Y011075D01*
X028429Y010999D01*
X028429Y010830D01*
X027674Y010830D01*
X027667Y010848D01*
X027568Y010947D01*
X027440Y011000D01*
X027055Y011000D01*
X026725Y011330D01*
X025758Y011330D01*
X025741Y011371D01*
X025631Y011481D01*
X025488Y011540D01*
X024812Y011540D01*
X024669Y011481D01*
X024559Y011371D01*
X024500Y011228D01*
X024500Y011072D01*
X024559Y010929D01*
X024669Y010819D01*
X024812Y010760D01*
X025488Y010760D01*
X025631Y010819D01*
X025741Y010929D01*
X025758Y010970D01*
X026575Y010970D01*
X026665Y010880D01*
X026633Y010848D01*
X026580Y010720D01*
X026580Y010580D01*
X026633Y010452D01*
X026732Y010353D01*
X026860Y010300D01*
X027440Y010300D01*
X027568Y010353D01*
X027667Y010452D01*
X027674Y010470D01*
X028429Y010470D01*
X028429Y010301D01*
X028506Y010225D01*
X029125Y010225D01*
X029136Y010235D01*
X029137Y010235D01*
X029171Y010215D01*
X029209Y010205D01*
X029435Y010205D01*
X029435Y010600D01*
X029535Y010600D01*
X029535Y010205D01*
X029760Y010205D01*
X029882Y010303D02*
X030348Y010303D01*
X030250Y010205D02*
X025816Y010205D01*
X025820Y010182D02*
X025810Y010246D01*
X025790Y010307D01*
X025761Y010365D01*
X025723Y010417D01*
X025677Y010463D01*
X025625Y010501D01*
X025567Y010530D01*
X025506Y010550D01*
X025442Y010560D01*
X025180Y010560D01*
X025180Y010180D01*
X025820Y010180D01*
X025820Y010182D01*
X025791Y010303D02*
X026853Y010303D01*
X026684Y010402D02*
X025734Y010402D01*
X025626Y010500D02*
X026613Y010500D01*
X026580Y010599D02*
X023030Y010599D01*
X023030Y010697D02*
X026580Y010697D01*
X026611Y010796D02*
X025573Y010796D01*
X025706Y010894D02*
X026651Y010894D01*
X026650Y011150D02*
X027150Y010650D01*
X028815Y010650D01*
X028429Y010894D02*
X027621Y010894D01*
X027458Y010993D02*
X028429Y010993D01*
X028429Y010402D02*
X027616Y010402D01*
X027447Y010303D02*
X028429Y010303D01*
X027853Y009614D02*
X029149Y009614D01*
X029450Y009750D02*
X030050Y009750D01*
X036950Y016650D01*
X036650Y016850D02*
X036050Y016250D01*
X035817Y016016D02*
X033571Y016016D01*
X033669Y016115D02*
X035749Y016115D01*
X035720Y016213D02*
X033768Y016213D01*
X033866Y016312D02*
X035720Y016312D01*
X035759Y016410D02*
X033965Y016410D01*
X034063Y016509D02*
X035842Y016509D01*
X036152Y016607D02*
X034162Y016607D01*
X034260Y016706D02*
X036251Y016706D01*
X036349Y016804D02*
X034359Y016804D01*
X034457Y016903D02*
X036448Y016903D01*
X036546Y017001D02*
X034556Y017001D01*
X034654Y017100D02*
X039570Y017100D01*
X039570Y017198D02*
X034753Y017198D01*
X034851Y017297D02*
X039570Y017297D01*
X039570Y017395D02*
X034950Y017395D01*
X035048Y017494D02*
X039570Y017494D01*
X039570Y017592D02*
X035147Y017592D01*
X035245Y017691D02*
X039570Y017691D01*
X039570Y017789D02*
X035344Y017789D01*
X035442Y017888D02*
X039570Y017888D01*
X039570Y017986D02*
X035541Y017986D01*
X035639Y018085D02*
X039570Y018085D01*
X039570Y018183D02*
X035738Y018183D01*
X035836Y018282D02*
X039570Y018282D01*
X039570Y018380D02*
X035935Y018380D01*
X036033Y018479D02*
X039570Y018479D01*
X039570Y018577D02*
X036132Y018577D01*
X036188Y018633D02*
X036226Y018595D01*
X036686Y018595D01*
X037011Y018920D01*
X037011Y019380D01*
X036686Y019705D01*
X036226Y019705D01*
X035901Y019380D01*
X035901Y018920D01*
X035933Y018888D01*
X030375Y013330D01*
X025758Y013330D01*
X025741Y013371D01*
X025631Y013481D01*
X025488Y013540D01*
X024812Y013540D01*
X024669Y013481D01*
X024559Y013371D01*
X024500Y013228D01*
X024500Y013072D01*
X024559Y012929D01*
X024669Y012819D01*
X024812Y012760D01*
X025488Y012760D01*
X025631Y012819D01*
X025741Y012929D01*
X025758Y012970D01*
X026788Y012970D01*
X026732Y012947D01*
X026633Y012848D01*
X026580Y012720D01*
X026580Y012580D01*
X026633Y012452D01*
X026665Y012420D01*
X026575Y012330D01*
X025758Y012330D01*
X025741Y012371D01*
X025631Y012481D01*
X025488Y012540D01*
X024812Y012540D01*
X024669Y012481D01*
X024559Y012371D01*
X024500Y012228D01*
X024500Y012072D01*
X024559Y011929D01*
X024669Y011819D01*
X024812Y011760D01*
X025488Y011760D01*
X025631Y011819D01*
X025741Y011929D01*
X025758Y011970D01*
X026725Y011970D01*
X027055Y012300D01*
X027440Y012300D01*
X027568Y012353D01*
X027667Y012452D01*
X027674Y012470D01*
X028429Y012470D01*
X028429Y012301D01*
X028506Y012225D01*
X029125Y012225D01*
X029136Y012235D01*
X029137Y012235D01*
X029171Y012215D01*
X029209Y012205D01*
X029435Y012205D01*
X029435Y012600D01*
X029535Y012600D01*
X029535Y012700D01*
X029891Y012700D01*
X029891Y012965D01*
X029889Y012970D01*
X030525Y012970D01*
X036188Y018633D01*
X035918Y018873D02*
X032114Y018873D01*
X032141Y018971D02*
X035901Y018971D01*
X035901Y019070D02*
X032150Y019070D01*
X032150Y019005D02*
X032075Y018725D01*
X031930Y018475D01*
X031725Y018270D01*
X031475Y018125D01*
X031195Y018050D01*
X030905Y018050D01*
X030625Y018125D01*
X030375Y018270D01*
X030170Y018475D01*
X030025Y018725D01*
X029950Y019005D01*
X029950Y019295D01*
X030025Y019575D01*
X030170Y019825D01*
X030375Y020030D01*
X030625Y020175D01*
X030905Y020250D01*
X031195Y020250D01*
X031475Y020175D01*
X031725Y020030D01*
X031930Y019825D01*
X032075Y019575D01*
X032150Y019295D01*
X032150Y019005D01*
X032150Y019168D02*
X035901Y019168D01*
X035901Y019267D02*
X032150Y019267D01*
X032131Y019365D02*
X035901Y019365D01*
X035985Y019464D02*
X032105Y019464D01*
X032078Y019562D02*
X036083Y019562D01*
X036182Y019661D02*
X032025Y019661D01*
X031969Y019759D02*
X039570Y019759D01*
X039570Y019661D02*
X036731Y019661D01*
X036829Y019562D02*
X039570Y019562D01*
X039570Y019464D02*
X036928Y019464D01*
X037011Y019365D02*
X039570Y019365D01*
X039570Y019267D02*
X037011Y019267D01*
X037011Y019168D02*
X039570Y019168D01*
X039570Y019070D02*
X037011Y019070D01*
X037011Y018971D02*
X039570Y018971D01*
X039570Y018873D02*
X036964Y018873D01*
X036865Y018774D02*
X039570Y018774D01*
X039570Y018676D02*
X036767Y018676D01*
X036456Y019150D02*
X036450Y019150D01*
X030450Y013150D01*
X025150Y013150D01*
X025501Y012766D02*
X026599Y012766D01*
X026580Y012667D02*
X023030Y012667D01*
X023030Y012569D02*
X026585Y012569D01*
X026626Y012470D02*
X025642Y012470D01*
X025740Y012372D02*
X026617Y012372D01*
X026650Y012150D02*
X027150Y012650D01*
X028815Y012650D01*
X028429Y012372D02*
X027587Y012372D01*
X027028Y012273D02*
X028457Y012273D01*
X029435Y012273D02*
X029535Y012273D01*
X029535Y012205D02*
X029760Y012205D01*
X029798Y012215D01*
X029833Y012235D01*
X029861Y012263D01*
X029880Y012297D01*
X029891Y012335D01*
X029891Y012600D01*
X029535Y012600D01*
X029535Y012205D01*
X029535Y012372D02*
X029435Y012372D01*
X029435Y012470D02*
X029535Y012470D01*
X029535Y012569D02*
X029435Y012569D01*
X029535Y012667D02*
X032712Y012667D01*
X032614Y012569D02*
X029891Y012569D01*
X029891Y012470D02*
X032515Y012470D01*
X032417Y012372D02*
X029891Y012372D01*
X029867Y012273D02*
X032318Y012273D01*
X032220Y012175D02*
X026929Y012175D01*
X026831Y012076D02*
X032121Y012076D01*
X032023Y011978D02*
X026732Y011978D01*
X026650Y012150D02*
X025150Y012150D01*
X024658Y012470D02*
X023030Y012470D01*
X023030Y012372D02*
X024560Y012372D01*
X024519Y012273D02*
X023030Y012273D01*
X023030Y012175D02*
X024500Y012175D01*
X024500Y012076D02*
X023030Y012076D01*
X023030Y011978D02*
X024539Y011978D01*
X024609Y011879D02*
X023030Y011879D01*
X023030Y011781D02*
X024763Y011781D01*
X024680Y011485D02*
X023030Y011485D01*
X023030Y011387D02*
X024575Y011387D01*
X024525Y011288D02*
X023030Y011288D01*
X023030Y011190D02*
X024500Y011190D01*
X024500Y011091D02*
X023030Y011091D01*
X023030Y010993D02*
X024533Y010993D01*
X024594Y010894D02*
X023030Y010894D01*
X023030Y010796D02*
X024727Y010796D01*
X024674Y010500D02*
X023030Y010500D01*
X023030Y010402D02*
X024566Y010402D01*
X024509Y010303D02*
X024252Y010303D01*
X024350Y010205D02*
X024484Y010205D01*
X024482Y010106D02*
X024449Y010106D01*
X024333Y009712D02*
X020650Y009712D01*
X020650Y009614D02*
X024432Y009614D01*
X025120Y009811D02*
X025180Y009811D01*
X025180Y009909D02*
X025120Y009909D01*
X025120Y010008D02*
X025180Y010008D01*
X025180Y010106D02*
X025120Y010106D01*
X025120Y010205D02*
X025180Y010205D01*
X025180Y010303D02*
X025120Y010303D01*
X025120Y010402D02*
X025180Y010402D01*
X025180Y010500D02*
X025120Y010500D01*
X025150Y011150D02*
X026650Y011150D01*
X026767Y011288D02*
X031333Y011288D01*
X031235Y011190D02*
X026865Y011190D01*
X026964Y011091D02*
X029193Y011091D01*
X029435Y011091D02*
X029535Y011091D01*
X029535Y010993D02*
X029435Y010993D01*
X029435Y010894D02*
X029535Y010894D01*
X029535Y010796D02*
X029435Y010796D01*
X029535Y010697D02*
X030742Y010697D01*
X030644Y010599D02*
X029891Y010599D01*
X029891Y010500D02*
X030545Y010500D01*
X030447Y010402D02*
X029891Y010402D01*
X029535Y010402D02*
X029435Y010402D01*
X029435Y010500D02*
X029535Y010500D01*
X029535Y010599D02*
X029435Y010599D01*
X029891Y010796D02*
X030841Y010796D01*
X030939Y010894D02*
X029891Y010894D01*
X029883Y010993D02*
X031038Y010993D01*
X031136Y011091D02*
X029776Y011091D01*
X029535Y010303D02*
X029435Y010303D01*
X031432Y011387D02*
X025725Y011387D01*
X025620Y011485D02*
X031530Y011485D01*
X031629Y011584D02*
X023030Y011584D01*
X023030Y011682D02*
X031727Y011682D01*
X031826Y011781D02*
X025537Y011781D01*
X025691Y011879D02*
X031924Y011879D01*
X032811Y012766D02*
X029891Y012766D01*
X029891Y012864D02*
X032909Y012864D01*
X033008Y012963D02*
X029891Y012963D01*
X030402Y013357D02*
X025747Y013357D01*
X025657Y013455D02*
X030500Y013455D01*
X030599Y013554D02*
X023030Y013554D01*
X023030Y013652D02*
X030697Y013652D01*
X030796Y013751D02*
X023030Y013751D01*
X023030Y013849D02*
X024639Y013849D01*
X024669Y013819D02*
X024812Y013760D01*
X025488Y013760D01*
X025631Y013819D01*
X025741Y013929D01*
X025800Y014072D01*
X025800Y014228D01*
X025741Y014371D01*
X025683Y014428D01*
X026225Y014970D01*
X026330Y015075D01*
X026330Y021625D01*
X023830Y024125D01*
X023725Y024230D01*
X006475Y024230D01*
X005275Y023030D01*
X005170Y022925D01*
X005170Y020375D01*
X005569Y019977D01*
X005485Y019894D01*
X005420Y019736D01*
X005420Y019564D01*
X005485Y019406D01*
X005606Y019285D01*
X005764Y019220D01*
X006536Y019220D01*
X006694Y019285D01*
X006815Y019406D01*
X006880Y019564D01*
X006880Y019736D01*
X006815Y019894D01*
X006694Y020015D01*
X006536Y020080D01*
X005975Y020080D01*
X005835Y020220D01*
X006536Y020220D01*
X006694Y020285D01*
X006815Y020406D01*
X006828Y020440D01*
X007185Y020440D01*
X007185Y020435D01*
X007262Y020359D01*
X008038Y020359D01*
X008115Y020435D01*
X008115Y020440D01*
X008393Y020440D01*
X008463Y020370D01*
X008584Y020320D01*
X008716Y020320D01*
X008837Y020370D01*
X008930Y020463D01*
X008980Y020584D01*
X008980Y020716D01*
X008930Y020837D01*
X008837Y020930D01*
X008716Y020980D01*
X008584Y020980D01*
X008463Y020930D01*
X008393Y020860D01*
X008115Y020860D01*
X008115Y021251D01*
X008038Y021327D01*
X007770Y021327D01*
X007737Y021360D01*
X007563Y021360D01*
X007530Y021327D01*
X007262Y021327D01*
X007185Y021251D01*
X007185Y020860D01*
X006828Y020860D01*
X006815Y020894D01*
X006694Y021015D01*
X006536Y021080D01*
X005764Y021080D01*
X005606Y021015D01*
X005530Y020938D01*
X005530Y021334D01*
X005557Y021307D01*
X005614Y021265D01*
X005677Y021233D01*
X005745Y021211D01*
X005815Y021200D01*
X006100Y021200D01*
X006100Y021600D01*
X006200Y021600D01*
X006200Y021700D01*
X006100Y021700D01*
X006100Y022100D01*
X005815Y022100D01*
X005745Y022089D01*
X005677Y022067D01*
X005614Y022035D01*
X005557Y021993D01*
X005530Y021966D01*
X005530Y022362D01*
X005606Y022285D01*
X005764Y022220D01*
X006536Y022220D01*
X006694Y022285D01*
X006815Y022406D01*
X006828Y022440D01*
X007185Y022440D01*
X007185Y022049D01*
X007262Y021973D01*
X008038Y021973D01*
X008115Y022049D01*
X008115Y022440D01*
X014751Y022440D01*
X016940Y020250D01*
X016922Y020207D01*
X016922Y020031D01*
X016989Y019870D01*
X017113Y019746D01*
X017274Y019679D01*
X017450Y019679D01*
X017502Y019701D01*
X017563Y019640D01*
X018926Y019640D01*
X018926Y019391D01*
X019002Y019315D01*
X019503Y019315D01*
X019579Y019391D01*
X019579Y020129D01*
X019503Y020205D01*
X019002Y020205D01*
X018926Y020129D01*
X018926Y020060D01*
X017802Y020060D01*
X017802Y020207D01*
X017735Y020368D01*
X017611Y020492D01*
X017450Y020559D01*
X017274Y020559D01*
X017240Y020545D01*
X015047Y022737D01*
X014924Y022860D01*
X008115Y022860D01*
X008115Y022865D01*
X008038Y022941D01*
X007262Y022941D01*
X007185Y022865D01*
X007185Y022860D01*
X006828Y022860D01*
X006815Y022894D01*
X006694Y023015D01*
X006536Y023080D01*
X005835Y023080D01*
X006625Y023870D01*
X018937Y023870D01*
X018937Y022684D01*
X020100Y022684D01*
X020100Y022584D01*
X020200Y022584D01*
X020200Y021264D01*
X021233Y021264D01*
X021271Y021274D01*
X021305Y021294D01*
X021333Y021322D01*
X021353Y021356D01*
X021363Y021394D01*
X021363Y022584D01*
X020200Y022584D01*
X020200Y022684D01*
X021363Y022684D01*
X021363Y023870D01*
X023575Y023870D01*
X025970Y021475D01*
X025970Y015225D01*
X025787Y015042D01*
X025800Y015072D01*
X025800Y015228D01*
X025970Y015228D01*
X025970Y015327D02*
X025759Y015327D01*
X025741Y015371D02*
X025631Y015481D01*
X025488Y015540D01*
X024812Y015540D01*
X024669Y015481D01*
X024559Y015371D01*
X024500Y015228D01*
X023030Y015228D01*
X023030Y015130D02*
X024500Y015130D01*
X024500Y015072D02*
X024559Y014929D01*
X024669Y014819D01*
X024812Y014760D01*
X025488Y014760D01*
X025518Y014773D01*
X025285Y014540D01*
X024812Y014540D01*
X024669Y014481D01*
X024559Y014371D01*
X024500Y014228D01*
X024500Y014072D01*
X024559Y013929D01*
X024669Y013819D01*
X024552Y013948D02*
X023030Y013948D01*
X023030Y014046D02*
X024511Y014046D01*
X024500Y014145D02*
X023030Y014145D01*
X023030Y014243D02*
X024506Y014243D01*
X024547Y014342D02*
X023030Y014342D01*
X023030Y014440D02*
X024628Y014440D01*
X024809Y014539D02*
X023030Y014539D01*
X023030Y014637D02*
X025382Y014637D01*
X025481Y014736D02*
X023030Y014736D01*
X023030Y014834D02*
X024654Y014834D01*
X024558Y014933D02*
X023030Y014933D01*
X023030Y015031D02*
X024517Y015031D01*
X024500Y015072D02*
X024500Y015228D01*
X024541Y015327D02*
X023030Y015327D01*
X023030Y015425D02*
X024613Y015425D01*
X024773Y015524D02*
X023030Y015524D01*
X023030Y015622D02*
X025970Y015622D01*
X025970Y015524D02*
X025527Y015524D01*
X025687Y015425D02*
X025970Y015425D01*
X025741Y015371D02*
X025800Y015228D01*
X025800Y015130D02*
X025875Y015130D01*
X026150Y015150D02*
X026150Y021550D01*
X023650Y024050D01*
X006550Y024050D01*
X005350Y022850D01*
X005350Y020450D01*
X006150Y019650D01*
X006597Y020055D02*
X016922Y020055D01*
X016922Y020153D02*
X005902Y020153D01*
X005548Y019956D02*
X001100Y019956D01*
X001100Y019858D02*
X005471Y019858D01*
X005430Y019759D02*
X001100Y019759D01*
X001100Y019661D02*
X005420Y019661D01*
X005421Y019562D02*
X001100Y019562D01*
X001100Y019464D02*
X005462Y019464D01*
X005527Y019365D02*
X001100Y019365D01*
X001100Y019267D02*
X005652Y019267D01*
X005491Y020055D02*
X001100Y020055D01*
X001100Y020153D02*
X005392Y020153D01*
X005294Y020252D02*
X001100Y020252D01*
X001100Y020350D02*
X005195Y020350D01*
X005170Y020449D02*
X001100Y020449D01*
X001100Y020547D02*
X005170Y020547D01*
X005170Y020646D02*
X001100Y020646D01*
X001100Y020744D02*
X005170Y020744D01*
X005170Y020843D02*
X001100Y020843D01*
X001100Y020941D02*
X005170Y020941D01*
X005170Y021040D02*
X001100Y021040D01*
X001100Y021138D02*
X005170Y021138D01*
X005170Y021237D02*
X001100Y021237D01*
X001100Y021335D02*
X005170Y021335D01*
X005170Y021434D02*
X001100Y021434D01*
X001100Y021532D02*
X005170Y021532D01*
X005170Y021631D02*
X001100Y021631D01*
X001100Y021729D02*
X005170Y021729D01*
X005170Y021828D02*
X001100Y021828D01*
X001100Y021926D02*
X005170Y021926D01*
X005170Y022025D02*
X001100Y022025D01*
X001100Y022123D02*
X005170Y022123D01*
X005170Y022222D02*
X001100Y022222D01*
X001100Y022320D02*
X005170Y022320D01*
X005170Y022419D02*
X001100Y022419D01*
X001100Y022517D02*
X005170Y022517D01*
X005170Y022616D02*
X001100Y022616D01*
X001100Y022714D02*
X005170Y022714D01*
X005170Y022813D02*
X001100Y022813D01*
X001100Y022911D02*
X005170Y022911D01*
X005255Y023010D02*
X001100Y023010D01*
X001100Y023108D02*
X005353Y023108D01*
X005452Y023207D02*
X001100Y023207D01*
X001100Y023305D02*
X005550Y023305D01*
X005649Y023404D02*
X001100Y023404D01*
X001100Y023502D02*
X005747Y023502D01*
X005846Y023601D02*
X001100Y023601D01*
X001100Y023699D02*
X005944Y023699D01*
X006043Y023798D02*
X001100Y023798D01*
X001100Y023896D02*
X006141Y023896D01*
X006240Y023995D02*
X001100Y023995D01*
X001100Y024093D02*
X006339Y024093D01*
X006437Y024192D02*
X001100Y024192D01*
X001100Y024290D02*
X039570Y024290D01*
X039570Y024192D02*
X023763Y024192D01*
X023861Y024093D02*
X039570Y024093D01*
X039570Y023995D02*
X023960Y023995D01*
X024058Y023896D02*
X039570Y023896D01*
X039570Y023798D02*
X024157Y023798D01*
X024255Y023699D02*
X039570Y023699D01*
X039570Y023601D02*
X024354Y023601D01*
X024453Y023502D02*
X039570Y023502D01*
X039570Y023404D02*
X024551Y023404D01*
X024650Y023305D02*
X039570Y023305D01*
X039570Y023207D02*
X024748Y023207D01*
X024847Y023108D02*
X039570Y023108D01*
X039570Y023010D02*
X024945Y023010D01*
X025044Y022911D02*
X039570Y022911D01*
X039570Y022813D02*
X025142Y022813D01*
X025241Y022714D02*
X036207Y022714D01*
X036218Y022725D02*
X035881Y022388D01*
X035881Y022200D01*
X036406Y022200D01*
X036406Y022100D01*
X035881Y022100D01*
X035881Y021912D01*
X036218Y021575D01*
X036406Y021575D01*
X036406Y022100D01*
X036506Y022100D01*
X036506Y021575D01*
X036694Y021575D01*
X037031Y021912D01*
X037031Y022100D01*
X036506Y022100D01*
X036506Y022200D01*
X036406Y022200D01*
X036406Y022725D01*
X036218Y022725D01*
X036109Y022616D02*
X025339Y022616D01*
X025438Y022517D02*
X036010Y022517D01*
X035912Y022419D02*
X025536Y022419D01*
X025635Y022320D02*
X035881Y022320D01*
X035881Y022222D02*
X025733Y022222D01*
X025832Y022123D02*
X036406Y022123D01*
X036406Y022025D02*
X036506Y022025D01*
X036506Y022123D02*
X039570Y022123D01*
X039570Y022025D02*
X037031Y022025D01*
X037031Y021926D02*
X039570Y021926D01*
X039570Y021828D02*
X036947Y021828D01*
X036848Y021729D02*
X039570Y021729D01*
X039570Y021631D02*
X036750Y021631D01*
X036506Y021631D02*
X036406Y021631D01*
X036406Y021729D02*
X036506Y021729D01*
X036506Y021828D02*
X036406Y021828D01*
X036406Y021926D02*
X036506Y021926D01*
X036163Y021631D02*
X026324Y021631D01*
X026330Y021532D02*
X039570Y021532D01*
X039570Y021434D02*
X026330Y021434D01*
X026330Y021335D02*
X039570Y021335D01*
X039570Y021237D02*
X026330Y021237D01*
X026330Y021138D02*
X039570Y021138D01*
X039570Y021040D02*
X026330Y021040D01*
X026330Y020941D02*
X039570Y020941D01*
X039570Y020843D02*
X026330Y020843D01*
X026330Y020744D02*
X039570Y020744D01*
X039570Y020646D02*
X026330Y020646D01*
X026330Y020547D02*
X039570Y020547D01*
X039570Y020449D02*
X026330Y020449D01*
X026330Y020350D02*
X039570Y020350D01*
X039570Y020252D02*
X026330Y020252D01*
X026330Y020153D02*
X030587Y020153D01*
X030417Y020055D02*
X026330Y020055D01*
X026330Y019956D02*
X030300Y019956D01*
X030202Y019858D02*
X026330Y019858D01*
X026330Y019759D02*
X030131Y019759D01*
X030075Y019661D02*
X026330Y019661D01*
X026330Y019562D02*
X030022Y019562D01*
X029995Y019464D02*
X026330Y019464D01*
X026330Y019365D02*
X029969Y019365D01*
X029950Y019267D02*
X026330Y019267D01*
X026330Y019168D02*
X029950Y019168D01*
X029950Y019070D02*
X026330Y019070D01*
X026330Y018971D02*
X029959Y018971D01*
X029986Y018873D02*
X026330Y018873D01*
X026330Y018774D02*
X030012Y018774D01*
X030054Y018676D02*
X026330Y018676D01*
X026330Y018577D02*
X030111Y018577D01*
X030167Y018479D02*
X026330Y018479D01*
X026330Y018380D02*
X030264Y018380D01*
X030363Y018282D02*
X026330Y018282D01*
X026330Y018183D02*
X030525Y018183D01*
X030776Y018085D02*
X026330Y018085D01*
X026330Y017986D02*
X035031Y017986D01*
X034933Y017888D02*
X026330Y017888D01*
X026330Y017789D02*
X034834Y017789D01*
X034736Y017691D02*
X026330Y017691D01*
X026330Y017592D02*
X034637Y017592D01*
X034539Y017494D02*
X026330Y017494D01*
X026330Y017395D02*
X034440Y017395D01*
X034342Y017297D02*
X026330Y017297D01*
X026330Y017198D02*
X034243Y017198D01*
X034145Y017100D02*
X026330Y017100D01*
X026330Y017001D02*
X034046Y017001D01*
X033948Y016903D02*
X026330Y016903D01*
X026330Y016804D02*
X033849Y016804D01*
X033751Y016706D02*
X026330Y016706D01*
X026330Y016607D02*
X033652Y016607D01*
X033554Y016509D02*
X026330Y016509D01*
X026330Y016410D02*
X033455Y016410D01*
X033357Y016312D02*
X026330Y016312D01*
X026330Y016213D02*
X033258Y016213D01*
X033160Y016115D02*
X026330Y016115D01*
X026330Y016016D02*
X033061Y016016D01*
X032963Y015918D02*
X026330Y015918D01*
X026330Y015819D02*
X032864Y015819D01*
X032766Y015721D02*
X026330Y015721D01*
X026330Y015622D02*
X032667Y015622D01*
X032569Y015524D02*
X026330Y015524D01*
X026330Y015425D02*
X032470Y015425D01*
X032372Y015327D02*
X026330Y015327D01*
X026330Y015228D02*
X032273Y015228D01*
X032175Y015130D02*
X026330Y015130D01*
X026286Y015031D02*
X032076Y015031D01*
X031978Y014933D02*
X026187Y014933D01*
X026089Y014834D02*
X031879Y014834D01*
X031781Y014736D02*
X025990Y014736D01*
X025892Y014637D02*
X031682Y014637D01*
X031584Y014539D02*
X025793Y014539D01*
X025695Y014440D02*
X031485Y014440D01*
X031387Y014342D02*
X025753Y014342D01*
X025794Y014243D02*
X031288Y014243D01*
X031190Y014145D02*
X025800Y014145D01*
X025789Y014046D02*
X031091Y014046D01*
X030993Y013948D02*
X025748Y013948D01*
X025661Y013849D02*
X030894Y013849D01*
X031108Y013554D02*
X033599Y013554D01*
X033697Y013652D02*
X031207Y013652D01*
X031305Y013751D02*
X033796Y013751D01*
X033894Y013849D02*
X031404Y013849D01*
X031502Y013948D02*
X033993Y013948D01*
X034091Y014046D02*
X031601Y014046D01*
X031699Y014145D02*
X034190Y014145D01*
X034288Y014243D02*
X031798Y014243D01*
X031896Y014342D02*
X034387Y014342D01*
X034485Y014440D02*
X031995Y014440D01*
X032093Y014539D02*
X034584Y014539D01*
X034682Y014637D02*
X032192Y014637D01*
X032290Y014736D02*
X034781Y014736D01*
X034879Y014834D02*
X032389Y014834D01*
X032487Y014933D02*
X034978Y014933D01*
X035076Y015031D02*
X032586Y015031D01*
X032684Y015130D02*
X035175Y015130D01*
X035273Y015228D02*
X032783Y015228D01*
X032881Y015327D02*
X035372Y015327D01*
X035470Y015425D02*
X032980Y015425D01*
X033078Y015524D02*
X035569Y015524D01*
X035667Y015622D02*
X033177Y015622D01*
X033275Y015721D02*
X035766Y015721D01*
X035864Y015819D02*
X033374Y015819D01*
X033472Y015918D02*
X035963Y015918D01*
X036650Y016850D02*
X038450Y016850D01*
X039550Y015750D01*
X039550Y009150D01*
X038850Y008450D01*
X038850Y002850D01*
X038050Y002050D01*
X037418Y002128D02*
X036578Y002128D01*
X037850Y002750D02*
X037900Y002670D01*
X037334Y003211D02*
X036583Y003211D01*
X036940Y003605D02*
X035360Y003605D01*
X035458Y003704D02*
X036842Y003704D01*
X036743Y003802D02*
X035557Y003802D01*
X035655Y003901D02*
X036645Y003901D01*
X036546Y003999D02*
X035754Y003999D01*
X035261Y003507D02*
X037039Y003507D01*
X037137Y003408D02*
X035163Y003408D01*
X035130Y003310D02*
X037236Y003310D01*
X034950Y003450D02*
X037150Y005650D01*
X037650Y005650D01*
X038450Y006450D01*
X038450Y007850D01*
X037900Y006630D02*
X037850Y006550D01*
X037850Y006350D01*
X037350Y005850D01*
X034650Y005850D01*
X033450Y006650D02*
X033400Y006630D01*
X033450Y006650D02*
X033450Y007650D01*
X032150Y007550D02*
X032150Y009050D01*
X030650Y008050D02*
X029250Y008050D01*
X029150Y008150D01*
X029589Y007742D02*
X030225Y007742D01*
X030225Y007841D02*
X029749Y007841D01*
X029620Y007545D02*
X030225Y007545D01*
X030225Y007447D02*
X029762Y007447D01*
X029815Y007394D02*
X029694Y007515D01*
X029536Y007580D01*
X028764Y007580D01*
X028606Y007515D01*
X028485Y007394D01*
X028420Y007236D01*
X028420Y007064D01*
X028485Y006906D01*
X028606Y006785D01*
X028764Y006720D01*
X029536Y006720D01*
X029694Y006785D01*
X029815Y006906D01*
X029880Y007064D01*
X029880Y007236D01*
X029815Y007394D01*
X029833Y007348D02*
X030225Y007348D01*
X030225Y007250D02*
X029874Y007250D01*
X029880Y007151D02*
X030225Y007151D01*
X030225Y007053D02*
X029875Y007053D01*
X029834Y006954D02*
X030276Y006954D01*
X030470Y006856D02*
X029764Y006856D01*
X029625Y006757D02*
X030470Y006757D01*
X030404Y006659D02*
X027896Y006659D01*
X027798Y006757D02*
X028675Y006757D01*
X028536Y006856D02*
X027699Y006856D01*
X027601Y006954D02*
X028466Y006954D01*
X028425Y007053D02*
X027502Y007053D01*
X027404Y007151D02*
X028420Y007151D01*
X028426Y007250D02*
X027305Y007250D01*
X027207Y007348D02*
X028467Y007348D01*
X028538Y007447D02*
X027108Y007447D01*
X027010Y007545D02*
X028680Y007545D01*
X028711Y007742D02*
X026813Y007742D01*
X026911Y007644D02*
X030243Y007644D01*
X030650Y007315D02*
X030650Y006650D01*
X030305Y006560D02*
X029584Y006560D01*
X029747Y006462D02*
X030207Y006462D01*
X030108Y006363D02*
X029827Y006363D01*
X029868Y006265D02*
X030010Y006265D01*
X029911Y006166D02*
X029880Y006166D01*
X028716Y006560D02*
X027995Y006560D01*
X028093Y006462D02*
X028553Y006462D01*
X028473Y006363D02*
X028192Y006363D01*
X028290Y006265D02*
X028432Y006265D01*
X028420Y006166D02*
X028389Y006166D01*
X029880Y008235D02*
X030225Y008235D01*
X030263Y008333D02*
X029840Y008333D01*
X025515Y008530D02*
X025512Y008530D01*
X025417Y008629D02*
X020650Y008629D01*
X020650Y008727D02*
X025318Y008727D01*
X024788Y008530D02*
X022512Y008530D01*
X022680Y008432D02*
X024620Y008432D01*
X024544Y008333D02*
X022756Y008333D01*
X022797Y008235D02*
X024503Y008235D01*
X024500Y008136D02*
X022800Y008136D01*
X022786Y008038D02*
X024514Y008038D01*
X024555Y007939D02*
X022745Y007939D01*
X022652Y007841D02*
X024586Y007841D01*
X024450Y007450D02*
X025150Y008150D01*
X024290Y007545D02*
X021650Y007545D01*
X022120Y008826D02*
X022180Y008826D01*
X022180Y008924D02*
X022120Y008924D01*
X022120Y009023D02*
X022180Y009023D01*
X022180Y009220D02*
X022120Y009220D01*
X022120Y009318D02*
X022180Y009318D01*
X022180Y009417D02*
X022120Y009417D01*
X022120Y009515D02*
X022180Y009515D01*
X021703Y009515D02*
X020650Y009515D01*
X020650Y009417D02*
X021577Y009417D01*
X021515Y009318D02*
X020650Y009318D01*
X020650Y009220D02*
X021486Y009220D01*
X021690Y009811D02*
X020650Y009811D01*
X020650Y009909D02*
X021579Y009909D01*
X021527Y010008D02*
X020650Y010008D01*
X020650Y010106D02*
X021500Y010106D01*
X021500Y010205D02*
X020650Y010205D01*
X020650Y010303D02*
X021531Y010303D01*
X021590Y010402D02*
X020650Y010402D01*
X020650Y010500D02*
X021716Y010500D01*
X021970Y010599D02*
X020650Y010599D01*
X020650Y010697D02*
X021970Y010697D01*
X021727Y010796D02*
X020650Y010796D01*
X020650Y010894D02*
X021594Y010894D01*
X021533Y010993D02*
X020650Y010993D01*
X020650Y011091D02*
X021500Y011091D01*
X021500Y011190D02*
X020650Y011190D01*
X020650Y011288D02*
X021525Y011288D01*
X021575Y011387D02*
X020650Y011387D01*
X020650Y011485D02*
X021560Y011485D01*
X021462Y011584D02*
X020650Y011584D01*
X020650Y011682D02*
X021363Y011682D01*
X021265Y011781D02*
X020650Y011781D01*
X020650Y011879D02*
X021166Y011879D01*
X021068Y011978D02*
X020650Y011978D01*
X020650Y012076D02*
X020969Y012076D01*
X020871Y012175D02*
X020650Y012175D01*
X020650Y012273D02*
X020772Y012273D01*
X020674Y012372D02*
X020650Y012372D01*
X020986Y012569D02*
X021477Y012569D01*
X021378Y012667D02*
X020888Y012667D01*
X020789Y012766D02*
X021280Y012766D01*
X021181Y012864D02*
X020691Y012864D01*
X020592Y012963D02*
X021083Y012963D01*
X020984Y013061D02*
X020494Y013061D01*
X020395Y013160D02*
X020886Y013160D01*
X020787Y013258D02*
X020297Y013258D01*
X020198Y013357D02*
X020689Y013357D01*
X020590Y013455D02*
X020100Y013455D01*
X020393Y013652D02*
X013074Y013652D01*
X013075Y013554D02*
X020492Y013554D01*
X020295Y013751D02*
X013095Y013751D01*
X013095Y013849D02*
X017014Y013849D01*
X017286Y013849D02*
X018014Y013849D01*
X017886Y013948D02*
X017414Y013948D01*
X017464Y014046D02*
X017836Y014046D01*
X018150Y014150D02*
X018835Y014903D01*
X020442Y014903D01*
X022150Y013150D01*
X021601Y013455D02*
X021100Y013455D01*
X021198Y013357D02*
X021553Y013357D01*
X021513Y013258D02*
X021297Y013258D01*
X021395Y013160D02*
X021500Y013160D01*
X021494Y013061D02*
X021505Y013061D01*
X021506Y013554D02*
X021001Y013554D01*
X020903Y013652D02*
X021410Y013652D01*
X021314Y013751D02*
X020804Y013751D01*
X020706Y013849D02*
X021218Y013849D01*
X021122Y013948D02*
X020607Y013948D01*
X020509Y014046D02*
X021026Y014046D01*
X020930Y014145D02*
X020410Y014145D01*
X020330Y014225D02*
X020330Y014225D01*
X020312Y014243D02*
X020834Y014243D01*
X020738Y014342D02*
X019425Y014342D01*
X019312Y014440D02*
X020642Y014440D01*
X020546Y014539D02*
X018747Y014539D01*
X018837Y014637D02*
X020450Y014637D01*
X020952Y014637D02*
X021387Y014637D01*
X021489Y014539D02*
X021048Y014539D01*
X021144Y014440D02*
X021591Y014440D01*
X021547Y014342D02*
X021240Y014342D01*
X021336Y014243D02*
X021506Y014243D01*
X021500Y014145D02*
X021432Y014145D01*
X022150Y014150D02*
X020824Y015430D01*
X020987Y015524D02*
X021522Y015524D01*
X021423Y015622D02*
X011575Y015622D01*
X011575Y015524D02*
X018269Y015524D01*
X018356Y015610D02*
X018356Y015610D01*
X018356Y015611D01*
X018171Y015425D02*
X012842Y015425D01*
X012650Y015150D02*
X011150Y015150D01*
X011575Y015425D02*
X012458Y015425D01*
X011595Y015721D02*
X021325Y015721D01*
X021226Y015819D02*
X011595Y015819D01*
X011595Y015918D02*
X021128Y015918D01*
X021029Y016016D02*
X011200Y016016D01*
X011200Y016035D02*
X011595Y016035D01*
X011595Y016260D01*
X011585Y016298D01*
X011565Y016333D01*
X011537Y016361D01*
X011503Y016380D01*
X011465Y016391D01*
X011200Y016391D01*
X011200Y016035D01*
X011200Y016115D02*
X011100Y016115D01*
X011100Y016213D02*
X011200Y016213D01*
X011200Y016312D02*
X011100Y016312D01*
X011100Y016016D02*
X004686Y016016D01*
X004632Y015985D02*
X004315Y015900D01*
X003985Y015900D01*
X003668Y015985D01*
X003382Y016150D01*
X003150Y016382D01*
X002985Y016668D01*
X002900Y016985D01*
X002900Y017315D01*
X002985Y017632D01*
X003150Y017918D01*
X003382Y018150D01*
X003668Y018315D01*
X003985Y018400D01*
X004315Y018400D01*
X004632Y018315D01*
X004918Y018150D01*
X005150Y017918D01*
X005315Y017632D01*
X005400Y017315D01*
X005400Y016985D01*
X005315Y016668D01*
X005150Y016382D01*
X004918Y016150D01*
X004632Y015985D01*
X004857Y016115D02*
X010705Y016115D01*
X010705Y016213D02*
X004981Y016213D01*
X005079Y016312D02*
X010723Y016312D01*
X010705Y015918D02*
X004380Y015918D01*
X003920Y015918D02*
X001100Y015918D01*
X001100Y016016D02*
X003614Y016016D01*
X003443Y016115D02*
X001100Y016115D01*
X001100Y016213D02*
X003319Y016213D01*
X003221Y016312D02*
X001100Y016312D01*
X001100Y016410D02*
X003134Y016410D01*
X003077Y016509D02*
X001100Y016509D01*
X001100Y016607D02*
X003020Y016607D01*
X002975Y016706D02*
X001100Y016706D01*
X001100Y016804D02*
X002949Y016804D01*
X002922Y016903D02*
X001100Y016903D01*
X001100Y017001D02*
X002900Y017001D01*
X002900Y017100D02*
X001100Y017100D01*
X001100Y017198D02*
X002900Y017198D01*
X002900Y017297D02*
X001100Y017297D01*
X001100Y017395D02*
X002922Y017395D01*
X002948Y017494D02*
X001100Y017494D01*
X001100Y017592D02*
X002974Y017592D01*
X003019Y017691D02*
X001100Y017691D01*
X001100Y017789D02*
X003076Y017789D01*
X003132Y017888D02*
X001100Y017888D01*
X001100Y017986D02*
X003218Y017986D01*
X003317Y018085D02*
X001100Y018085D01*
X001100Y018183D02*
X003439Y018183D01*
X003610Y018282D02*
X001100Y018282D01*
X001100Y018380D02*
X003911Y018380D01*
X004389Y018380D02*
X020470Y018380D01*
X020470Y018282D02*
X004690Y018282D01*
X004861Y018183D02*
X020470Y018183D01*
X020470Y018085D02*
X004983Y018085D01*
X005082Y017986D02*
X020470Y017986D01*
X020470Y017888D02*
X005168Y017888D01*
X005224Y017789D02*
X020470Y017789D01*
X020470Y017691D02*
X005281Y017691D01*
X005326Y017592D02*
X020470Y017592D01*
X020470Y017494D02*
X005352Y017494D01*
X005378Y017395D02*
X020470Y017395D01*
X020470Y017297D02*
X005400Y017297D01*
X005400Y017198D02*
X020470Y017198D01*
X020470Y017100D02*
X005400Y017100D01*
X005400Y017001D02*
X020470Y017001D01*
X020470Y016903D02*
X005378Y016903D01*
X005351Y016804D02*
X020470Y016804D01*
X020470Y016706D02*
X005325Y016706D01*
X005280Y016607D02*
X020470Y016607D01*
X020537Y016509D02*
X005223Y016509D01*
X005166Y016410D02*
X020635Y016410D01*
X020734Y016312D02*
X011577Y016312D01*
X011595Y016213D02*
X020832Y016213D01*
X020931Y016115D02*
X011595Y016115D01*
X010705Y015819D02*
X001100Y015819D01*
X001100Y015721D02*
X010705Y015721D01*
X012600Y014342D02*
X012700Y014342D01*
X012700Y014243D02*
X012600Y014243D01*
X012600Y014145D02*
X012700Y014145D01*
X013075Y013061D02*
X014970Y013061D01*
X014970Y012963D02*
X013032Y012963D01*
X012268Y012963D02*
X011532Y012963D01*
X011575Y013061D02*
X012225Y013061D01*
X011150Y013250D02*
X011150Y013311D01*
X011150Y013250D02*
X009250Y013250D01*
X009150Y013150D01*
X009645Y012766D02*
X014970Y012766D01*
X014970Y012864D02*
X009772Y012864D01*
X009838Y012963D02*
X010768Y012963D01*
X010725Y013061D02*
X009879Y013061D01*
X009694Y012515D02*
X009536Y012580D01*
X008764Y012580D01*
X008606Y012515D01*
X008485Y012394D01*
X008420Y012236D01*
X008420Y012064D01*
X008485Y011906D01*
X008606Y011785D01*
X008764Y011720D01*
X009536Y011720D01*
X009694Y011785D01*
X009815Y011906D01*
X009880Y012064D01*
X009880Y012236D01*
X009815Y012394D01*
X009694Y012515D01*
X009738Y012470D02*
X010650Y012470D01*
X010650Y012372D02*
X009824Y012372D01*
X009864Y012273D02*
X010650Y012273D01*
X010650Y012175D02*
X009880Y012175D01*
X009880Y012076D02*
X010650Y012076D01*
X010650Y011978D02*
X009844Y011978D01*
X009787Y011879D02*
X010650Y011879D01*
X010650Y011781D02*
X009682Y011781D01*
X009536Y011580D02*
X009694Y011515D01*
X009815Y011394D01*
X009880Y011236D01*
X009880Y011064D01*
X009815Y010906D01*
X009694Y010785D01*
X009536Y010720D01*
X008764Y010720D01*
X008606Y010785D01*
X008485Y010906D01*
X008420Y011064D01*
X008420Y011236D01*
X008485Y011394D01*
X008606Y011515D01*
X008764Y011580D01*
X009536Y011580D01*
X009723Y011485D02*
X010650Y011485D01*
X010650Y011387D02*
X009817Y011387D01*
X009858Y011288D02*
X010650Y011288D01*
X010650Y011190D02*
X009880Y011190D01*
X009880Y011091D02*
X010650Y011091D01*
X010650Y010993D02*
X009850Y010993D01*
X009802Y010894D02*
X010650Y010894D01*
X010650Y010796D02*
X009704Y010796D01*
X009536Y010580D02*
X009694Y010515D01*
X009815Y010394D01*
X009880Y010236D01*
X009880Y010064D01*
X009815Y009906D01*
X009694Y009785D01*
X009536Y009720D01*
X008764Y009720D01*
X008606Y009785D01*
X008485Y009906D01*
X008420Y010064D01*
X008420Y010236D01*
X008485Y010394D01*
X008606Y010515D01*
X008764Y010580D01*
X009536Y010580D01*
X009708Y010500D02*
X010650Y010500D01*
X010650Y010402D02*
X009807Y010402D01*
X009852Y010303D02*
X010650Y010303D01*
X010650Y010205D02*
X009880Y010205D01*
X009880Y010106D02*
X010650Y010106D01*
X010650Y010008D02*
X009856Y010008D01*
X009816Y009909D02*
X010650Y009909D01*
X010650Y009811D02*
X009719Y009811D01*
X008581Y009811D02*
X001100Y009811D01*
X001100Y009909D02*
X008484Y009909D01*
X008444Y010008D02*
X001100Y010008D01*
X001100Y010106D02*
X008420Y010106D01*
X008420Y010205D02*
X001100Y010205D01*
X001100Y010303D02*
X008448Y010303D01*
X008493Y010402D02*
X001100Y010402D01*
X001100Y010500D02*
X008592Y010500D01*
X008596Y010796D02*
X001100Y010796D01*
X001100Y010894D02*
X008498Y010894D01*
X008450Y010993D02*
X001100Y010993D01*
X001100Y011091D02*
X008420Y011091D01*
X008420Y011190D02*
X001100Y011190D01*
X001100Y011288D02*
X008442Y011288D01*
X008483Y011387D02*
X001100Y011387D01*
X001100Y011485D02*
X008577Y011485D01*
X008618Y011781D02*
X001100Y011781D01*
X001100Y011879D02*
X008513Y011879D01*
X008456Y011978D02*
X001100Y011978D01*
X001100Y012076D02*
X008420Y012076D01*
X008420Y012175D02*
X001100Y012175D01*
X001100Y012273D02*
X008436Y012273D01*
X008476Y012372D02*
X001100Y012372D01*
X001100Y012470D02*
X008562Y012470D01*
X008737Y012569D02*
X001100Y012569D01*
X001100Y012667D02*
X014970Y012667D01*
X018286Y013849D02*
X019014Y013849D01*
X018886Y013948D02*
X018414Y013948D01*
X018464Y014046D02*
X018836Y014046D01*
X018820Y014145D02*
X018480Y014145D01*
X018478Y014243D02*
X018831Y014243D01*
X018875Y014342D02*
X018568Y014342D01*
X018657Y014440D02*
X018988Y014440D01*
X019150Y014150D02*
X020150Y014150D01*
X022150Y012150D01*
X021560Y012372D02*
X021183Y012372D01*
X021085Y012470D02*
X021575Y012470D01*
X021519Y012273D02*
X021282Y012273D01*
X021380Y012175D02*
X021500Y012175D01*
X021500Y012076D02*
X021479Y012076D01*
X023030Y012766D02*
X024799Y012766D01*
X024624Y012864D02*
X023030Y012864D01*
X023030Y012963D02*
X024546Y012963D01*
X024505Y013061D02*
X023030Y013061D01*
X023030Y013160D02*
X024500Y013160D01*
X024513Y013258D02*
X023030Y013258D01*
X023030Y013357D02*
X024553Y013357D01*
X024643Y013455D02*
X023030Y013455D01*
X025150Y014150D02*
X026150Y015150D01*
X025970Y015721D02*
X023030Y015721D01*
X023030Y015819D02*
X024670Y015819D01*
X024669Y015819D02*
X024812Y015760D01*
X025488Y015760D01*
X025631Y015819D01*
X025741Y015929D01*
X025800Y016072D01*
X025800Y016228D01*
X025741Y016371D01*
X025631Y016481D01*
X025488Y016540D01*
X024812Y016540D01*
X024669Y016481D01*
X024559Y016371D01*
X024500Y016228D01*
X024500Y016072D01*
X024559Y015929D01*
X024669Y015819D01*
X024571Y015918D02*
X023030Y015918D01*
X023030Y016016D02*
X024523Y016016D01*
X024500Y016115D02*
X023030Y016115D01*
X023030Y016213D02*
X024500Y016213D01*
X024535Y016312D02*
X023030Y016312D01*
X023030Y016410D02*
X024598Y016410D01*
X024736Y016509D02*
X023030Y016509D01*
X023030Y016607D02*
X025970Y016607D01*
X025970Y016509D02*
X025564Y016509D01*
X025702Y016410D02*
X025970Y016410D01*
X025970Y016312D02*
X025765Y016312D01*
X025800Y016213D02*
X025970Y016213D01*
X025970Y016115D02*
X025800Y016115D01*
X025777Y016016D02*
X025970Y016016D01*
X025970Y015918D02*
X025729Y015918D01*
X025630Y015819D02*
X025970Y015819D01*
X025970Y016706D02*
X023030Y016706D01*
X023030Y016804D02*
X025970Y016804D01*
X025970Y016903D02*
X023030Y016903D01*
X023030Y017001D02*
X025970Y017001D01*
X025970Y017100D02*
X023030Y017100D01*
X023030Y017198D02*
X025970Y017198D01*
X025970Y017297D02*
X023030Y017297D01*
X023030Y017395D02*
X025970Y017395D01*
X025970Y017494D02*
X023030Y017494D01*
X023030Y017592D02*
X025970Y017592D01*
X025970Y017691D02*
X025619Y017691D01*
X025592Y017682D02*
X025664Y017705D01*
X025732Y017739D01*
X025793Y017784D01*
X025846Y017837D01*
X025891Y017898D01*
X025925Y017966D01*
X025948Y018038D01*
X025958Y018100D01*
X025200Y018100D01*
X025200Y018200D01*
X025100Y018200D01*
X025100Y018630D01*
X024782Y018630D01*
X024708Y018618D01*
X024636Y018595D01*
X024568Y018561D01*
X024507Y018516D01*
X024454Y018463D01*
X024409Y018402D01*
X024375Y018334D01*
X024352Y018262D01*
X024342Y018200D01*
X025100Y018200D01*
X025100Y018100D01*
X025200Y018100D01*
X025200Y017670D01*
X025518Y017670D01*
X025592Y017682D01*
X025798Y017789D02*
X025970Y017789D01*
X025970Y017888D02*
X025883Y017888D01*
X025931Y017986D02*
X025970Y017986D01*
X025956Y018085D02*
X025970Y018085D01*
X025970Y018183D02*
X025200Y018183D01*
X025200Y018200D02*
X025958Y018200D01*
X025948Y018262D01*
X025925Y018334D01*
X025891Y018402D01*
X025846Y018463D01*
X025793Y018516D01*
X025732Y018561D01*
X025664Y018595D01*
X025592Y018618D01*
X025518Y018630D01*
X025200Y018630D01*
X025200Y018200D01*
X025200Y018282D02*
X025100Y018282D01*
X025100Y018380D02*
X025200Y018380D01*
X025200Y018479D02*
X025100Y018479D01*
X025100Y018577D02*
X025200Y018577D01*
X025571Y018690D02*
X024728Y018690D01*
X024559Y018760D01*
X024430Y018889D01*
X024360Y019058D01*
X024360Y019241D01*
X024430Y019411D01*
X024559Y019540D01*
X024728Y019610D01*
X025571Y019610D01*
X025741Y019540D01*
X025870Y019411D01*
X025940Y019241D01*
X025940Y019058D01*
X025870Y018889D01*
X025741Y018760D01*
X025571Y018690D01*
X025699Y018577D02*
X025970Y018577D01*
X025970Y018479D02*
X025830Y018479D01*
X025902Y018380D02*
X025970Y018380D01*
X025970Y018282D02*
X025942Y018282D01*
X025970Y018676D02*
X023030Y018676D01*
X023030Y018577D02*
X024601Y018577D01*
X024470Y018479D02*
X023030Y018479D01*
X023030Y018380D02*
X024398Y018380D01*
X024358Y018282D02*
X023030Y018282D01*
X023030Y018183D02*
X025100Y018183D01*
X025100Y018100D02*
X024342Y018100D01*
X024352Y018038D01*
X024375Y017966D01*
X024409Y017898D01*
X024454Y017837D01*
X024507Y017784D01*
X024568Y017739D01*
X024636Y017705D01*
X024708Y017682D01*
X024782Y017670D01*
X025100Y017670D01*
X025100Y018100D01*
X025100Y018085D02*
X025200Y018085D01*
X025200Y017986D02*
X025100Y017986D01*
X025100Y017888D02*
X025200Y017888D01*
X025200Y017789D02*
X025100Y017789D01*
X025100Y017691D02*
X025200Y017691D01*
X024681Y017691D02*
X023030Y017691D01*
X023030Y017789D02*
X024502Y017789D01*
X024417Y017888D02*
X023030Y017888D01*
X023030Y017986D02*
X024369Y017986D01*
X024344Y018085D02*
X023030Y018085D01*
X023435Y018774D02*
X023535Y018774D01*
X023535Y018705D02*
X023760Y018705D01*
X023798Y018715D01*
X023833Y018735D01*
X023861Y018763D01*
X023880Y018797D01*
X023891Y018835D01*
X023891Y019100D01*
X023535Y019100D01*
X023535Y018705D01*
X023535Y018873D02*
X023435Y018873D01*
X023435Y018971D02*
X023535Y018971D01*
X023535Y019070D02*
X023435Y019070D01*
X023535Y019168D02*
X024360Y019168D01*
X024360Y019070D02*
X023891Y019070D01*
X023891Y018971D02*
X024396Y018971D01*
X024447Y018873D02*
X023891Y018873D01*
X023867Y018774D02*
X024545Y018774D01*
X024370Y019267D02*
X023891Y019267D01*
X023891Y019365D02*
X024411Y019365D01*
X024483Y019464D02*
X023891Y019464D01*
X023836Y019562D02*
X024613Y019562D01*
X024562Y019759D02*
X023857Y019759D01*
X023861Y019763D02*
X023880Y019797D01*
X023891Y019835D01*
X023891Y020100D01*
X023535Y020100D01*
X023535Y019705D01*
X023760Y019705D01*
X023798Y019715D01*
X023833Y019735D01*
X023861Y019763D01*
X023891Y019858D02*
X024462Y019858D01*
X024402Y019956D02*
X023891Y019956D01*
X023891Y020055D02*
X024362Y020055D01*
X024360Y020153D02*
X023535Y020153D01*
X023535Y020055D02*
X023435Y020055D01*
X023435Y019956D02*
X023535Y019956D01*
X023535Y019858D02*
X023435Y019858D01*
X023435Y019759D02*
X023535Y019759D01*
X023535Y019562D02*
X023435Y019562D01*
X023435Y019464D02*
X023535Y019464D01*
X023535Y019365D02*
X023435Y019365D01*
X023435Y019267D02*
X023535Y019267D01*
X023030Y019661D02*
X025970Y019661D01*
X025970Y019759D02*
X025738Y019759D01*
X025838Y019858D02*
X025970Y019858D01*
X025970Y019956D02*
X025898Y019956D01*
X025938Y020055D02*
X025970Y020055D01*
X025970Y020153D02*
X025940Y020153D01*
X025936Y020252D02*
X025970Y020252D01*
X025970Y020350D02*
X025895Y020350D01*
X025832Y020449D02*
X025970Y020449D01*
X025970Y020547D02*
X025723Y020547D01*
X025970Y020646D02*
X024809Y020646D01*
X024711Y020744D02*
X025970Y020744D01*
X025970Y020843D02*
X024612Y020843D01*
X024514Y020941D02*
X025970Y020941D01*
X025970Y021040D02*
X024415Y021040D01*
X024317Y021138D02*
X025970Y021138D01*
X025970Y021237D02*
X024218Y021237D01*
X024120Y021335D02*
X025970Y021335D01*
X025970Y021434D02*
X024021Y021434D01*
X023923Y021532D02*
X025913Y021532D01*
X025815Y021631D02*
X023871Y021631D01*
X023871Y021729D02*
X025716Y021729D01*
X025618Y021828D02*
X023871Y021828D01*
X023871Y021926D02*
X025519Y021926D01*
X025421Y022025D02*
X023845Y022025D01*
X023630Y022123D02*
X025322Y022123D01*
X025224Y022222D02*
X023630Y022222D01*
X023630Y022320D02*
X025125Y022320D01*
X025027Y022419D02*
X023630Y022419D01*
X023630Y022517D02*
X024928Y022517D01*
X024830Y022616D02*
X023630Y022616D01*
X023630Y022714D02*
X024731Y022714D01*
X024633Y022813D02*
X023871Y022813D01*
X023871Y022911D02*
X024534Y022911D01*
X024436Y023010D02*
X023871Y023010D01*
X023871Y023108D02*
X024337Y023108D01*
X024239Y023207D02*
X023871Y023207D01*
X023871Y023305D02*
X024140Y023305D01*
X024042Y023404D02*
X023871Y023404D01*
X023868Y023502D02*
X023943Y023502D01*
X023845Y023601D02*
X021363Y023601D01*
X021363Y023699D02*
X023746Y023699D01*
X023648Y023798D02*
X021363Y023798D01*
X021363Y023502D02*
X022419Y023502D01*
X022420Y023503D02*
X022409Y023465D01*
X022409Y023200D01*
X022765Y023200D01*
X022765Y023595D01*
X022540Y023595D01*
X022502Y023585D01*
X022467Y023565D01*
X022439Y023537D01*
X022420Y023503D01*
X022409Y023404D02*
X021363Y023404D01*
X021363Y023305D02*
X022409Y023305D01*
X022409Y023207D02*
X021363Y023207D01*
X021363Y023108D02*
X022765Y023108D01*
X022765Y023010D02*
X022865Y023010D01*
X022865Y022911D02*
X022765Y022911D01*
X022765Y022813D02*
X022865Y022813D01*
X022865Y022714D02*
X022765Y022714D01*
X022505Y022714D02*
X021363Y022714D01*
X021363Y022813D02*
X022415Y022813D01*
X022409Y022911D02*
X021363Y022911D01*
X021363Y023010D02*
X022409Y023010D01*
X022765Y023207D02*
X022865Y023207D01*
X022865Y023305D02*
X022765Y023305D01*
X022765Y023404D02*
X022865Y023404D01*
X022865Y023502D02*
X022765Y023502D01*
X023450Y023150D02*
X023485Y023150D01*
X023450Y023150D02*
X023450Y021650D01*
X023485Y021650D01*
X023550Y021650D01*
X025050Y020150D01*
X025150Y020150D01*
X024468Y020449D02*
X023891Y020449D01*
X023891Y020350D02*
X024405Y020350D01*
X024364Y020252D02*
X023891Y020252D01*
X023851Y020547D02*
X024398Y020547D01*
X023535Y020547D02*
X023435Y020547D01*
X023435Y020449D02*
X023535Y020449D01*
X023535Y020350D02*
X023435Y020350D01*
X023435Y020252D02*
X023535Y020252D01*
X022850Y020150D02*
X022815Y020150D01*
X022850Y020150D02*
X022850Y019850D01*
X021383Y021138D02*
X017392Y021138D01*
X017392Y021149D02*
X017822Y021149D01*
X017822Y021310D01*
X017553Y021579D01*
X017392Y021579D01*
X017392Y021149D01*
X017392Y021089D01*
X017822Y021089D01*
X017822Y020928D01*
X017553Y020659D01*
X017392Y020659D01*
X017392Y021089D01*
X017332Y021089D01*
X017332Y020659D01*
X017171Y020659D01*
X016902Y020928D01*
X016902Y021089D01*
X017332Y021089D01*
X017332Y021149D01*
X017332Y021579D01*
X017171Y021579D01*
X016902Y021310D01*
X016902Y021149D01*
X017332Y021149D01*
X017392Y021149D01*
X017332Y021138D02*
X016646Y021138D01*
X016548Y021237D02*
X016902Y021237D01*
X016928Y021335D02*
X016449Y021335D01*
X016351Y021434D02*
X017026Y021434D01*
X017125Y021532D02*
X016252Y021532D01*
X016154Y021631D02*
X018937Y021631D01*
X018937Y021729D02*
X016055Y021729D01*
X015957Y021828D02*
X018937Y021828D01*
X018937Y021926D02*
X015858Y021926D01*
X015760Y022025D02*
X018937Y022025D01*
X018937Y022123D02*
X015661Y022123D01*
X015563Y022222D02*
X018937Y022222D01*
X018937Y022320D02*
X015464Y022320D01*
X015366Y022419D02*
X018937Y022419D01*
X018937Y022517D02*
X015267Y022517D01*
X015169Y022616D02*
X020100Y022616D01*
X020100Y022584D02*
X018937Y022584D01*
X018937Y021394D01*
X018947Y021356D01*
X018967Y021322D01*
X018995Y021294D01*
X019029Y021274D01*
X019067Y021264D01*
X020100Y021264D01*
X020100Y022584D01*
X020100Y022517D02*
X020200Y022517D01*
X020200Y022419D02*
X020100Y022419D01*
X020100Y022320D02*
X020200Y022320D01*
X020200Y022222D02*
X020100Y022222D01*
X020100Y022123D02*
X020200Y022123D01*
X020200Y022025D02*
X020100Y022025D01*
X020100Y021926D02*
X020200Y021926D01*
X020200Y021828D02*
X020100Y021828D01*
X020100Y021729D02*
X020200Y021729D01*
X020200Y021631D02*
X020100Y021631D01*
X020100Y021532D02*
X020200Y021532D01*
X020200Y021434D02*
X020100Y021434D01*
X020100Y021335D02*
X020200Y021335D01*
X020891Y020646D02*
X017139Y020646D01*
X017086Y020744D02*
X017040Y020744D01*
X016988Y020843D02*
X016942Y020843D01*
X016902Y020941D02*
X016843Y020941D01*
X016902Y021040D02*
X016745Y021040D01*
X016446Y020744D02*
X008968Y020744D01*
X008980Y020646D02*
X016545Y020646D01*
X016643Y020547D02*
X008965Y020547D01*
X008915Y020449D02*
X016742Y020449D01*
X016840Y020350D02*
X008788Y020350D01*
X008512Y020350D02*
X006758Y020350D01*
X006612Y020252D02*
X016939Y020252D01*
X016953Y019956D02*
X006752Y019956D01*
X006829Y019858D02*
X017001Y019858D01*
X017100Y019759D02*
X006870Y019759D01*
X006880Y019661D02*
X017542Y019661D01*
X017450Y020050D02*
X017362Y020119D01*
X017350Y020150D01*
X017344Y020144D01*
X017246Y020547D02*
X017237Y020547D01*
X017332Y020744D02*
X017392Y020744D01*
X017392Y020843D02*
X017332Y020843D01*
X017332Y020941D02*
X017392Y020941D01*
X017392Y021040D02*
X017332Y021040D01*
X017332Y021237D02*
X017392Y021237D01*
X017392Y021335D02*
X017332Y021335D01*
X017332Y021434D02*
X017392Y021434D01*
X017392Y021532D02*
X017332Y021532D01*
X017599Y021532D02*
X018937Y021532D01*
X018937Y021434D02*
X017698Y021434D01*
X017796Y021335D02*
X018959Y021335D01*
X017822Y021237D02*
X021482Y021237D01*
X021580Y021335D02*
X021341Y021335D01*
X021363Y021434D02*
X021679Y021434D01*
X021777Y021532D02*
X021363Y021532D01*
X021363Y021631D02*
X021876Y021631D01*
X021974Y021729D02*
X021363Y021729D01*
X021363Y021828D02*
X022073Y021828D01*
X022150Y021650D02*
X022815Y021650D01*
X022429Y021926D02*
X021363Y021926D01*
X021363Y022025D02*
X022455Y022025D01*
X023270Y022123D02*
X021363Y022123D01*
X021363Y022222D02*
X023270Y022222D01*
X023270Y022320D02*
X021363Y022320D01*
X021363Y022419D02*
X023270Y022419D01*
X023270Y022517D02*
X021363Y022517D01*
X020200Y022616D02*
X023270Y022616D01*
X023270Y022714D02*
X023126Y022714D01*
X023137Y021237D02*
X023163Y021237D01*
X021285Y021040D02*
X017822Y021040D01*
X017822Y020941D02*
X021186Y020941D01*
X021088Y020843D02*
X017736Y020843D01*
X017638Y020744D02*
X020989Y020744D01*
X020792Y020547D02*
X017478Y020547D01*
X017655Y020449D02*
X020694Y020449D01*
X020595Y020350D02*
X017743Y020350D01*
X017783Y020252D02*
X020497Y020252D01*
X020470Y020153D02*
X019555Y020153D01*
X019579Y020055D02*
X020470Y020055D01*
X020470Y019956D02*
X019579Y019956D01*
X019579Y019858D02*
X020470Y019858D01*
X020470Y019759D02*
X019579Y019759D01*
X019579Y019661D02*
X020470Y019661D01*
X020470Y019562D02*
X019579Y019562D01*
X019579Y019464D02*
X020470Y019464D01*
X020470Y019365D02*
X019553Y019365D01*
X019252Y019760D02*
X019250Y019850D01*
X018926Y019562D02*
X006879Y019562D01*
X006838Y019464D02*
X018926Y019464D01*
X018952Y019365D02*
X006773Y019365D01*
X006648Y019267D02*
X020470Y019267D01*
X020470Y019168D02*
X001100Y019168D01*
X001100Y019070D02*
X020470Y019070D01*
X020470Y018971D02*
X001100Y018971D01*
X001100Y018873D02*
X020470Y018873D01*
X020470Y018774D02*
X001100Y018774D01*
X001100Y018676D02*
X020470Y018676D01*
X020470Y018577D02*
X001100Y018577D01*
X001100Y018479D02*
X020470Y018479D01*
X018950Y020153D02*
X017802Y020153D01*
X016348Y020843D02*
X008924Y020843D01*
X008810Y020941D02*
X016249Y020941D01*
X016151Y021040D02*
X008115Y021040D01*
X008115Y021138D02*
X016052Y021138D01*
X015954Y021237D02*
X008115Y021237D01*
X008115Y020941D02*
X008490Y020941D01*
X007762Y021335D02*
X015855Y021335D01*
X015757Y021434D02*
X006845Y021434D01*
X006835Y021414D02*
X006867Y021477D01*
X006889Y021545D01*
X006898Y021600D01*
X006200Y021600D01*
X006200Y021200D01*
X006485Y021200D01*
X006555Y021211D01*
X006623Y021233D01*
X006686Y021265D01*
X006743Y021307D01*
X006793Y021357D01*
X006835Y021414D01*
X006771Y021335D02*
X007538Y021335D01*
X007185Y021237D02*
X006630Y021237D01*
X006633Y021040D02*
X007185Y021040D01*
X007185Y021138D02*
X005530Y021138D01*
X005530Y021040D02*
X005667Y021040D01*
X005533Y020941D02*
X005530Y020941D01*
X005530Y021237D02*
X005670Y021237D01*
X006100Y021237D02*
X006200Y021237D01*
X006200Y021335D02*
X006100Y021335D01*
X006100Y021434D02*
X006200Y021434D01*
X006200Y021532D02*
X006100Y021532D01*
X006200Y021631D02*
X015560Y021631D01*
X015461Y021729D02*
X006893Y021729D01*
X006889Y021755D02*
X006867Y021823D01*
X006835Y021886D01*
X006793Y021943D01*
X006743Y021993D01*
X006686Y022035D01*
X006623Y022067D01*
X006555Y022089D01*
X006485Y022100D01*
X006200Y022100D01*
X006200Y021700D01*
X006898Y021700D01*
X006889Y021755D01*
X006865Y021828D02*
X015363Y021828D01*
X015264Y021926D02*
X006806Y021926D01*
X006700Y022025D02*
X007210Y022025D01*
X007185Y022123D02*
X005530Y022123D01*
X005530Y022025D02*
X005600Y022025D01*
X005530Y022222D02*
X005761Y022222D01*
X005572Y022320D02*
X005530Y022320D01*
X006100Y022025D02*
X006200Y022025D01*
X006200Y021926D02*
X006100Y021926D01*
X006100Y021828D02*
X006200Y021828D01*
X006200Y021729D02*
X006100Y021729D01*
X006539Y022222D02*
X007185Y022222D01*
X007185Y022320D02*
X006728Y022320D01*
X006820Y022419D02*
X007185Y022419D01*
X007650Y022450D02*
X007650Y022457D01*
X007650Y022650D01*
X008069Y022911D02*
X018937Y022911D01*
X018937Y022813D02*
X014972Y022813D01*
X015070Y022714D02*
X018937Y022714D01*
X018937Y023010D02*
X006699Y023010D01*
X006797Y022911D02*
X007231Y022911D01*
X008115Y022419D02*
X014772Y022419D01*
X014870Y022320D02*
X008115Y022320D01*
X008115Y022222D02*
X014969Y022222D01*
X015067Y022123D02*
X008115Y022123D01*
X008090Y022025D02*
X015166Y022025D01*
X015658Y021532D02*
X006885Y021532D01*
X006767Y020941D02*
X007185Y020941D01*
X007650Y020820D02*
X007650Y020750D01*
X006250Y020750D02*
X006150Y020650D01*
X006250Y022550D02*
X006150Y022650D01*
X005863Y023108D02*
X018937Y023108D01*
X018937Y023207D02*
X005961Y023207D01*
X006060Y023305D02*
X018937Y023305D01*
X018937Y023404D02*
X006158Y023404D01*
X006257Y023502D02*
X018937Y023502D01*
X018937Y023601D02*
X006355Y023601D01*
X006454Y023699D02*
X018937Y023699D01*
X018937Y023798D02*
X006552Y023798D01*
X001100Y024389D02*
X039570Y024389D01*
X039570Y022714D02*
X036705Y022714D01*
X036694Y022725D02*
X036506Y022725D01*
X036506Y022200D01*
X037031Y022200D01*
X037031Y022388D01*
X036694Y022725D01*
X036804Y022616D02*
X039570Y022616D01*
X039570Y022517D02*
X036902Y022517D01*
X037001Y022419D02*
X039570Y022419D01*
X039570Y022320D02*
X037031Y022320D01*
X037031Y022222D02*
X039570Y022222D01*
X036506Y022222D02*
X036406Y022222D01*
X036406Y022320D02*
X036506Y022320D01*
X036506Y022419D02*
X036406Y022419D01*
X036406Y022517D02*
X036506Y022517D01*
X036506Y022616D02*
X036406Y022616D01*
X036406Y022714D02*
X036506Y022714D01*
X035881Y022025D02*
X025930Y022025D01*
X026029Y021926D02*
X035881Y021926D01*
X035966Y021828D02*
X026127Y021828D01*
X026226Y021729D02*
X036064Y021729D01*
X039570Y020153D02*
X031513Y020153D01*
X031683Y020055D02*
X039570Y020055D01*
X039570Y019956D02*
X031800Y019956D01*
X031898Y019858D02*
X039570Y019858D01*
X035819Y018774D02*
X032088Y018774D01*
X032046Y018676D02*
X035721Y018676D01*
X035622Y018577D02*
X031989Y018577D01*
X031933Y018479D02*
X035524Y018479D01*
X035425Y018380D02*
X031836Y018380D01*
X031737Y018282D02*
X035327Y018282D01*
X035228Y018183D02*
X031575Y018183D01*
X031324Y018085D02*
X035130Y018085D01*
X038554Y017001D02*
X039570Y017001D01*
X039570Y016903D02*
X038652Y016903D01*
X038751Y016804D02*
X039570Y016804D01*
X039570Y016706D02*
X038849Y016706D01*
X038948Y016607D02*
X039570Y016607D01*
X039570Y016509D02*
X039046Y016509D01*
X039145Y016410D02*
X039570Y016410D01*
X039570Y016312D02*
X039243Y016312D01*
X039342Y016213D02*
X039570Y016213D01*
X039570Y016115D02*
X039440Y016115D01*
X039539Y016016D02*
X039570Y016016D01*
X033500Y013455D02*
X031010Y013455D01*
X030911Y013357D02*
X033402Y013357D01*
X033303Y013258D02*
X030813Y013258D01*
X030714Y013160D02*
X033205Y013160D01*
X033106Y013061D02*
X030616Y013061D01*
X026770Y012963D02*
X025754Y012963D01*
X025676Y012864D02*
X026649Y012864D01*
X024564Y008924D02*
X022753Y008924D01*
X022661Y008826D02*
X024663Y008826D01*
X024270Y005575D02*
X021650Y005575D01*
X021650Y005477D02*
X021665Y005477D01*
X022150Y005150D02*
X021150Y005150D01*
X021650Y004787D02*
X021747Y004787D01*
X021650Y004689D02*
X024270Y004689D01*
X024270Y004787D02*
X022553Y004787D01*
X022697Y004886D02*
X024270Y004886D01*
X024270Y004984D02*
X022763Y004984D01*
X022800Y005083D02*
X024270Y005083D01*
X024270Y005181D02*
X022800Y005181D01*
X022778Y005280D02*
X024270Y005280D01*
X024270Y005378D02*
X022734Y005378D01*
X022635Y005477D02*
X024270Y005477D01*
X024270Y004590D02*
X021650Y004590D01*
X021650Y004492D02*
X021695Y004492D01*
X022150Y004150D02*
X021150Y004150D01*
X021650Y003802D02*
X021711Y003802D01*
X021650Y003704D02*
X024270Y003704D01*
X024270Y003802D02*
X022589Y003802D01*
X022712Y003901D02*
X024270Y003901D01*
X024270Y003999D02*
X022770Y003999D01*
X022800Y004098D02*
X024270Y004098D01*
X024270Y004196D02*
X022800Y004196D01*
X022772Y004295D02*
X024270Y004295D01*
X024270Y004393D02*
X022719Y004393D01*
X022605Y004492D02*
X024270Y004492D01*
X021650Y001635D02*
X039570Y001635D01*
X039570Y001537D02*
X021650Y001537D01*
X021650Y001438D02*
X039570Y001438D01*
X039570Y001340D02*
X021650Y001340D01*
X021650Y001241D02*
X039570Y001241D01*
X039570Y001143D02*
X021650Y001143D01*
X010650Y006659D02*
X001100Y006659D01*
X001100Y006757D02*
X010650Y006757D01*
X010650Y006856D02*
X001100Y006856D01*
X001100Y006954D02*
X003784Y006954D01*
X003668Y006985D02*
X003985Y006900D01*
X004315Y006900D01*
X004632Y006985D01*
X004918Y007150D01*
X005150Y007382D01*
X005315Y007668D01*
X005400Y007985D01*
X005400Y008315D01*
X005315Y008632D01*
X005150Y008918D01*
X004918Y009150D01*
X004632Y009315D01*
X004315Y009400D01*
X003985Y009400D01*
X003668Y009315D01*
X003382Y009150D01*
X003150Y008918D01*
X002985Y008632D01*
X002900Y008315D01*
X002900Y007985D01*
X002985Y007668D01*
X003150Y007382D01*
X003382Y007150D01*
X003668Y006985D01*
X003551Y007053D02*
X001100Y007053D01*
X001100Y007151D02*
X003381Y007151D01*
X003283Y007250D02*
X001100Y007250D01*
X001100Y007348D02*
X003184Y007348D01*
X003113Y007447D02*
X001100Y007447D01*
X001100Y007545D02*
X003056Y007545D01*
X002999Y007644D02*
X001100Y007644D01*
X001100Y007742D02*
X002965Y007742D01*
X002939Y007841D02*
X001100Y007841D01*
X001100Y007939D02*
X002912Y007939D01*
X002900Y008038D02*
X001100Y008038D01*
X001100Y008136D02*
X002900Y008136D01*
X002900Y008235D02*
X001100Y008235D01*
X001100Y008333D02*
X002905Y008333D01*
X002931Y008432D02*
X001100Y008432D01*
X001100Y008530D02*
X002958Y008530D01*
X002984Y008629D02*
X001100Y008629D01*
X001100Y008727D02*
X003040Y008727D01*
X003097Y008826D02*
X001100Y008826D01*
X001100Y008924D02*
X003156Y008924D01*
X003255Y009023D02*
X001100Y009023D01*
X001100Y009121D02*
X003353Y009121D01*
X003502Y009220D02*
X001100Y009220D01*
X001100Y009318D02*
X003679Y009318D01*
X004621Y009318D02*
X010650Y009318D01*
X010650Y009220D02*
X004798Y009220D01*
X004947Y009121D02*
X010650Y009121D01*
X010650Y009023D02*
X005045Y009023D01*
X005144Y008924D02*
X010650Y008924D01*
X010650Y008826D02*
X005203Y008826D01*
X005260Y008727D02*
X010650Y008727D01*
X010650Y008629D02*
X005316Y008629D01*
X005342Y008530D02*
X010650Y008530D01*
X010650Y008432D02*
X005369Y008432D01*
X005395Y008333D02*
X010650Y008333D01*
X010650Y008235D02*
X005400Y008235D01*
X005400Y008136D02*
X010650Y008136D01*
X010650Y008038D02*
X005400Y008038D01*
X005388Y007939D02*
X010650Y007939D01*
X010650Y007841D02*
X005361Y007841D01*
X005335Y007742D02*
X010650Y007742D01*
X010650Y007644D02*
X005301Y007644D01*
X005244Y007545D02*
X010650Y007545D01*
X010650Y007447D02*
X005187Y007447D01*
X005116Y007348D02*
X010650Y007348D01*
X010650Y007250D02*
X005017Y007250D01*
X004919Y007151D02*
X010650Y007151D01*
X010650Y007053D02*
X004749Y007053D01*
X004516Y006954D02*
X010650Y006954D01*
X010650Y009417D02*
X001100Y009417D01*
X001100Y009515D02*
X010650Y009515D01*
X010650Y009614D02*
X001100Y009614D01*
X001100Y009712D02*
X010650Y009712D01*
X010650Y010599D02*
X001100Y010599D01*
X001100Y010697D02*
X010650Y010697D01*
X010650Y011584D02*
X001100Y011584D01*
X001100Y011682D02*
X010650Y011682D01*
X010650Y012569D02*
X009563Y012569D01*
X008655Y012766D02*
X001100Y012766D01*
X001100Y012864D02*
X008528Y012864D01*
X008462Y012963D02*
X001100Y012963D01*
X001100Y013061D02*
X008421Y013061D01*
X008420Y013160D02*
X001100Y013160D01*
X001100Y013258D02*
X008429Y013258D01*
X008470Y013357D02*
X001100Y013357D01*
X001100Y013455D02*
X008547Y013455D01*
X008643Y013751D02*
X001100Y013751D01*
X001100Y013849D02*
X008515Y013849D01*
X008448Y013948D02*
X001100Y013948D01*
X001100Y014046D02*
X008411Y014046D01*
X019286Y013849D02*
X020196Y013849D01*
X020098Y013948D02*
X019414Y013948D01*
X025755Y018774D02*
X025970Y018774D01*
X025970Y018873D02*
X025853Y018873D01*
X025904Y018971D02*
X025970Y018971D01*
X025970Y019070D02*
X025940Y019070D01*
X025940Y019168D02*
X025970Y019168D01*
X025970Y019267D02*
X025930Y019267D01*
X025970Y019365D02*
X025889Y019365D01*
X025817Y019464D02*
X025970Y019464D01*
X025970Y019562D02*
X025687Y019562D01*
D25*
X023650Y018150D03*
X025150Y017150D03*
X020150Y018150D03*
X020150Y020150D03*
X022150Y022150D03*
X026150Y023150D03*
X017650Y022150D03*
X008650Y020650D03*
X007150Y021650D03*
X012650Y015150D03*
X017150Y014150D03*
X018150Y014150D03*
X019150Y014150D03*
X027650Y009350D03*
X029450Y009750D03*
X030150Y008650D03*
X031750Y008950D03*
X032150Y007550D03*
X033450Y007650D03*
X031550Y006250D03*
X032850Y005950D03*
X034150Y004150D03*
X036150Y003650D03*
X036450Y004350D03*
X037450Y007850D03*
X038450Y007850D03*
X039250Y008350D03*
X036150Y008150D03*
X034350Y009050D03*
X036250Y010250D03*
X038650Y010650D03*
X038750Y012050D03*
X039050Y013050D03*
X035150Y012350D03*
X036050Y016250D03*
X030650Y003650D03*
X025350Y002550D03*
D26*
X002150Y002150D03*
X003150Y002150D03*
X004150Y002150D03*
X005150Y002150D03*
X006150Y002150D03*
X007150Y002150D03*
X008150Y002150D03*
X009150Y002150D03*
X010150Y002150D03*
X011150Y002150D03*
X012150Y002150D03*
X013150Y002150D03*
X014150Y002150D03*
X015150Y002150D03*
X016150Y002150D03*
X017150Y002150D03*
X018150Y002150D03*
X019150Y002150D03*
X020150Y002150D03*
X021150Y002150D03*
X021150Y003150D03*
X020150Y003150D03*
X019150Y003150D03*
X018150Y003150D03*
X017150Y003150D03*
X016150Y003150D03*
X015150Y003150D03*
X014150Y003150D03*
X013150Y003150D03*
X012150Y003150D03*
X011150Y003150D03*
X010150Y003150D03*
X009150Y003150D03*
X008150Y003150D03*
X007150Y003150D03*
X006150Y003150D03*
X005150Y003150D03*
X004150Y003150D03*
X003150Y003150D03*
X002150Y003150D03*
X002150Y004150D03*
X003150Y004150D03*
X003150Y005150D03*
X002150Y005150D03*
X002150Y006150D03*
X003150Y006150D03*
X004150Y006150D03*
X005150Y006150D03*
X006150Y006150D03*
X007150Y006150D03*
X008150Y006150D03*
X009150Y006150D03*
X010150Y006150D03*
X011150Y006150D03*
X012150Y006150D03*
X013150Y006150D03*
X014150Y006150D03*
X015150Y006150D03*
X016150Y006150D03*
X017150Y006150D03*
X018150Y006150D03*
X019150Y006150D03*
X020150Y006150D03*
X021150Y006150D03*
X021150Y005150D03*
X020150Y005150D03*
X020150Y004150D03*
X021150Y004150D03*
X019150Y004150D03*
X018150Y004150D03*
X017150Y004150D03*
X017150Y005150D03*
X018150Y005150D03*
X019150Y005150D03*
X016150Y005150D03*
X015150Y005150D03*
X015150Y004150D03*
X016150Y004150D03*
X014150Y004150D03*
X013150Y004150D03*
X013150Y005150D03*
X014150Y005150D03*
X012150Y005150D03*
X011150Y005150D03*
X011150Y004150D03*
X012150Y004150D03*
X010150Y004150D03*
X009150Y004150D03*
X009150Y005150D03*
X010150Y005150D03*
X008150Y005150D03*
X007150Y005150D03*
X006150Y005150D03*
X006150Y004150D03*
X007150Y004150D03*
X008150Y004150D03*
X005150Y004150D03*
X004150Y004150D03*
X004150Y005150D03*
X005150Y005150D03*
X011150Y007150D03*
X012150Y007150D03*
X013150Y007150D03*
X014150Y007150D03*
X015150Y007150D03*
X016150Y007150D03*
X017150Y007150D03*
X018150Y007150D03*
X019150Y007150D03*
X020150Y007150D03*
X021150Y007150D03*
X020150Y008150D03*
X019150Y008150D03*
X018150Y008150D03*
X017150Y008150D03*
X016150Y008150D03*
X015150Y008150D03*
X014150Y008150D03*
X013150Y008150D03*
X012150Y008150D03*
X011150Y008150D03*
X011150Y009150D03*
X012150Y009150D03*
X013150Y009150D03*
X014150Y009150D03*
X015150Y009150D03*
X016150Y009150D03*
X017150Y009150D03*
X018150Y009150D03*
X019150Y009150D03*
X020150Y009150D03*
X020150Y010150D03*
X019150Y010150D03*
X018150Y010150D03*
X017150Y010150D03*
X016150Y010150D03*
X015150Y010150D03*
X014150Y010150D03*
X013150Y010150D03*
X012150Y010150D03*
X011150Y010150D03*
X011150Y011150D03*
X012150Y011150D03*
X013150Y011150D03*
X014150Y011150D03*
X015150Y011150D03*
X016150Y011150D03*
X017150Y011150D03*
X018150Y011150D03*
X019150Y011150D03*
X020150Y011150D03*
X020150Y012150D03*
X019150Y012150D03*
X018150Y012150D03*
X017150Y012150D03*
X016150Y012150D03*
X015150Y012150D03*
X014150Y012150D03*
X013150Y012150D03*
X012150Y012150D03*
X011150Y012150D03*
D27*
X017650Y019850D02*
X017450Y020050D01*
X017380Y020107D02*
X017344Y020144D01*
X014838Y022650D01*
X007650Y022650D01*
X006150Y022650D01*
X007650Y021150D02*
X007650Y020843D01*
X007650Y020820D01*
X007705Y020875D01*
X007705Y020875D01*
X007686Y020855D01*
X007705Y020855D01*
X007650Y020820D02*
X007650Y020650D01*
X008650Y020650D01*
X007650Y020650D02*
X006150Y020650D01*
X017650Y019850D02*
X019250Y019850D01*
M02*
