G75*
G70*
%OFA0B0*%
%FSLAX24Y24*%
%IPPOS*%
%LPD*%
%AMOC8*
5,1,8,0,0,1.08239X$1,22.5*
%
%ADD10C,0.0520*%
%ADD11OC8,0.0520*%
%ADD12C,0.0600*%
%ADD13OC8,0.0600*%
%ADD14C,0.0100*%
%ADD15C,0.0400*%
D10*
X006167Y000715D02*
X006167Y001235D01*
X007167Y001235D02*
X007167Y000715D01*
X008167Y000715D02*
X008167Y001235D01*
X009167Y001235D02*
X009167Y000715D01*
X010167Y000715D02*
X010167Y001235D01*
X011167Y001235D02*
X011167Y000715D01*
X012167Y000715D02*
X012167Y001235D01*
X013167Y001235D02*
X013167Y000715D01*
X014167Y000715D02*
X014167Y001235D01*
X015167Y001235D02*
X015167Y000715D01*
X016167Y000715D02*
X016167Y001235D01*
X017167Y001235D02*
X017167Y000715D01*
X018167Y000715D02*
X018167Y001235D01*
X019167Y001235D02*
X019167Y000715D01*
X020167Y000715D02*
X020167Y001235D01*
X020167Y006715D02*
X020167Y007235D01*
X019167Y007235D02*
X019167Y006715D01*
X018167Y006715D02*
X018167Y007235D01*
X017167Y007235D02*
X017167Y006715D01*
X016167Y006715D02*
X016167Y007235D01*
X015167Y007235D02*
X015167Y006715D01*
X014167Y006715D02*
X014167Y007235D01*
X013167Y007235D02*
X013167Y006715D01*
X012167Y006715D02*
X012167Y007235D01*
X011167Y007235D02*
X011167Y006715D01*
X010167Y006715D02*
X010167Y007235D01*
X009167Y007235D02*
X009167Y006715D01*
X008167Y006715D02*
X008167Y007235D01*
X007167Y007235D02*
X007167Y006715D01*
X006167Y006715D02*
X006167Y007235D01*
D11*
X002167Y003975D03*
X001167Y003975D03*
D12*
X002087Y001085D02*
X002687Y001085D01*
X004647Y001085D02*
X005247Y001085D01*
X005247Y002865D02*
X004647Y002865D01*
X002687Y002865D02*
X002087Y002865D01*
X002087Y005085D02*
X002687Y005085D01*
X004647Y005085D02*
X005247Y005085D01*
X005247Y006865D02*
X004647Y006865D01*
X002687Y006865D02*
X002087Y006865D01*
D13*
X007167Y004975D03*
X008167Y004975D03*
X009167Y004975D03*
X010167Y004975D03*
X011167Y004975D03*
X012167Y004975D03*
X013167Y004975D03*
X014167Y004975D03*
X014167Y003975D03*
X013167Y003975D03*
X012167Y003975D03*
X011167Y003975D03*
X010167Y003975D03*
X009167Y003975D03*
X008167Y003975D03*
X007167Y003975D03*
D14*
X008167Y003350D02*
X008417Y003600D01*
X008667Y003600D01*
X008917Y003350D01*
X009667Y003350D01*
X009667Y004350D01*
X010167Y004850D01*
X010167Y004975D01*
X011417Y005600D02*
X011667Y005350D01*
X012167Y005350D02*
X012167Y004975D01*
X012167Y005350D02*
X011667Y005850D01*
X007167Y005850D01*
X007167Y006975D01*
X007667Y006350D02*
X007917Y006100D01*
X009417Y006100D01*
X009667Y006350D01*
X010167Y006850D02*
X010917Y006100D01*
X012417Y006100D01*
X012917Y005600D01*
X013667Y005600D01*
X014167Y005100D01*
X014167Y004975D01*
X014167Y005100D02*
X018417Y005100D01*
X020167Y006850D01*
X020167Y006975D01*
X019167Y006975D02*
X019167Y006850D01*
X018417Y006100D01*
X014917Y006100D01*
X014167Y006850D01*
X014167Y006975D01*
X013167Y005850D02*
X012167Y006850D01*
X012167Y006975D01*
X010167Y006975D02*
X010167Y006850D01*
X013167Y005850D02*
X016417Y005850D01*
X016667Y005600D01*
X013167Y004975D02*
X013167Y004850D01*
X012667Y004350D01*
X012167Y003975D02*
X012167Y003850D01*
X012667Y003350D01*
X010917Y003350D01*
X010667Y003600D01*
X010167Y003975D02*
X010167Y003100D01*
X015667Y003100D01*
X015917Y002850D01*
X018417Y002850D01*
X020167Y001100D01*
X020167Y000975D01*
X019167Y000975D02*
X019167Y001100D01*
X017667Y002600D01*
X015167Y002600D01*
X012417Y002600D01*
X010667Y002600D02*
X007167Y002600D01*
X007417Y002350D02*
X007167Y002100D01*
X006667Y002100D01*
X006917Y001850D02*
X009167Y001850D01*
X010417Y001850D01*
X015417Y001850D01*
X016167Y001100D01*
X016167Y000975D01*
X016167Y002100D02*
X009417Y002100D01*
X009167Y002350D01*
X007417Y002350D01*
X006917Y001850D02*
X006167Y001100D01*
X006167Y000975D01*
X005167Y001100D02*
X004947Y001085D01*
X005167Y001100D02*
X007167Y003100D01*
X008667Y003100D01*
X008167Y003350D02*
X003667Y003350D01*
X002667Y004350D01*
X002667Y004600D01*
X002917Y004600D01*
X005167Y006850D01*
X004947Y006865D01*
X004417Y005600D02*
X007667Y005600D01*
X008167Y005100D01*
X008167Y004975D01*
X008667Y005350D02*
X008917Y005600D01*
X011417Y005600D01*
X014167Y004100D02*
X014167Y003975D01*
X014167Y004100D02*
X018167Y004100D01*
X016667Y003350D02*
X016417Y003600D01*
X014417Y003600D01*
X014167Y003350D01*
X012667Y003350D01*
X011167Y001100D02*
X010417Y001850D01*
X011167Y001100D02*
X011167Y000975D01*
X004947Y002865D02*
X004917Y002850D01*
X002417Y002850D01*
X002387Y002865D01*
X003167Y004350D02*
X004417Y005600D01*
X004947Y005085D02*
X005167Y005100D01*
X007167Y005100D01*
X007167Y004975D01*
D15*
X008667Y005350D03*
X009667Y006350D03*
X007667Y006350D03*
X011667Y005350D03*
X012667Y004350D03*
X010667Y003600D03*
X008667Y003100D03*
X007167Y002600D03*
X006667Y002100D03*
X009167Y001850D03*
X010667Y002600D03*
X012417Y002600D03*
X015167Y002600D03*
X016167Y002100D03*
X015667Y003100D03*
X016667Y003350D03*
X018167Y004100D03*
X016667Y005600D03*
X003167Y004350D03*
M02*
