%
M48
M72
T01C0.0240
T02C0.0320
T03C0.0400
%
T01
X6667Y2100
X7167Y2600
X8667Y3100
X10667Y2600
X12417Y2600
X10667Y3600
X12667Y4350
X11667Y5350
X9667Y6350
X7667Y6350
X8667Y5350
X3167Y4350
X9167Y1850
X15167Y2600
X16167Y2100
X15667Y3100
X16667Y3350
X18167Y4100
X16667Y5600
T02
X17167Y6975
X18167Y6975
X19167Y6975
X20167Y6975
X16167Y6975
X15167Y6975
X14167Y6975
X13167Y6975
X12167Y6975
X11167Y6975
X10167Y6975
X9167Y6975
X8167Y6975
X7167Y6975
X6167Y6975
X2167Y3975
X1167Y3975
X6167Y975
X7167Y975
X8167Y975
X9167Y975
X10167Y975
X11167Y975
X12167Y975
X13167Y975
X14167Y975
X15167Y975
X16167Y975
X17167Y975
X18167Y975
X19167Y975
X20167Y975
T03
X2387Y1085
X4947Y1085
X4947Y2865
X2387Y2865
X7167Y3975
X8167Y3975
X9167Y3975
X10167Y3975
X11167Y3975
X12167Y3975
X13167Y3975
X14167Y3975
X14167Y4975
X13167Y4975
X12167Y4975
X11167Y4975
X10167Y4975
X9167Y4975
X8167Y4975
X7167Y4975
X4947Y5085
X2387Y5085
X2387Y6865
X4947Y6865
M30
